STARTFONT 2.1
FONT -FontForge-Open Sans-Book-I-Normal-Sans--24-240-72-72-P-130-ISO10646-1
SIZE 24 72 72
FONTBOUNDINGBOX 41 32 -12 -6
COMMENT "Generated by fontforge, http://fontforge.sourceforge.net"
COMMENT "Digitized data copyright (c) 2010-2011, Google Corporation."
STARTPROPERTIES 41
FOUNDRY "FontForge"
FAMILY_NAME "Open Sans"
WEIGHT_NAME "Book"
SLANT "I"
SETWIDTH_NAME "Normal"
ADD_STYLE_NAME "Sans"
PIXEL_SIZE 24
POINT_SIZE 240
RESOLUTION_X 72
RESOLUTION_Y 72
SPACING "P"
AVERAGE_WIDTH 130
CHARSET_REGISTRY "ISO10646"
CHARSET_ENCODING "1"
FONTNAME_REGISTRY ""
CHARSET_COLLECTIONS "ISO8859-2 ISO8859-5 ISO8859-7 ISO8859-9 ISO8859-4 ISO10646-1"
FONT_NAME "OpenSans-Italic"
FACE_NAME "Open Sans Italic"
COPYRIGHT "Digitized data copyright (c) 2010-2011, Google Corporation."
FONT_VERSION "1.10"
FONT_ASCENT 19
FONT_DESCENT 5
UNDERLINE_POSITION -2
UNDERLINE_THICKNESS 2
X_HEIGHT 12
CAP_HEIGHT 16
RAW_ASCENT 799
RAW_DESCENT 200
ITALIC_ANGLE 4992
NORM_SPACE 6
RELATIVE_WEIGHT 40
RELATIVE_SETWIDTH 50
SUPERSCRIPT_X 0
SUPERSCRIPT_Y 11
SUPERSCRIPT_SIZE 15
SUBSCRIPT_X 0
SUBSCRIPT_Y 3
SUBSCRIPT_SIZE 15
FIGURE_WIDTH 13
AVG_LOWERCASE_WIDTH 128
AVG_UPPERCASE_WIDTH 146
ENDPROPERTIES
CHARS 936
STARTCHAR space
ENCODING 32
SWIDTH 259 0
DWIDTH 6 0
BBX 1 1 0 0
BITMAP
00
ENDCHAR
STARTCHAR exclam
ENCODING 33
SWIDTH 258 0
DWIDTH 6 0
BBX 6 17 0 0
BITMAP
0C
0C
0C
1C
18
18
18
18
10
30
30
20
00
00
60
E0
60
ENDCHAR
STARTCHAR quotedbl
ENCODING 34
SWIDTH 386 0
DWIDTH 9 0
BBX 7 6 3 11
BITMAP
EE
CC
CC
CC
88
88
ENDCHAR
STARTCHAR numbersign
ENCODING 35
SWIDTH 645 0
DWIDTH 16 0
BBX 15 17 1 0
BITMAP
0318
0218
0210
0630
0630
7FFE
7FFE
0C60
0860
1840
FFF8
FFF8
1080
3180
3180
2180
6100
ENDCHAR
STARTCHAR dollar
ENCODING 36
SWIDTH 550 0
DWIDTH 13 0
BBX 11 19 1 -1
BITMAP
0180
0100
0FC0
1FE0
3B20
3300
3200
3E00
1E00
0780
05C0
0CC0
0CC0
8DC0
FF80
7E00
1800
1800
1800
ENDCHAR
STARTCHAR percent
ENCODING 37
SWIDTH 792 0
DWIDTH 19 0
BBX 16 17 2 0
BITMAP
1C06
3E0C
6208
C218
C630
C660
C640
CCDE
FDBF
7323
0263
0663
0C43
1842
1046
307C
6038
ENDCHAR
STARTCHAR ampersand
ENCODING 38
SWIDTH 669 0
DWIDTH 16 0
BBX 14 17 1 0
BITMAP
07C0
0FE0
1C60
1830
1860
1860
0DC0
0F00
1E00
730C
E38C
C198
C0F0
C060
E1F0
7FB0
3E18
ENDCHAR
STARTCHAR quotesingle
ENCODING 39
SWIDTH 216 0
DWIDTH 5 0
BBX 3 6 3 11
BITMAP
E0
C0
C0
C0
80
80
ENDCHAR
STARTCHAR parenleft
ENCODING 40
SWIDTH 285 0
DWIDTH 7 0
BBX 7 21 1 -4
BITMAP
06
04
0C
18
30
30
60
60
60
C0
C0
C0
C0
C0
C0
C0
C0
C0
40
60
60
ENDCHAR
STARTCHAR parenright
ENCODING 41
SWIDTH 285 0
DWIDTH 7 0
BBX 7 21 -1 -4
BITMAP
08
0C
0C
04
06
06
06
06
06
06
06
0C
0C
0C
18
18
30
30
60
C0
80
ENDCHAR
STARTCHAR asterisk
ENCODING 42
SWIDTH 551 0
DWIDTH 13 0
BBX 10 11 3 7
BITMAP
0600
0600
0400
C400
F400
0FC0
1400
3600
6600
4300
0300
ENDCHAR
STARTCHAR plus
ENCODING 43
SWIDTH 550 0
DWIDTH 13 0
BBX 11 11 1 3
BITMAP
0600
0600
0600
0600
0600
FFE0
FFE0
0600
0600
0600
0600
ENDCHAR
STARTCHAR comma
ENCODING 44
SWIDTH 240 0
DWIDTH 6 0
BBX 4 6 -1 -3
BITMAP
30
30
60
60
C0
C0
ENDCHAR
STARTCHAR hyphen
ENCODING 45
SWIDTH 312 0
DWIDTH 7 0
BBX 6 2 1 5
BITMAP
FC
F8
ENDCHAR
STARTCHAR period
ENCODING 46
SWIDTH 252 0
DWIDTH 6 0
BBX 3 3 0 0
BITMAP
60
E0
60
ENDCHAR
STARTCHAR slash
ENCODING 47
SWIDTH 350 0
DWIDTH 8 0
BBX 11 17 -1 0
BITMAP
0060
0060
00C0
01C0
0180
0300
0300
0600
0600
0C00
0C00
1800
3000
3000
6000
6000
C000
ENDCHAR
STARTCHAR zero
ENCODING 48
SWIDTH 550 0
DWIDTH 13 0
BBX 12 17 1 0
BITMAP
07C0
0FE0
1C60
3870
3030
7030
6030
6030
6070
E060
C060
C060
E0C0
60C0
6380
7F00
1E00
ENDCHAR
STARTCHAR one
ENCODING 49
SWIDTH 550 0
DWIDTH 13 0
BBX 6 17 4 0
BITMAP
0C
3C
7C
EC
8C
18
18
18
18
38
30
30
30
30
60
60
60
ENDCHAR
STARTCHAR two
ENCODING 50
SWIDTH 550 0
DWIDTH 13 0
BBX 13 17 0 0
BITMAP
03E0
0FF0
0C30
0038
0018
0030
0030
0060
00C0
0180
0300
0600
0C00
3800
7000
FFE0
FFE0
ENDCHAR
STARTCHAR three
ENCODING 51
SWIDTH 550 0
DWIDTH 13 0
BBX 12 17 1 0
BITMAP
07C0
1FE0
1860
0030
0060
0060
00C0
1F80
1F00
01C0
00C0
00C0
00C0
00C0
81C0
FF80
7E00
ENDCHAR
STARTCHAR four
ENCODING 52
SWIDTH 550 0
DWIDTH 13 0
BBX 13 17 0 0
BITMAP
0030
0070
00F0
01B0
0330
0760
0E60
0C60
1860
3060
60C0
FFF8
FFF8
00C0
0080
0180
0180
ENDCHAR
STARTCHAR five
ENCODING 53
SWIDTH 550 0
DWIDTH 13 0
BBX 12 17 1 0
BITMAP
0FF0
0FF0
1800
1800
1800
1000
3000
3F00
3FC0
01C0
00E0
0060
00E0
00C0
81C0
FF80
7E00
ENDCHAR
STARTCHAR six
ENCODING 54
SWIDTH 550 0
DWIDTH 13 0
BBX 11 17 2 0
BITMAP
03E0
0FE0
1C00
3800
7000
6000
6F00
DF80
F1C0
C0C0
C0C0
C0C0
C0C0
C180
E380
7F00
3E00
ENDCHAR
STARTCHAR seven
ENCODING 55
SWIDTH 550 0
DWIDTH 13 0
BBX 11 17 2 0
BITMAP
7FE0
7FE0
0060
00C0
00C0
0180
0300
0300
0600
0600
0C00
1800
1800
3000
3000
6000
C000
ENDCHAR
STARTCHAR eight
ENCODING 56
SWIDTH 550 0
DWIDTH 13 0
BBX 12 17 1 0
BITMAP
07C0
0FE0
1C70
1830
1830
1870
1CE0
0F80
1F00
39C0
60C0
C060
C060
C0E0
E1C0
7F80
3F00
ENDCHAR
STARTCHAR nine
ENCODING 57
SWIDTH 550 0
DWIDTH 13 0
BBX 11 17 1 0
BITMAP
0780
1FC0
3860
3060
6020
6020
6060
6060
70E0
3F60
1E60
00C0
00C0
0180
0780
FF00
FC00
ENDCHAR
STARTCHAR colon
ENCODING 58
SWIDTH 252 0
DWIDTH 6 0
BBX 5 13 0 0
BITMAP
18
38
18
00
00
00
00
00
00
00
60
E0
60
ENDCHAR
STARTCHAR semicolon
ENCODING 59
SWIDTH 252 0
DWIDTH 6 0
BBX 6 16 -1 -3
BITMAP
0C
1C
0C
00
00
00
00
00
00
00
30
30
60
60
C0
C0
ENDCHAR
STARTCHAR less
ENCODING 60
SWIDTH 550 0
DWIDTH 13 0
BBX 11 12 1 3
BITMAP
0020
00E0
01C0
0700
1C00
7000
E000
3800
0E00
03C0
00E0
0020
ENDCHAR
STARTCHAR equal
ENCODING 61
SWIDTH 550 0
DWIDTH 13 0
BBX 11 6 1 6
BITMAP
FFE0
FFE0
0000
0000
FFE0
FFE0
ENDCHAR
STARTCHAR greater
ENCODING 62
SWIDTH 550 0
DWIDTH 13 0
BBX 11 12 1 3
BITMAP
8000
E000
3800
0E00
0380
00E0
0060
03C0
0F00
3C00
F000
C000
ENDCHAR
STARTCHAR question
ENCODING 63
SWIDTH 426 0
DWIDTH 10 0
BBX 9 17 2 0
BITMAP
3E00
FF00
4380
0180
0180
0300
0700
0E00
1C00
3000
6000
6000
0000
0000
E000
E000
C000
ENDCHAR
STARTCHAR at
ENCODING 64
SWIDTH 847 0
DWIDTH 20 0
BBX 19 19 1 -2
BITMAP
00FE00
03FF00
0E0180
1800C0
300040
30FC60
61DC60
630C60
461860
C61840
C418C0
C638C0
C7FF80
43CF00
600000
600000
380000
1FF800
07F000
ENDCHAR
STARTCHAR A
ENCODING 65
SWIDTH 555 0
DWIDTH 13 0
BBX 13 17 -1 0
BITMAP
0060
00E0
00A0
01A0
01B0
0330
0730
0630
0C30
0C30
1FF0
1FF0
3018
3018
6018
E018
C018
ENDCHAR
STARTCHAR B
ENCODING 66
SWIDTH 598 0
DWIDTH 14 0
BBX 13 17 1 0
BITMAP
0FE0
1FF0
1838
1818
1818
3018
3070
3FE0
3FC0
3060
6030
6030
6030
6070
40E0
FFC0
FF00
ENDCHAR
STARTCHAR C
ENCODING 67
SWIDTH 584 0
DWIDTH 14 0
BBX 13 17 2 0
BITMAP
03F0
0FF8
1C00
3800
7000
6000
E000
C000
C000
C000
C000
C000
C000
E000
7040
3FC0
1F80
ENDCHAR
STARTCHAR D
ENCODING 68
SWIDTH 666 0
DWIDTH 16 0
BBX 14 17 1 0
BITMAP
0FE0
1FF0
1838
181C
180C
380C
300C
300C
300C
300C
601C
6018
6038
6070
41E0
FFC0
FF00
ENDCHAR
STARTCHAR E
ENCODING 69
SWIDTH 511 0
DWIDTH 12 0
BBX 12 17 1 0
BITMAP
0FF0
1FF0
1800
1800
1800
3000
3000
3FC0
3FC0
3000
6000
6000
6000
6000
6000
FF80
FF80
ENDCHAR
STARTCHAR F
ENCODING 70
SWIDTH 472 0
DWIDTH 11 0
BBX 12 17 1 0
BITMAP
0FF0
1FF0
1800
1800
1800
3000
3000
3000
3FC0
3FC0
6000
6000
6000
6000
6000
C000
C000
ENDCHAR
STARTCHAR G
ENCODING 71
SWIDTH 676 0
DWIDTH 16 0
BBX 14 17 2 0
BITMAP
03F0
0FFC
1C08
3800
7000
6000
E000
C000
C0F8
C1F8
C030
C030
C030
E030
7030
3FE0
1FC0
ENDCHAR
STARTCHAR H
ENCODING 72
SWIDTH 678 0
DWIDTH 16 0
BBX 15 17 1 0
BITMAP
0C06
1806
1806
1806
180C
300C
300C
3FFC
3FFC
3018
6018
6018
6018
6030
6030
C030
C030
ENDCHAR
STARTCHAR I
ENCODING 73
SWIDTH 272 0
DWIDTH 7 0
BBX 6 17 1 0
BITMAP
0C
18
18
18
18
30
30
30
30
30
60
60
60
60
60
C0
C0
ENDCHAR
STARTCHAR J
ENCODING 74
SWIDTH 267 0
DWIDTH 6 0
BBX 11 21 -4 -4
BITMAP
0060
00C0
00C0
00C0
00C0
0180
0180
0180
0180
0180
0300
0300
0300
0300
0600
0600
0600
0600
0C00
FC00
F000
ENDCHAR
STARTCHAR K
ENCODING 75
SWIDTH 557 0
DWIDTH 13 0
BBX 14 17 1 0
BITMAP
0C0C
1818
1830
1860
18C0
3180
3300
3600
3E00
3300
6300
6180
6180
61C0
60C0
C0C0
C060
ENDCHAR
STARTCHAR L
ENCODING 76
SWIDTH 474 0
DWIDTH 11 0
BBX 9 17 1 0
BITMAP
0C00
1800
1800
1800
1800
3000
3000
3000
3000
3000
6000
6000
6000
6000
6000
FF80
FF80
ENDCHAR
STARTCHAR M
ENCODING 77
SWIDTH 836 0
DWIDTH 20 0
BBX 19 17 1 0
BITMAP
1E00E0
1E01E0
1E01E0
1E03C0
1E02C0
3606C0
320CC0
320CC0
331980
231980
633180
633180
636180
634300
41C300
C18300
C18300
ENDCHAR
STARTCHAR N
ENCODING 78
SWIDTH 702 0
DWIDTH 17 0
BBX 16 17 1 0
BITMAP
1C03
1C03
1E06
1E06
1606
3306
3306
318C
318C
318C
60CC
60CC
6058
6078
4078
C038
C030
ENDCHAR
STARTCHAR O
ENCODING 79
SWIDTH 720 0
DWIDTH 17 0
BBX 15 17 2 0
BITMAP
03E0
0FF8
1C38
300C
700C
600C
E00E
C00C
C00C
C00C
C00C
C01C
C018
E038
70F0
3FE0
1F80
ENDCHAR
STARTCHAR P
ENCODING 80
SWIDTH 565 0
DWIDTH 14 0
BBX 13 17 1 0
BITMAP
0FC0
1FF0
1870
1830
1818
3838
3030
3030
30F0
3FE0
7F80
6000
6000
6000
6000
C000
C000
ENDCHAR
STARTCHAR Q
ENCODING 81
SWIDTH 720 0
DWIDTH 17 0
BBX 15 21 2 -4
BITMAP
03E0
0FF8
1C38
300C
700C
600C
E00E
C00E
C00C
C00C
C00C
C01C
C018
E038
70F0
3FE0
1F80
0180
00C0
00E0
0060
ENDCHAR
STARTCHAR R
ENCODING 82
SWIDTH 568 0
DWIDTH 14 0
BBX 13 17 1 0
BITMAP
0FC0
1FF0
1830
1838
1818
3030
3030
3070
3FC0
3F00
6180
6180
6180
60C0
60C0
C0E0
C060
ENDCHAR
STARTCHAR S
ENCODING 83
SWIDTH 501 0
DWIDTH 12 0
BBX 12 17 0 0
BITMAP
07E0
0FF0
1C10
1800
1800
1800
1800
0E00
0780
01C0
00C0
00E0
0060
00C0
C1C0
FF80
7F00
ENDCHAR
STARTCHAR T
ENCODING 84
SWIDTH 498 0
DWIDTH 12 0
BBX 12 17 2 0
BITMAP
FFF0
FFF0
0600
0600
0C00
0C00
0C00
0C00
0C00
1800
1800
1800
1800
3000
3000
3000
3000
ENDCHAR
STARTCHAR U
ENCODING 85
SWIDTH 675 0
DWIDTH 16 0
BBX 14 17 2 0
BITMAP
300C
300C
300C
300C
601C
6018
6018
6018
6018
C030
C030
C030
C030
C060
E0E0
7FC0
3F00
ENDCHAR
STARTCHAR V
ENCODING 86
SWIDTH 547 0
DWIDTH 13 0
BBX 13 17 2 0
BITMAP
C018
C038
C030
6060
6060
60C0
60C0
6180
6180
6300
6300
6600
2600
3C00
3C00
3800
3800
ENDCHAR
STARTCHAR W
ENCODING 87
SWIDTH 852 0
DWIDTH 20 0
BBX 19 17 3 0
BITMAP
C0E060
C0E060
C1E0C0
C1E0C0
C36180
C36180
C66180
C66300
CC6300
CC6600
C86600
D86C00
D02C00
F02800
F03800
E03000
E03000
ENDCHAR
STARTCHAR X
ENCODING 88
SWIDTH 519 0
DWIDTH 12 0
BBX 15 17 -1 0
BITMAP
0C06
0C0C
0618
0638
0630
0360
03C0
0180
0380
0380
06C0
0CC0
1860
3860
3060
6030
C030
ENDCHAR
STARTCHAR Y
ENCODING 89
SWIDTH 502 0
DWIDTH 12 0
BBX 12 17 2 0
BITMAP
C030
6060
60E0
60C0
6180
3380
3300
3600
3C00
1C00
1800
1800
1800
3000
3000
3000
3000
ENDCHAR
STARTCHAR Z
ENCODING 90
SWIDTH 530 0
DWIDTH 13 0
BBX 14 17 0 0
BITMAP
0FFC
1FF8
0018
0030
0060
00C0
01C0
0380
0300
0600
0C00
1800
3800
3000
6000
FFE0
FFC0
ENDCHAR
STARTCHAR bracketleft
ENCODING 91
SWIDTH 286 0
DWIDTH 7 0
BBX 9 21 0 -4
BITMAP
0F80
0F80
0C00
0800
1800
1800
1800
1800
3000
3000
3000
3000
3000
6000
6000
6000
6000
4000
C000
F800
F000
ENDCHAR
STARTCHAR backslash
ENCODING 92
SWIDTH 350 0
DWIDTH 8 0
BBX 4 17 3 0
BITMAP
80
C0
C0
C0
C0
C0
40
60
60
60
60
60
60
20
30
30
30
ENDCHAR
STARTCHAR bracketright
ENCODING 93
SWIDTH 286 0
DWIDTH 7 0
BBX 9 21 -2 -4
BITMAP
0780
0F80
0180
0180
0300
0300
0300
0300
0200
0600
0600
0600
0600
0C00
0C00
0C00
0C00
0C00
1800
7800
F800
ENDCHAR
STARTCHAR asciicircum
ENCODING 94
SWIDTH 517 0
DWIDTH 12 0
BBX 11 11 1 6
BITMAP
0300
0300
0780
0D80
0880
1880
30C0
30C0
6040
4060
C060
ENDCHAR
STARTCHAR underscore
ENCODING 95
SWIDTH 394 0
DWIDTH 9 0
BBX 10 2 -2 -4
BITMAP
FFC0
FF80
ENDCHAR
STARTCHAR grave
ENCODING 96
SWIDTH 554 0
DWIDTH 13 0
BBX 3 4 7 15
BITMAP
C0
C0
60
20
ENDCHAR
STARTCHAR a
ENCODING 97
SWIDTH 564 0
DWIDTH 14 0
BBX 12 13 1 0
BITMAP
0F30
1FB0
38F0
7060
6060
6060
C060
C0E0
C0C0
C1C0
E3C0
7EC0
3CC0
ENDCHAR
STARTCHAR b
ENCODING 98
SWIDTH 577 0
DWIDTH 14 0
BBX 12 18 1 0
BITMAP
1800
1800
1800
1800
1800
33C0
37E0
3C60
3830
3030
6030
6060
6060
6060
E0E0
F1C0
FF80
9F00
ENDCHAR
STARTCHAR c
ENCODING 99
SWIDTH 450 0
DWIDTH 11 0
BBX 10 13 1 0
BITMAP
0F80
1FC0
3800
7000
6000
E000
C000
C000
C000
C000
6100
7F00
3E00
ENDCHAR
STARTCHAR d
ENCODING 100
SWIDTH 577 0
DWIDTH 14 0
BBX 13 18 1 0
BITMAP
0018
0018
0018
0018
0030
0F30
1FB0
38F0
7060
6060
6060
C060
C0E0
C0C0
C1C0
E3C0
7EC0
3CC0
ENDCHAR
STARTCHAR e
ENCODING 101
SWIDTH 493 0
DWIDTH 12 0
BBX 10 13 1 0
BITMAP
0F80
1FC0
38C0
70C0
60C0
6380
FF00
FE00
C000
C000
6080
7F80
3E00
ENDCHAR
STARTCHAR f
ENCODING 102
SWIDTH 312 0
DWIDTH 8 0
BBX 13 24 -3 -6
BITMAP
0078
00F8
01C0
0180
0180
07E0
0FE0
0300
0300
0300
0300
0600
0600
0600
0600
0600
0C00
0C00
0C00
0C00
1C00
1800
F800
F000
ENDCHAR
STARTCHAR g
ENCODING 103
SWIDTH 500 0
DWIDTH 12 0
BBX 14 19 -1 -6
BITMAP
07FC
0FFC
1C60
1830
1870
18E0
1FC0
0F80
1800
3000
3000
3F80
1FC0
60E0
C060
8060
C1C0
FFC0
7F00
ENDCHAR
STARTCHAR h
ENCODING 104
SWIDTH 577 0
DWIDTH 14 0
BBX 11 18 1 0
BITMAP
1800
1800
1800
1800
1800
33C0
37E0
3C60
3860
3060
7060
6060
6060
6040
C0C0
C0C0
C0C0
C0C0
ENDCHAR
STARTCHAR i
ENCODING 105
SWIDTH 253 0
DWIDTH 6 0
BBX 5 18 1 0
BITMAP
18
18
00
00
00
30
30
30
30
60
60
60
60
60
C0
C0
C0
C0
ENDCHAR
STARTCHAR j
ENCODING 106
SWIDTH 253 0
DWIDTH 6 0
BBX 9 24 -3 -6
BITMAP
0180
0180
0000
0000
0000
0300
0300
0300
0300
0600
0600
0600
0600
0600
0C00
0C00
0C00
0C00
0C00
1800
1800
3800
F000
E000
ENDCHAR
STARTCHAR k
ENCODING 107
SWIDTH 487 0
DWIDTH 12 0
BBX 11 18 1 0
BITMAP
1800
1800
1800
1800
1800
3060
30C0
3180
3300
6600
6C00
7C00
7600
6600
C300
C300
C380
C180
ENDCHAR
STARTCHAR l
ENCODING 108
SWIDTH 253 0
DWIDTH 6 0
BBX 5 18 1 0
BITMAP
18
18
18
18
18
30
30
30
30
60
60
60
60
60
C0
C0
C0
C0
ENDCHAR
STARTCHAR m
ENCODING 109
SWIDTH 872 0
DWIDTH 21 0
BBX 19 13 1 0
BITMAP
33C380
37EFC0
3C78E0
387060
7060C0
7060C0
6060C0
60C0C0
60C0C0
C0C180
C0C180
C18180
C18180
ENDCHAR
STARTCHAR n
ENCODING 110
SWIDTH 577 0
DWIDTH 14 0
BBX 11 13 1 0
BITMAP
33C0
37E0
3C60
3820
7060
7060
6060
6060
6060
C0C0
C0C0
C0C0
C0C0
ENDCHAR
STARTCHAR o
ENCODING 111
SWIDTH 561 0
DWIDTH 13 0
BBX 11 13 1 0
BITMAP
0F80
1FC0
38E0
7060
6060
E060
C060
C060
C060
C0C0
61C0
7F80
3E00
ENDCHAR
STARTCHAR p
ENCODING 112
SWIDTH 577 0
DWIDTH 14 0
BBX 13 19 0 -6
BITMAP
19E0
1BF0
1E30
1C18
3818
3018
3030
3030
3030
7070
78E0
7FC0
6F80
6000
C000
C000
C000
C000
C000
ENDCHAR
STARTCHAR q
ENCODING 113
SWIDTH 577 0
DWIDTH 14 0
BBX 12 19 1 -6
BITMAP
0F30
1FB0
38F0
7060
6060
6060
C060
C0E0
C0C0
C1C0
E3C0
7EC0
3CC0
0180
0180
0180
0180
0180
0300
ENDCHAR
STARTCHAR r
ENCODING 114
SWIDTH 395 0
DWIDTH 10 0
BBX 9 13 1 0
BITMAP
3380
3780
3C00
3800
7000
7000
6000
6000
6000
C000
C000
C000
C000
ENDCHAR
STARTCHAR s
ENCODING 115
SWIDTH 428 0
DWIDTH 10 0
BBX 10 13 0 0
BITMAP
0F80
3FC0
3080
3000
3000
3800
1E00
0700
0380
0180
8300
FF00
7C00
ENDCHAR
STARTCHAR t
ENCODING 116
SWIDTH 324 0
DWIDTH 8 0
BBX 7 16 1 0
BITMAP
08
18
10
7E
FE
30
30
20
60
60
60
60
C0
E0
78
78
ENDCHAR
STARTCHAR u
ENCODING 117
SWIDTH 577 0
DWIDTH 14 0
BBX 12 13 1 0
BITMAP
3030
3030
3030
3060
6060
6060
6060
60E0
C0C0
C1C0
E3C0
7EC0
3CC0
ENDCHAR
STARTCHAR v
ENCODING 118
SWIDTH 461 0
DWIDTH 11 0
BBX 11 13 1 0
BITMAP
C060
C0C0
C0C0
4180
6180
6300
6300
6600
6600
6C00
6C00
7800
3800
ENDCHAR
STARTCHAR w
ENCODING 119
SWIDTH 716 0
DWIDTH 17 0
BBX 17 13 1 0
BITMAP
C1C180
C1C300
C3C300
43C600
46C600
46C600
44CC00
6CCC00
68D800
585800
507000
707000
706000
ENDCHAR
STARTCHAR x
ENCODING 120
SWIDTH 478 0
DWIDTH 11 0
BBX 12 13 0 0
BITMAP
3070
1860
18C0
1980
0F00
0E00
0600
0E00
1B00
3300
6180
E180
C180
ENDCHAR
STARTCHAR y
ENCODING 121
SWIDTH 461 0
DWIDTH 11 0
BBX 14 19 -2 -6
BITMAP
180C
1818
0818
0C30
0C30
0C60
0C60
0CC0
0CC0
0580
0580
0700
0700
0600
0E00
0C00
1800
F800
E000
ENDCHAR
STARTCHAR z
ENCODING 122
SWIDTH 443 0
DWIDTH 11 0
BBX 10 13 0 0
BITMAP
1FC0
1FC0
00C0
0180
0300
0600
0C00
1800
3000
7000
E000
FF00
FF00
ENDCHAR
STARTCHAR braceleft
ENCODING 123
SWIDTH 349 0
DWIDTH 8 0
BBX 9 21 0 -4
BITMAP
0180
0780
0600
0600
0400
0C00
0C00
0C00
1800
7000
F000
3000
1800
1000
3000
3000
3000
3000
3000
3800
1800
ENDCHAR
STARTCHAR bar
ENCODING 124
SWIDTH 550 0
DWIDTH 13 0
BBX 2 24 6 -6
BITMAP
C0
C0
C0
C0
C0
C0
C0
C0
C0
C0
C0
C0
C0
C0
C0
C0
C0
C0
C0
C0
C0
C0
C0
C0
ENDCHAR
STARTCHAR braceright
ENCODING 125
SWIDTH 349 0
DWIDTH 8 0
BBX 9 21 -1 -4
BITMAP
0E00
0F00
0300
0300
0300
0600
0600
0600
0600
0600
0380
0780
0C00
0C00
0800
1800
1800
1800
3800
F000
E000
ENDCHAR
STARTCHAR asciitilde
ENCODING 126
SWIDTH 550 0
DWIDTH 13 0
BBX 12 3 1 7
BITMAP
7C10
FFF0
83E0
ENDCHAR
STARTCHAR nonbreakingspace
ENCODING 160
SWIDTH 259 0
DWIDTH 6 0
BBX 1 1 0 0
BITMAP
00
ENDCHAR
STARTCHAR exclamdown
ENCODING 161
SWIDTH 258 0
DWIDTH 6 0
BBX 6 17 0 -4
BITMAP
1C
1C
18
00
00
10
10
30
30
30
20
60
60
60
E0
E0
C0
ENDCHAR
STARTCHAR cent
ENCODING 162
SWIDTH 550 0
DWIDTH 13 0
BBX 9 17 3 0
BITMAP
0200
0200
0F80
3F80
7000
6000
E000
C000
C000
C000
C000
C000
E100
7F00
3E00
1000
3000
ENDCHAR
STARTCHAR sterling
ENCODING 163
SWIDTH 550 0
DWIDTH 13 0
BBX 14 17 0 0
BITMAP
01F0
03FC
0708
0600
0600
0C00
0C00
0C00
7FC0
7FC0
1800
1800
1800
1000
3000
FFE0
FFE0
ENDCHAR
STARTCHAR currency
ENCODING 164
SWIDTH 550 0
DWIDTH 13 0
BBX 10 11 2 3
BITMAP
4040
DEC0
7F80
6180
4080
4080
4080
6180
7F80
DEC0
4040
ENDCHAR
STARTCHAR yen
ENCODING 165
SWIDTH 550 0
DWIDTH 13 0
BBX 12 17 2 0
BITMAP
6030
6030
6060
30C0
30C0
3180
1300
1B00
1E00
FF80
FF80
1800
FF00
FF00
1800
1000
3000
ENDCHAR
STARTCHAR brokenbar
ENCODING 166
SWIDTH 550 0
DWIDTH 13 0
BBX 2 24 6 -6
BITMAP
C0
C0
C0
C0
C0
C0
C0
C0
C0
00
00
00
00
00
00
C0
C0
C0
C0
C0
C0
C0
C0
C0
ENDCHAR
STARTCHAR section
ENCODING 167
SWIDTH 485 0
DWIDTH 12 0
BBX 11 18 1 0
BITMAP
0FC0
1FE0
1840
3000
1800
0E00
3F80
6180
60C0
6080
7180
3F00
0E00
0300
0300
8300
FE00
FC00
ENDCHAR
STARTCHAR dieresis
ENCODING 168
SWIDTH 554 0
DWIDTH 13 0
BBX 7 2 5 15
BITMAP
46
C6
ENDCHAR
STARTCHAR copyright
ENCODING 169
SWIDTH 832 0
DWIDTH 20 0
BBX 17 17 2 0
BITMAP
03E000
1C3800
300600
61E300
47E100
C60180
8C0080
8C0080
8C0080
8C0080
8C0080
C60180
47E100
63E300
300600
1C1800
07F000
ENDCHAR
STARTCHAR ordfeminine
ENCODING 170
SWIDTH 334 0
DWIDTH 8 0
BBX 7 8 2 9
BITMAP
3A
66
46
C4
84
8C
DC
7C
ENDCHAR
STARTCHAR guillemotleft
ENCODING 171
SWIDTH 467 0
DWIDTH 11 0
BBX 10 10 1 1
BITMAP
0800
18C0
3180
6300
C600
C600
6600
6300
3300
3100
ENDCHAR
STARTCHAR logicalnot
ENCODING 172
SWIDTH 550 0
DWIDTH 13 0
BBX 11 6 1 3
BITMAP
FFE0
FFE0
0020
0020
0020
0020
ENDCHAR
STARTCHAR uni00AD
ENCODING 173
SWIDTH 312 0
DWIDTH 7 0
BBX 6 2 1 5
BITMAP
FC
F8
ENDCHAR
STARTCHAR registered
ENCODING 174
SWIDTH 832 0
DWIDTH 20 0
BBX 17 17 2 0
BITMAP
03E000
1C3800
300600
600300
43E100
C27180
823080
823080
83E080
82C080
826080
C23180
423100
600300
300600
1C1800
07F000
ENDCHAR
STARTCHAR overscore
ENCODING 175
SWIDTH 381 0
DWIDTH 9 0
BBX 9 2 3 18
BITMAP
FF80
FF80
ENDCHAR
STARTCHAR degree
ENCODING 176
SWIDTH 428 0
DWIDTH 10 0
BBX 7 7 3 10
BITMAP
78
CC
86
86
86
CC
78
ENDCHAR
STARTCHAR plusminus
ENCODING 177
SWIDTH 550 0
DWIDTH 13 0
BBX 11 14 1 0
BITMAP
0600
0600
0600
0600
0600
FFE0
FFE0
0600
0600
0600
0600
0000
FFE0
FFE0
ENDCHAR
STARTCHAR twosuperior
ENCODING 178
SWIDTH 350 0
DWIDTH 8 0
BBX 8 10 1 7
BITMAP
1E
37
03
03
06
0C
18
30
60
FE
ENDCHAR
STARTCHAR threesuperior
ENCODING 179
SWIDTH 350 0
DWIDTH 8 0
BBX 8 10 1 7
BITMAP
1E
37
03
02
1C
0E
02
06
CE
7C
ENDCHAR
STARTCHAR acute
ENCODING 180
SWIDTH 554 0
DWIDTH 13 0
BBX 5 4 6 15
BITMAP
18
30
60
C0
ENDCHAR
STARTCHAR mu
ENCODING 181
SWIDTH 583 0
DWIDTH 14 0
BBX 13 19 0 -6
BITMAP
1818
1818
1818
1818
3030
3030
3030
3070
3060
60E0
71E0
7F60
7E60
4000
C000
C000
C000
C000
C000
ENDCHAR
STARTCHAR paragraph
ENCODING 182
SWIDTH 654 0
DWIDTH 16 0
BBX 12 21 2 -3
BITMAP
1FF0
3FF0
7F10
7F10
FF10
FF10
FF10
FF10
7F10
7F10
7F10
1F10
0110
0110
0110
0110
0110
0110
0110
0110
0110
ENDCHAR
STARTCHAR periodcentered
ENCODING 183
SWIDTH 252 0
DWIDTH 6 0
BBX 3 3 2 7
BITMAP
E0
E0
C0
ENDCHAR
STARTCHAR cedilla
ENCODING 184
SWIDTH 205 0
DWIDTH 5 0
BBX 4 6 -2 -6
BITMAP
20
20
30
10
30
E0
ENDCHAR
STARTCHAR onesuperior
ENCODING 185
SWIDTH 350 0
DWIDTH 8 0
BBX 5 10 3 7
BITMAP
38
70
D0
30
30
20
20
60
60
60
ENDCHAR
STARTCHAR ordmasculine
ENCODING 186
SWIDTH 335 0
DWIDTH 8 0
BBX 7 8 2 9
BITMAP
3C
64
C6
86
86
84
CC
78
ENDCHAR
STARTCHAR guillemotright
ENCODING 187
SWIDTH 467 0
DWIDTH 11 0
BBX 9 10 1 1
BITMAP
4600
6200
2300
3300
3180
3180
6300
C600
CC00
8800
ENDCHAR
STARTCHAR onequarter
ENCODING 188
SWIDTH 741 0
DWIDTH 18 0
BBX 14 17 2 0
BITMAP
180C
7818
5830
1020
3060
30C0
3180
210C
2318
6628
0C78
08D8
1990
33FC
6010
4030
C030
ENDCHAR
STARTCHAR onehalf
ENCODING 189
SWIDTH 741 0
DWIDTH 18 0
BBX 16 17 1 0
BITMAP
180C
3818
5810
1830
1060
10C0
3080
319E
3333
2603
0403
0C06
180C
3018
2030
6060
C0FE
ENDCHAR
STARTCHAR threequarters
ENCODING 190
SWIDTH 764 0
DWIDTH 18 0
BBX 16 17 1 0
BITMAP
3E01
2603
0206
060C
3808
0C18
0630
0663
CC43
F8C7
018B
0312
0222
067F
0C06
1806
1004
ENDCHAR
STARTCHAR questiondown
ENCODING 191
SWIDTH 426 0
DWIDTH 10 0
BBX 9 17 0 -4
BITMAP
0380
0380
0300
0000
0000
0300
0200
0600
1C00
3800
6000
E000
C000
C000
E100
7F00
3E00
ENDCHAR
STARTCHAR Agrave
ENCODING 192
SWIDTH 555 0
DWIDTH 13 0
BBX 13 23 -1 0
BITMAP
01C0
00C0
0040
0060
0000
0000
0060
00E0
00A0
01A0
01B0
0330
0730
0630
0C30
0C30
1FF0
1FF0
3018
3018
6018
E018
C018
ENDCHAR
STARTCHAR Aacute
ENCODING 193
SWIDTH 555 0
DWIDTH 13 0
BBX 14 23 -1 0
BITMAP
001C
0018
0030
0060
0000
0000
0060
00E0
00A0
01A0
01B0
0330
0730
0630
0C30
0C30
1FF0
1FF0
3018
3018
6018
E018
C018
ENDCHAR
STARTCHAR Acircumflex
ENCODING 194
SWIDTH 555 0
DWIDTH 13 0
BBX 14 23 -1 0
BITMAP
0070
0070
00D8
010C
0000
0000
0060
00E0
00A0
01A0
01B0
0330
0730
0630
0C30
0C30
1FF0
1FF0
3018
3018
6018
E018
C018
ENDCHAR
STARTCHAR Atilde
ENCODING 195
SWIDTH 555 0
DWIDTH 13 0
BBX 15 22 -1 0
BITMAP
01C6
01FC
0238
0000
0000
0060
00E0
00A0
01A0
01B0
0330
0730
0630
0C30
0C30
1FF0
1FF0
3018
3018
6018
E018
C018
ENDCHAR
STARTCHAR Adieresis
ENCODING 196
SWIDTH 555 0
DWIDTH 13 0
BBX 13 21 -1 0
BITMAP
0188
0198
0000
0000
0060
00E0
00A0
01A0
01B0
0330
0730
0630
0C30
0C30
1FF0
1FF0
3018
3018
6018
E018
C018
ENDCHAR
STARTCHAR Aring
ENCODING 197
SWIDTH 555 0
DWIDTH 13 0
BBX 13 22 -1 0
BITMAP
00F0
0090
0198
0090
00F0
0060
00E0
00A0
01A0
01B0
0330
0730
0630
0C30
0C30
1FF0
1FF0
3018
3018
6018
E018
C018
ENDCHAR
STARTCHAR AE
ENCODING 198
SWIDTH 816 0
DWIDTH 20 0
BBX 22 17 -1 0
BITMAP
003FFC
003FF8
006C00
00EC00
00CC00
018C00
038C00
031FF0
061FE0
0E1800
0FF800
1FF800
183000
303000
703000
603FC0
C07FC0
ENDCHAR
STARTCHAR Ccedilla
ENCODING 199
SWIDTH 584 0
DWIDTH 14 0
BBX 13 23 2 -6
BITMAP
03F0
0FF8
1C00
3800
7000
6000
E000
C000
C000
C000
C000
C000
C000
E000
7040
3FC0
1F80
0400
0C00
0E00
0600
0600
3C00
ENDCHAR
STARTCHAR Egrave
ENCODING 200
SWIDTH 511 0
DWIDTH 12 0
BBX 12 23 1 0
BITMAP
0300
0300
0180
0080
0000
0000
0FF0
1FF0
1800
1800
1800
3000
3000
3FC0
3FC0
3000
6000
6000
6000
6000
6000
FF80
FF80
ENDCHAR
STARTCHAR Eacute
ENCODING 201
SWIDTH 511 0
DWIDTH 12 0
BBX 12 23 1 0
BITMAP
0060
00E0
00C0
0180
0000
0000
0FF0
1FF0
1800
1800
1800
3000
3000
3FC0
3FC0
3000
6000
6000
6000
6000
6000
FF80
FF80
ENDCHAR
STARTCHAR Ecircumflex
ENCODING 202
SWIDTH 511 0
DWIDTH 12 0
BBX 12 23 1 0
BITMAP
00C0
01C0
0360
0430
0000
0000
0FF0
1FF0
1800
1800
1800
3000
3000
3FC0
3FC0
3000
6000
6000
6000
6000
6000
FF80
FF80
ENDCHAR
STARTCHAR Edieresis
ENCODING 203
SWIDTH 511 0
DWIDTH 12 0
BBX 12 21 1 0
BITMAP
0620
0660
0000
0000
0FF0
1FF0
1800
1800
1800
3000
3000
3FC0
3FC0
3000
6000
6000
6000
6000
6000
FF80
FF80
ENDCHAR
STARTCHAR Igrave
ENCODING 204
SWIDTH 272 0
DWIDTH 7 0
BBX 6 23 1 0
BITMAP
30
18
18
0C
00
00
0C
18
18
18
18
30
30
30
30
30
60
60
60
60
60
C0
C0
ENDCHAR
STARTCHAR Iacute
ENCODING 205
SWIDTH 272 0
DWIDTH 7 0
BBX 9 23 1 0
BITMAP
0380
0300
0600
0C00
0000
0000
0C00
1800
1800
1800
1800
3000
3000
3000
3000
3000
6000
6000
6000
6000
6000
C000
C000
ENDCHAR
STARTCHAR Icircumflex
ENCODING 206
SWIDTH 272 0
DWIDTH 7 0
BBX 8 23 1 0
BITMAP
0E
1E
33
61
00
00
0C
18
18
18
18
30
30
30
30
30
60
60
60
60
60
C0
C0
ENDCHAR
STARTCHAR Idieresis
ENCODING 207
SWIDTH 272 0
DWIDTH 7 0
BBX 8 21 1 0
BITMAP
31
33
00
00
0C
18
18
18
18
30
30
30
30
30
60
60
60
60
60
C0
C0
ENDCHAR
STARTCHAR Eth
ENCODING 208
SWIDTH 666 0
DWIDTH 16 0
BBX 14 17 1 0
BITMAP
0FE0
1FF0
1838
181C
180C
380C
300C
300C
FF0C
FF0C
601C
6018
6038
6070
41E0
FFC0
FF00
ENDCHAR
STARTCHAR Ntilde
ENCODING 209
SWIDTH 702 0
DWIDTH 17 0
BBX 16 22 1 0
BITMAP
01C6
01FC
0238
0000
0000
1C03
1C03
1E06
1E06
1606
3306
3306
318C
318C
318C
60CC
60CC
6058
6078
4078
C038
C030
ENDCHAR
STARTCHAR Ograve
ENCODING 210
SWIDTH 720 0
DWIDTH 17 0
BBX 15 23 2 0
BITMAP
0300
0180
0180
00C0
0000
0000
03E0
0FF8
1C38
300C
700C
600C
E00E
C00C
C00C
C00C
C00C
C01C
C018
E038
70F0
3FE0
1F80
ENDCHAR
STARTCHAR Oacute
ENCODING 211
SWIDTH 720 0
DWIDTH 17 0
BBX 15 23 2 0
BITMAP
0030
0070
0060
0080
0000
0000
03E0
0FF8
1C38
300C
700C
600C
E00E
C00C
C00C
C00C
C00C
C01C
C018
E038
70F0
3FE0
1F80
ENDCHAR
STARTCHAR Ocircumflex
ENCODING 212
SWIDTH 720 0
DWIDTH 17 0
BBX 15 23 2 0
BITMAP
00E0
01E0
0330
0610
0000
0000
03E0
0FF8
1C38
300C
700C
600C
E00E
C00C
C00C
C00C
C00C
C01C
C018
E038
70F0
3FE0
1F80
ENDCHAR
STARTCHAR Otilde
ENCODING 213
SWIDTH 720 0
DWIDTH 17 0
BBX 15 22 2 0
BITMAP
0388
07F8
0470
0000
0000
03E0
0FF8
1C38
300C
700C
600C
E00E
C00C
C00C
C00C
C00C
C01C
C018
E038
70F0
3FE0
1F80
ENDCHAR
STARTCHAR Odieresis
ENCODING 214
SWIDTH 720 0
DWIDTH 17 0
BBX 15 21 2 0
BITMAP
0330
0330
0000
0000
03E0
0FF8
1C38
300C
700C
600C
E00E
C00C
C00C
C00C
C00C
C01C
C018
E038
70F0
3FE0
1F80
ENDCHAR
STARTCHAR multiply
ENCODING 215
SWIDTH 550 0
DWIDTH 13 0
BBX 9 9 2 4
BITMAP
4080
E180
3300
1E00
0C00
1E00
3300
E180
4080
ENDCHAR
STARTCHAR Oslash
ENCODING 216
SWIDTH 720 0
DWIDTH 17 0
BBX 15 18 2 -1
BITMAP
03E6
0FFC
1C38
301C
703C
606C
E0CE
C18C
C30C
C70C
CE0C
CC1C
D818
F038
70F0
FFE0
DF80
8000
ENDCHAR
STARTCHAR Ugrave
ENCODING 217
SWIDTH 675 0
DWIDTH 16 0
BBX 14 23 2 0
BITMAP
0300
0300
0180
0080
0000
0000
300C
300C
300C
300C
601C
6018
6018
6018
6018
C030
C030
C030
C030
C060
E0E0
7FC0
3F00
ENDCHAR
STARTCHAR Uacute
ENCODING 218
SWIDTH 675 0
DWIDTH 16 0
BBX 14 23 2 0
BITMAP
0030
0070
0060
0080
0000
0000
300C
300C
300C
300C
601C
6018
6018
6018
6018
C030
C030
C030
C030
C060
E0E0
7FC0
3F00
ENDCHAR
STARTCHAR Ucircumflex
ENCODING 219
SWIDTH 675 0
DWIDTH 16 0
BBX 14 23 2 0
BITMAP
00C0
01E0
0330
0610
0000
0000
300C
300C
300C
300C
601C
6018
6018
6018
6018
C030
C030
C030
C030
C060
E0E0
7FC0
3F00
ENDCHAR
STARTCHAR Udieresis
ENCODING 220
SWIDTH 675 0
DWIDTH 16 0
BBX 14 21 2 0
BITMAP
0330
0230
0000
0000
300C
300C
300C
300C
601C
6018
6018
6018
6018
C030
C030
C030
C030
C060
E0E0
7FC0
3F00
ENDCHAR
STARTCHAR Yacute
ENCODING 221
SWIDTH 502 0
DWIDTH 12 0
BBX 12 23 2 0
BITMAP
00C0
0180
0300
0600
0000
0000
C030
6060
60E0
60C0
6180
3380
3300
3600
3C00
1C00
1800
1800
1800
3000
3000
3000
3000
ENDCHAR
STARTCHAR Thorn
ENCODING 222
SWIDTH 565 0
DWIDTH 14 0
BBX 12 17 1 0
BITMAP
0C00
1800
1800
1FC0
1FE0
3870
3030
3030
3030
3030
6060
60E0
7FC0
7F00
6000
C000
C000
ENDCHAR
STARTCHAR germandbls
ENCODING 223
SWIDTH 577 0
DWIDTH 14 0
BBX 16 24 -3 -6
BITMAP
007C
00FF
01C3
0183
0187
030E
031C
0330
0330
0330
0638
060C
0606
0606
0C06
0D0E
0DFC
0CF8
0C00
1800
1800
3800
F000
E000
ENDCHAR
STARTCHAR agrave
ENCODING 224
SWIDTH 564 0
DWIDTH 14 0
BBX 12 19 1 0
BITMAP
0600
0700
0300
0180
0000
0000
0F30
1FB0
38F0
7060
6060
6060
C060
C0E0
C0C0
C1C0
E3C0
7EC0
3CC0
ENDCHAR
STARTCHAR aacute
ENCODING 225
SWIDTH 564 0
DWIDTH 14 0
BBX 12 19 1 0
BITMAP
00E0
00C0
0180
0300
0000
0000
0F30
1FB0
38F0
7060
6060
6060
C060
C0E0
C0C0
C1C0
E3C0
7EC0
3CC0
ENDCHAR
STARTCHAR acircumflex
ENCODING 226
SWIDTH 564 0
DWIDTH 14 0
BBX 12 19 1 0
BITMAP
0180
0380
06C0
0C60
0000
0000
0F30
1FB0
38F0
7060
6060
6060
C060
C0E0
C0C0
C1C0
E3C0
7EC0
3CC0
ENDCHAR
STARTCHAR atilde
ENCODING 227
SWIDTH 564 0
DWIDTH 14 0
BBX 12 18 1 0
BITMAP
0E30
0FE0
18C0
0000
0000
0F30
1FB0
38F0
7060
6060
6060
C060
C0E0
C0C0
C1C0
E3C0
7EC0
3CC0
ENDCHAR
STARTCHAR adieresis
ENCODING 228
SWIDTH 564 0
DWIDTH 14 0
BBX 12 17 1 0
BITMAP
0460
0C40
0000
0000
0F30
1FB0
38F0
7060
6060
6060
C060
C0E0
C0C0
C1C0
E3C0
7EC0
3CC0
ENDCHAR
STARTCHAR aring
ENCODING 229
SWIDTH 564 0
DWIDTH 14 0
BBX 12 20 1 0
BITMAP
0380
0640
0440
0640
0380
0000
0000
0F30
1FB0
38F0
7060
6060
6060
C060
C0E0
C0C0
C1C0
E3C0
7EC0
3CC0
ENDCHAR
STARTCHAR ae
ENCODING 230
SWIDTH 814 0
DWIDTH 20 0
BBX 18 13 1 0
BITMAP
0F2780
1FBFC0
38F8C0
70F0C0
6060C0
60E380
C0FF00
C0FC00
C1C000
C1C000
E6E180
7FFF80
39BE00
ENDCHAR
STARTCHAR ccedilla
ENCODING 231
SWIDTH 450 0
DWIDTH 11 0
BBX 10 19 1 -6
BITMAP
0F80
1FC0
3800
7000
6000
E000
C000
C000
C000
C000
6100
7F00
3E00
0800
1800
1C00
0C00
0C00
7800
ENDCHAR
STARTCHAR egrave
ENCODING 232
SWIDTH 493 0
DWIDTH 12 0
BBX 10 19 1 0
BITMAP
0E00
0600
0200
0300
0000
0000
0F80
1FC0
38C0
70C0
60C0
6380
FF00
FE00
C000
C000
6080
7F80
3E00
ENDCHAR
STARTCHAR eacute
ENCODING 233
SWIDTH 493 0
DWIDTH 12 0
BBX 11 19 1 0
BITMAP
00E0
00C0
0180
0300
0000
0000
0F80
1FC0
38C0
70C0
60C0
6380
FF00
FE00
C000
C000
6080
7F80
3E00
ENDCHAR
STARTCHAR ecircumflex
ENCODING 234
SWIDTH 493 0
DWIDTH 12 0
BBX 10 19 1 0
BITMAP
0380
0780
0CC0
1840
0000
0000
0F80
1FC0
38C0
70C0
60C0
6380
FF00
FE00
C000
C000
6080
7F80
3E00
ENDCHAR
STARTCHAR edieresis
ENCODING 235
SWIDTH 493 0
DWIDTH 12 0
BBX 10 17 1 0
BITMAP
0CC0
0CC0
0000
0000
0F80
1FC0
38C0
70C0
60C0
6380
FF00
FE00
C000
C000
6080
7F80
3E00
ENDCHAR
STARTCHAR igrave
ENCODING 236
SWIDTH 253 0
DWIDTH 6 0
BBX 5 19 1 0
BITMAP
60
30
30
18
00
00
30
30
30
30
60
60
60
60
60
C0
C0
C0
C0
ENDCHAR
STARTCHAR iacute
ENCODING 237
SWIDTH 253 0
DWIDTH 6 0
BBX 8 19 1 0
BITMAP
07
0E
0C
18
00
00
30
30
30
30
60
60
60
60
60
C0
C0
C0
C0
ENDCHAR
STARTCHAR icircumflex
ENCODING 238
SWIDTH 253 0
DWIDTH 6 0
BBX 7 19 1 0
BITMAP
18
3C
66
C2
00
00
30
30
30
30
60
60
60
60
60
C0
C0
C0
C0
ENDCHAR
STARTCHAR idieresis
ENCODING 239
SWIDTH 253 0
DWIDTH 6 0
BBX 7 17 1 0
BITMAP
66
66
00
00
30
30
30
30
60
60
60
60
60
C0
C0
C0
C0
ENDCHAR
STARTCHAR eth
ENCODING 240
SWIDTH 568 0
DWIDTH 14 0
BBX 12 18 1 0
BITMAP
0210
0370
01C0
07C0
0460
0060
0060
0F60
3FA0
70E0
6060
C060
C060
C060
C0C0
E1C0
7F80
3E00
ENDCHAR
STARTCHAR ntilde
ENCODING 241
SWIDTH 577 0
DWIDTH 14 0
BBX 12 18 1 0
BITMAP
0710
0FE0
18E0
0000
0000
33C0
37E0
3C60
3820
7060
7060
6060
6060
6060
C0C0
C0C0
C0C0
C0C0
ENDCHAR
STARTCHAR ograve
ENCODING 242
SWIDTH 561 0
DWIDTH 13 0
BBX 11 19 1 0
BITMAP
0600
0600
0300
0100
0000
0000
0F80
1FC0
38E0
7060
6060
E060
C060
C060
C060
C0C0
61C0
7F80
3E00
ENDCHAR
STARTCHAR oacute
ENCODING 243
SWIDTH 561 0
DWIDTH 13 0
BBX 11 19 1 0
BITMAP
00E0
00C0
0180
0300
0000
0000
0F80
1FC0
38E0
7060
6060
E060
C060
C060
C060
C0C0
61C0
7F80
3E00
ENDCHAR
STARTCHAR ocircumflex
ENCODING 244
SWIDTH 561 0
DWIDTH 13 0
BBX 11 19 1 0
BITMAP
0380
0380
06C0
0860
0000
0000
0F80
1FC0
38E0
7060
6060
E060
C060
C060
C060
C0C0
61C0
7F80
3E00
ENDCHAR
STARTCHAR otilde
ENCODING 245
SWIDTH 561 0
DWIDTH 13 0
BBX 11 18 1 0
BITMAP
0E20
0FE0
11C0
0000
0000
0F80
1FC0
38E0
7060
6060
E060
C060
C060
C060
C0C0
61C0
7F80
3E00
ENDCHAR
STARTCHAR odieresis
ENCODING 246
SWIDTH 561 0
DWIDTH 13 0
BBX 11 17 1 0
BITMAP
0C40
0CC0
0000
0000
0F80
1FC0
38E0
7060
6060
E060
C060
C060
C060
C0C0
61C0
7F80
3E00
ENDCHAR
STARTCHAR divide
ENCODING 247
SWIDTH 550 0
DWIDTH 13 0
BBX 11 11 1 3
BITMAP
0600
0600
0600
0000
0000
FFE0
FFE0
0000
0600
0600
0600
ENDCHAR
STARTCHAR oslash
ENCODING 248
SWIDTH 561 0
DWIDTH 13 0
BBX 12 15 1 -1
BITMAP
0020
0FB0
1FE0
38E0
71E0
6360
C360
C660
CC60
D860
F0C0
71C0
7F80
DE00
8000
ENDCHAR
STARTCHAR ugrave
ENCODING 249
SWIDTH 577 0
DWIDTH 14 0
BBX 12 19 1 0
BITMAP
0600
0600
0300
0100
0000
0000
3030
3030
3030
3060
6060
6060
6060
60E0
C0C0
C1C0
E3C0
7EC0
3CC0
ENDCHAR
STARTCHAR uacute
ENCODING 250
SWIDTH 577 0
DWIDTH 14 0
BBX 12 19 1 0
BITMAP
0060
00C0
0180
0100
0000
0000
3030
3030
3030
3060
6060
6060
6060
60E0
C0C0
C1C0
E3C0
7EC0
3CC0
ENDCHAR
STARTCHAR ucircumflex
ENCODING 251
SWIDTH 577 0
DWIDTH 14 0
BBX 12 19 1 0
BITMAP
0180
03C0
0640
0C60
0000
0000
3030
3030
3030
3060
6060
6060
6060
60E0
C0C0
C1C0
E3C0
7EC0
3CC0
ENDCHAR
STARTCHAR udieresis
ENCODING 252
SWIDTH 577 0
DWIDTH 14 0
BBX 12 17 1 0
BITMAP
0460
0C60
0000
0000
3030
3030
3030
3060
6060
6060
6060
60E0
C0C0
C1C0
E3C0
7EC0
3CC0
ENDCHAR
STARTCHAR yacute
ENCODING 253
SWIDTH 461 0
DWIDTH 11 0
BBX 14 25 -2 -6
BITMAP
0038
0030
0060
00C0
0000
0000
180C
1818
0818
0C30
0C30
0C60
0C60
0CC0
0CC0
0580
0580
0700
0700
0600
0E00
0C00
1800
F800
E000
ENDCHAR
STARTCHAR thorn
ENCODING 254
SWIDTH 577 0
DWIDTH 14 0
BBX 13 24 0 -6
BITMAP
0C00
0C00
0C00
0C00
0C00
19E0
1BF0
1E30
1C18
1818
3018
3030
3030
3030
7070
78E0
7FC0
6780
6000
C000
C000
C000
C000
C000
ENDCHAR
STARTCHAR ydieresis
ENCODING 255
SWIDTH 461 0
DWIDTH 11 0
BBX 14 23 -2 -6
BITMAP
0330
0330
0000
0000
180C
1818
0818
0C30
0C30
0C60
0C60
0CC0
0CC0
0580
0580
0700
0700
0600
0E00
0C00
1800
F800
E000
ENDCHAR
STARTCHAR Amacron
ENCODING 256
SWIDTH 555 0
DWIDTH 13 0
BBX 14 21 -1 0
BITMAP
01FC
01F8
0000
0000
0060
00E0
00A0
01A0
01B0
0330
0730
0630
0C30
0C30
1FF0
1FF0
3018
3018
6018
E018
C018
ENDCHAR
STARTCHAR amacron
ENCODING 257
SWIDTH 564 0
DWIDTH 14 0
BBX 12 17 1 0
BITMAP
0FE0
0FE0
0000
0000
0F30
1FB0
38F0
7060
6060
6060
C060
C0E0
C0C0
C1C0
E3C0
7EC0
3CC0
ENDCHAR
STARTCHAR Abreve
ENCODING 258
SWIDTH 555 0
DWIDTH 13 0
BBX 14 22 -1 0
BITMAP
010C
01F8
00F0
0000
0000
0060
00E0
00A0
01A0
01B0
0330
0730
0630
0C30
0C30
1FF0
1FF0
3018
3018
6018
E018
C018
ENDCHAR
STARTCHAR abreve
ENCODING 259
SWIDTH 564 0
DWIDTH 14 0
BBX 12 18 1 0
BITMAP
0420
07E0
03C0
0000
0000
0F30
1FB0
38F0
7060
6060
6060
C060
C0E0
C0C0
C1C0
E3C0
7EC0
3CC0
ENDCHAR
STARTCHAR Aogonek
ENCODING 260
SWIDTH 555 0
DWIDTH 13 0
BBX 13 22 -1 -5
BITMAP
0060
00E0
00A0
01A0
01B0
0330
0730
0630
0C30
0C30
1FF0
1FF0
3018
3018
6018
E018
C018
0010
0060
0060
0060
0070
ENDCHAR
STARTCHAR aogonek
ENCODING 261
SWIDTH 564 0
DWIDTH 14 0
BBX 12 18 1 -5
BITMAP
0F30
1FB0
38F0
7060
6060
6060
C060
C0E0
C0C0
C1C0
E3C0
7EC0
3CC0
0180
0200
0600
0600
0380
ENDCHAR
STARTCHAR Cacute
ENCODING 262
SWIDTH 584 0
DWIDTH 14 0
BBX 13 23 2 0
BITMAP
0038
0030
0060
00C0
0000
0000
03F0
0FF8
1C00
3800
7000
6000
E000
C000
C000
C000
C000
C000
C000
E000
7040
3FC0
1F80
ENDCHAR
STARTCHAR cacute
ENCODING 263
SWIDTH 450 0
DWIDTH 11 0
BBX 11 19 1 0
BITMAP
00E0
00C0
0180
0300
0000
0000
0F80
1FC0
3800
7000
6000
E000
C000
C000
C000
C000
6100
7F00
3E00
ENDCHAR
STARTCHAR Ccircumflex
ENCODING 264
SWIDTH 584 0
DWIDTH 14 0
BBX 13 23 2 0
BITMAP
00E0
01E0
0330
0610
0000
0000
03F0
0FF8
1C00
3800
7000
6000
E000
C000
C000
C000
C000
C000
C000
E000
7040
3FC0
1F80
ENDCHAR
STARTCHAR ccircumflex
ENCODING 265
SWIDTH 450 0
DWIDTH 11 0
BBX 10 19 1 0
BITMAP
0300
0780
0CC0
1840
0000
0000
0F80
1FC0
3800
7000
6000
E000
C000
C000
C000
C000
6100
7F00
3E00
ENDCHAR
STARTCHAR Cdot
ENCODING 266
SWIDTH 584 0
DWIDTH 14 0
BBX 13 22 2 0
BITMAP
00C0
00C0
00C0
0000
0000
03F0
0FF8
1C00
3800
7000
6000
E000
C000
C000
C000
C000
C000
C000
E000
7040
3FC0
1F80
ENDCHAR
STARTCHAR cdot
ENCODING 267
SWIDTH 450 0
DWIDTH 11 0
BBX 10 18 1 0
BITMAP
0300
0300
0300
0000
0000
0F80
1FC0
3800
7000
6000
E000
C000
C000
C000
C000
6100
7F00
3E00
ENDCHAR
STARTCHAR Ccaron
ENCODING 268
SWIDTH 584 0
DWIDTH 14 0
BBX 13 23 2 0
BITMAP
0210
0360
01C0
01C0
0000
0000
03F0
0FF8
1C00
3800
7000
6000
E000
C000
C000
C000
C000
C000
C000
E000
7040
3FC0
1F80
ENDCHAR
STARTCHAR ccaron
ENCODING 269
SWIDTH 450 0
DWIDTH 11 0
BBX 11 19 1 0
BITMAP
0860
0CC0
0780
0700
0000
0000
0F80
1FC0
3800
7000
6000
E000
C000
C000
C000
C000
6100
7F00
3E00
ENDCHAR
STARTCHAR Dcaron
ENCODING 270
SWIDTH 666 0
DWIDTH 16 0
BBX 14 23 1 0
BITMAP
0218
0330
01E0
01C0
0000
0000
0FE0
1FF0
1838
181C
180C
380C
300C
300C
300C
300C
601C
6018
6038
6070
41E0
FFC0
FF00
ENDCHAR
STARTCHAR dcaron
ENCODING 271
SWIDTH 577 0
DWIDTH 14 0
BBX 17 18 1 0
BITMAP
001980
001980
001B00
001A00
003000
0F3000
1FB000
38F000
706000
606000
606000
C06000
C0E000
C0C000
C1C000
E3C000
7EC000
3CC000
ENDCHAR
STARTCHAR Dcroat
ENCODING 272
SWIDTH 666 0
DWIDTH 16 0
BBX 14 17 1 0
BITMAP
0FE0
1FF0
1838
181C
180C
380C
300C
300C
FF0C
FF0C
601C
6018
6038
6070
41E0
FFC0
FF00
ENDCHAR
STARTCHAR dcroat
ENCODING 273
SWIDTH 577 0
DWIDTH 14 0
BBX 14 18 1 0
BITMAP
0018
0018
03FC
03FC
0030
0F30
1FB0
38F0
7070
6060
6060
C060
C0E0
C0C0
C1C0
E3C0
7EC0
3CC0
ENDCHAR
STARTCHAR Emacron
ENCODING 274
SWIDTH 511 0
DWIDTH 12 0
BBX 12 21 1 0
BITMAP
07F0
07E0
0000
0000
0FF0
1FF0
1800
1800
1800
3000
3000
3FC0
3FC0
3000
6000
6000
6000
6000
6000
FF80
FF80
ENDCHAR
STARTCHAR emacron
ENCODING 275
SWIDTH 493 0
DWIDTH 12 0
BBX 10 17 1 0
BITMAP
0FC0
0FC0
0000
0000
0F80
1FC0
38C0
70C0
60C0
6380
FF00
FE00
C000
C000
6080
7F80
3E00
ENDCHAR
STARTCHAR Ebreve
ENCODING 276
SWIDTH 511 0
DWIDTH 12 0
BBX 12 22 1 0
BITMAP
0610
07E0
03C0
0000
0000
0FF0
1FF0
1800
1800
1800
3000
3000
3FC0
3FC0
3000
6000
6000
6000
6000
6000
FF80
FF80
ENDCHAR
STARTCHAR ebreve
ENCODING 277
SWIDTH 493 0
DWIDTH 12 0
BBX 11 18 1 0
BITMAP
0860
0FC0
0780
0000
0000
0F80
1FC0
38C0
70C0
60C0
6380
FF00
FE00
C000
C000
6080
7F80
3E00
ENDCHAR
STARTCHAR Edotaccent
ENCODING 278
SWIDTH 511 0
DWIDTH 12 0
BBX 12 22 1 0
BITMAP
0180
0180
0180
0000
0000
0FF0
1FF0
1800
1800
1800
3000
3000
3FC0
3FC0
3000
6000
6000
6000
6000
6000
FF80
FF80
ENDCHAR
STARTCHAR edotaccent
ENCODING 279
SWIDTH 493 0
DWIDTH 12 0
BBX 10 18 1 0
BITMAP
0300
0300
0300
0000
0000
0F80
1FC0
38C0
70C0
60C0
6380
FF00
FE00
C000
C000
6080
7F80
3E00
ENDCHAR
STARTCHAR Eogonek
ENCODING 280
SWIDTH 511 0
DWIDTH 12 0
BBX 12 22 1 -5
BITMAP
0FF0
1FF0
1800
1800
1800
3000
3000
3FC0
3FC0
3000
6000
6000
6000
6000
6000
FF80
FF80
0200
0400
0C00
0C00
0700
ENDCHAR
STARTCHAR eogonek
ENCODING 281
SWIDTH 493 0
DWIDTH 12 0
BBX 10 18 1 -5
BITMAP
0F80
1FC0
38C0
70C0
60C0
6380
FF00
FE00
C000
C000
6080
7F80
3E00
0600
0C00
0800
0C00
0E00
ENDCHAR
STARTCHAR Ecaron
ENCODING 282
SWIDTH 511 0
DWIDTH 12 0
BBX 12 23 1 0
BITMAP
0630
0260
03C0
0180
0000
0000
0FF0
1FF0
1800
1800
1800
3000
3000
3FC0
3FC0
3000
6000
6000
6000
6000
6000
FF80
FF80
ENDCHAR
STARTCHAR ecaron
ENCODING 283
SWIDTH 493 0
DWIDTH 12 0
BBX 11 19 1 0
BITMAP
0860
0CC0
0780
0700
0000
0000
0F80
1FC0
38C0
70C0
60C0
6380
FF00
FE00
C000
C000
6080
7F80
3E00
ENDCHAR
STARTCHAR Gcircumflex
ENCODING 284
SWIDTH 676 0
DWIDTH 16 0
BBX 14 23 2 0
BITMAP
00C0
01E0
0330
0610
0000
0000
03F0
0FFC
1C08
3800
7000
6000
E000
C000
C0F8
C1F8
C030
C030
C030
E030
7030
3FE0
1FC0
ENDCHAR
STARTCHAR gcircumflex
ENCODING 285
SWIDTH 500 0
DWIDTH 12 0
BBX 14 25 -1 -6
BITMAP
00C0
01E0
0320
0630
0000
0000
07FC
0FFC
1C60
1830
1870
18E0
1FC0
0F80
1800
3000
3000
3F80
1FC0
60E0
C060
8060
C1C0
FFC0
7F00
ENDCHAR
STARTCHAR Gbreve
ENCODING 286
SWIDTH 676 0
DWIDTH 16 0
BBX 14 22 2 0
BITMAP
0210
03F0
01E0
0000
0000
03F0
0FFC
1C08
3800
7000
6000
E000
C000
C0F8
C1F8
C030
C030
C030
E030
7030
3FE0
1FC0
ENDCHAR
STARTCHAR gbreve
ENCODING 287
SWIDTH 500 0
DWIDTH 12 0
BBX 14 24 -1 -6
BITMAP
0210
03F0
01E0
0000
0000
07FC
0FFC
1C60
1830
1870
18E0
1FC0
0F80
1800
3000
3000
3F80
1FC0
60E0
C060
8060
C1C0
FFC0
7F00
ENDCHAR
STARTCHAR Gdot
ENCODING 288
SWIDTH 676 0
DWIDTH 16 0
BBX 14 22 2 0
BITMAP
00C0
00C0
00C0
0000
0000
03F0
0FFC
1C08
3800
7000
6000
E000
C000
C0F8
C1F8
C030
C030
C030
E030
7030
3FE0
1FC0
ENDCHAR
STARTCHAR gdot
ENCODING 289
SWIDTH 500 0
DWIDTH 12 0
BBX 14 24 -1 -6
BITMAP
0040
00E0
00C0
0000
0000
07FC
0FFC
1C60
1830
1870
18E0
1FC0
0F80
1800
3000
3000
3F80
1FC0
60E0
C060
8060
C1C0
FFC0
7F00
ENDCHAR
STARTCHAR Gcommaaccent
ENCODING 290
SWIDTH 676 0
DWIDTH 16 0
BBX 14 22 2 -5
BITMAP
03F0
0FFC
1C08
3800
7000
6000
E000
C000
C0F8
C1F8
C030
C030
C030
E030
7030
3FE0
1FC0
0000
0600
0C00
0C00
1800
ENDCHAR
STARTCHAR gcommaaccent
ENCODING 291
SWIDTH 500 0
DWIDTH 12 0
BBX 14 25 -1 -6
BITMAP
0030
0020
0060
00C0
0000
0000
07FC
0FFC
1C60
1830
1870
18E0
1FC0
0F80
1800
3000
3000
3F80
1FC0
60E0
C060
8060
C1C0
FFC0
7F00
ENDCHAR
STARTCHAR Hcircumflex
ENCODING 292
SWIDTH 678 0
DWIDTH 16 0
BBX 15 23 1 0
BITMAP
0060
00F0
0190
0318
0000
0000
0C06
1806
1806
1806
180C
300C
300C
3FFC
3FFC
3018
6018
6018
6018
6030
6030
C030
C030
ENDCHAR
STARTCHAR hcircumflex
ENCODING 293
SWIDTH 577 0
DWIDTH 14 0
BBX 12 24 1 0
BITMAP
01C0
01C0
0360
0430
0000
0000
1800
1800
1800
1800
1800
33C0
37E0
3C60
3860
3060
7060
6060
6060
6040
C0C0
C0C0
C0C0
C0C0
ENDCHAR
STARTCHAR Hbar
ENCODING 294
SWIDTH 678 0
DWIDTH 16 0
BBX 17 17 1 0
BITMAP
0C0600
180600
180600
7FFF80
7FFF80
180C00
300C00
3FFC00
3FFC00
301800
601800
601800
601800
603800
603000
C03000
C03000
ENDCHAR
STARTCHAR hbar
ENCODING 295
SWIDTH 577 0
DWIDTH 14 0
BBX 11 18 1 0
BITMAP
1800
1800
7F80
7F80
1800
33C0
37E0
3C60
3860
3060
7060
6060
6060
6040
C0C0
C0C0
C0C0
C0C0
ENDCHAR
STARTCHAR Itilde
ENCODING 296
SWIDTH 272 0
DWIDTH 7 0
BBX 9 22 1 0
BITMAP
3880
7F80
4700
0000
0000
0C00
1800
1800
1800
1800
3000
3000
3000
3000
3000
6000
6000
6000
6000
6000
C000
C000
ENDCHAR
STARTCHAR itilde
ENCODING 297
SWIDTH 253 0
DWIDTH 6 0
BBX 8 18 1 0
BITMAP
71
FF
8E
00
00
30
30
30
30
60
60
60
60
60
C0
C0
C0
C0
ENDCHAR
STARTCHAR Imacron
ENCODING 298
SWIDTH 272 0
DWIDTH 7 0
BBX 8 21 1 0
BITMAP
3F
3F
00
00
0C
18
18
18
18
30
30
30
30
30
60
60
60
60
60
C0
C0
ENDCHAR
STARTCHAR imacron
ENCODING 299
SWIDTH 253 0
DWIDTH 6 0
BBX 7 17 1 0
BITMAP
7E
7E
00
00
30
30
30
30
60
60
60
60
60
C0
C0
C0
C0
ENDCHAR
STARTCHAR Ibreve
ENCODING 300
SWIDTH 272 0
DWIDTH 7 0
BBX 9 22 1 0
BITMAP
2180
3F00
1E00
0000
0000
0C00
1800
1800
1800
1800
3000
3000
3000
3000
3000
6000
6000
6000
6000
6000
C000
C000
ENDCHAR
STARTCHAR ibreve
ENCODING 301
SWIDTH 253 0
DWIDTH 6 0
BBX 7 18 1 0
BITMAP
42
7E
3C
00
00
30
30
30
30
60
60
60
60
60
C0
C0
C0
C0
ENDCHAR
STARTCHAR Iogonek
ENCODING 302
SWIDTH 272 0
DWIDTH 7 0
BBX 8 22 -1 -5
BITMAP
03
06
06
06
06
0C
0C
0C
0C
0C
18
18
18
18
18
30
30
20
40
C0
C0
70
ENDCHAR
STARTCHAR iogonek
ENCODING 303
SWIDTH 253 0
DWIDTH 6 0
BBX 7 23 -1 -5
BITMAP
06
06
00
00
00
0C
0C
0C
0C
18
18
18
18
18
30
30
30
30
20
C0
80
C0
E0
ENDCHAR
STARTCHAR Idotaccent
ENCODING 304
SWIDTH 272 0
DWIDTH 7 0
BBX 6 22 1 0
BITMAP
0C
0C
0C
00
00
0C
18
18
18
18
30
30
30
30
30
60
60
60
60
60
C0
C0
ENDCHAR
STARTCHAR dotlessi
ENCODING 305
SWIDTH 253 0
DWIDTH 6 0
BBX 4 13 1 0
BITMAP
30
30
30
30
60
60
60
60
60
C0
C0
C0
C0
ENDCHAR
STARTCHAR IJ
ENCODING 306
SWIDTH 540 0
DWIDTH 13 0
BBX 12 21 1 -4
BITMAP
0C30
1830
1830
1860
1860
3060
3060
3060
30C0
30C0
60C0
60C0
6180
6180
6180
C180
C380
0300
0700
3E00
3C00
ENDCHAR
STARTCHAR ij
ENCODING 307
SWIDTH 507 0
DWIDTH 12 0
BBX 11 24 1 -6
BITMAP
1860
1860
0000
0000
0000
30C0
30C0
30C0
30C0
60C0
6180
6180
6180
6180
C380
C300
C300
C300
0300
0600
0600
0600
3C00
3800
ENDCHAR
STARTCHAR Jcircumflex
ENCODING 308
SWIDTH 267 0
DWIDTH 6 0
BBX 13 27 -4 -4
BITMAP
0070
00F0
0198
0308
0000
0000
0060
00C0
00C0
00C0
00C0
0180
0180
0180
0180
0180
0300
0300
0300
0300
0600
0600
0600
0600
0C00
FC00
F000
ENDCHAR
STARTCHAR jcircumflex
ENCODING 309
SWIDTH 253 0
DWIDTH 6 0
BBX 11 25 -3 -6
BITMAP
0180
03C0
0640
0C60
0000
0000
0300
0300
0300
0300
0600
0600
0600
0600
0600
0C00
0C00
0C00
0C00
0C00
1800
1800
3800
F000
E000
ENDCHAR
STARTCHAR Kcommaaccent
ENCODING 310
SWIDTH 557 0
DWIDTH 13 0
BBX 14 22 1 -5
BITMAP
0C0C
1818
1830
1860
18C0
3180
3300
3600
3E00
3300
6300
6180
6180
61C0
60C0
C0C0
C060
0000
0C00
0800
1800
1000
ENDCHAR
STARTCHAR kcommaaccent
ENCODING 311
SWIDTH 487 0
DWIDTH 12 0
BBX 11 23 1 -5
BITMAP
1800
1800
1800
1800
1800
3060
30C0
3180
3300
6600
6C00
7C00
7600
6600
C300
C300
C380
C180
0000
1800
1800
3000
2000
ENDCHAR
STARTCHAR kgreenlandic
ENCODING 312
SWIDTH 487 0
DWIDTH 12 0
BBX 11 13 1 0
BITMAP
3060
30C0
3180
3300
6600
6C00
7C00
7600
6600
C300
C300
C380
C180
ENDCHAR
STARTCHAR Lacute
ENCODING 313
SWIDTH 474 0
DWIDTH 11 0
BBX 9 23 1 0
BITMAP
0180
0300
0600
0C00
0000
0000
0C00
1800
1800
1800
1800
3000
3000
3000
3000
3000
6000
6000
6000
6000
6000
FF80
FF80
ENDCHAR
STARTCHAR lacute
ENCODING 314
SWIDTH 253 0
DWIDTH 6 0
BBX 9 24 1 0
BITMAP
0380
0700
0600
0C00
0000
0000
1800
1800
1800
1800
1800
3000
3000
3000
3000
6000
6000
6000
6000
6000
C000
C000
C000
C000
ENDCHAR
STARTCHAR Lcommaaccent
ENCODING 315
SWIDTH 474 0
DWIDTH 11 0
BBX 9 22 1 -5
BITMAP
0C00
1800
1800
1800
1800
3000
3000
3000
3000
3000
6000
6000
6000
6000
6000
FF80
FF80
0000
0C00
0C00
1800
1000
ENDCHAR
STARTCHAR lcommaaccent
ENCODING 316
SWIDTH 253 0
DWIDTH 6 0
BBX 7 23 -1 -5
BITMAP
06
06
06
06
06
0C
0C
0C
0C
18
18
18
18
18
30
30
30
30
00
60
60
C0
80
ENDCHAR
STARTCHAR Lcaron
ENCODING 317
SWIDTH 474 0
DWIDTH 11 0
BBX 11 17 1 0
BITMAP
0C60
1860
18C0
1880
1800
3000
3000
3000
3000
3000
6000
6000
6000
6000
6000
FF80
FF80
ENDCHAR
STARTCHAR lcaron
ENCODING 318
SWIDTH 253 0
DWIDTH 6 0
BBX 9 18 1 0
BITMAP
1980
1980
1B00
1A00
1800
3000
3000
3000
3000
6000
6000
6000
6000
6000
C000
C000
C000
C000
ENDCHAR
STARTCHAR Ldot
ENCODING 319
SWIDTH 474 0
DWIDTH 11 0
BBX 9 17 1 0
BITMAP
0C00
1800
1800
1800
1800
3000
3000
3180
3180
3180
6000
6000
6000
6000
6000
FF80
FF80
ENDCHAR
STARTCHAR ldot
ENCODING 320
SWIDTH 283 0
DWIDTH 7 0
BBX 7 18 1 0
BITMAP
18
18
18
18
18
30
30
36
36
66
60
60
60
60
C0
C0
C0
C0
ENDCHAR
STARTCHAR Lslash
ENCODING 321
SWIDTH 474 0
DWIDTH 11 0
BBX 10 17 0 0
BITMAP
0E00
0C00
0C00
0C00
0C00
1800
1900
1F00
1E00
3800
F000
7000
3000
3000
3000
7FC0
7FC0
ENDCHAR
STARTCHAR lslash
ENCODING 322
SWIDTH 250 0
DWIDTH 6 0
BBX 7 18 0 0
BITMAP
0C
0C
0C
0C
0C
18
18
1E
1C
38
F0
F0
30
30
60
60
60
60
ENDCHAR
STARTCHAR Nacute
ENCODING 323
SWIDTH 702 0
DWIDTH 17 0
BBX 16 23 1 0
BITMAP
001C
0038
0030
0060
0000
0000
1C03
1C03
1E06
1E06
1606
3306
3306
318C
318C
318C
60CC
60CC
6058
6078
4078
C038
C030
ENDCHAR
STARTCHAR nacute
ENCODING 324
SWIDTH 577 0
DWIDTH 14 0
BBX 11 19 1 0
BITMAP
0060
00C0
00C0
0100
0000
0000
33C0
37E0
3C60
3820
7060
7060
6060
6060
6060
C0C0
C0C0
C0C0
C0C0
ENDCHAR
STARTCHAR Ncommaaccent
ENCODING 325
SWIDTH 702 0
DWIDTH 17 0
BBX 16 22 1 -5
BITMAP
1C03
1C03
1E06
1E06
1606
3306
3306
318C
318C
318C
60CC
60CC
6058
6078
4078
C038
C030
0000
0600
0400
0C00
0800
ENDCHAR
STARTCHAR ncommaaccent
ENCODING 326
SWIDTH 577 0
DWIDTH 14 0
BBX 11 18 1 -5
BITMAP
33C0
37E0
3C60
3820
7060
7060
6060
6060
6060
C0C0
C0C0
C0C0
C0C0
0000
1800
1800
3000
2000
ENDCHAR
STARTCHAR Ncaron
ENCODING 327
SWIDTH 702 0
DWIDTH 17 0
BBX 16 23 1 0
BITMAP
010C
0198
00F0
00E0
0000
0000
1C03
1C03
1E06
1E06
1606
3306
3306
318C
318C
318C
60CC
60CC
6058
6078
4078
C038
C030
ENDCHAR
STARTCHAR ncaron
ENCODING 328
SWIDTH 577 0
DWIDTH 14 0
BBX 11 19 1 0
BITMAP
0C20
06C0
0380
0380
0000
0000
33C0
37E0
3C60
3820
7060
7060
6060
6060
6060
C0C0
C0C0
C0C0
C0C0
ENDCHAR
STARTCHAR napostrophe
ENCODING 329
SWIDTH 645 0
DWIDTH 15 0
BBX 13 17 1 0
BITMAP
3800
3000
3000
6000
6CF0
CDF8
0B18
1C18
1C18
1818
1818
3830
3030
3030
3030
3060
6060
ENDCHAR
STARTCHAR Eng
ENCODING 330
SWIDTH 702 0
DWIDTH 17 0
BBX 16 21 1 -4
BITMAP
1C03
1C03
1E06
1E06
1206
3306
3306
318C
318C
308C
60CC
60C8
6058
6078
4038
C038
C030
0030
0070
03E0
03C0
ENDCHAR
STARTCHAR eng
ENCODING 331
SWIDTH 577 0
DWIDTH 14 0
BBX 11 19 1 -6
BITMAP
33C0
37E0
3C60
3820
7060
7060
6060
6060
6060
C0C0
C0C0
C0C0
C0C0
0180
0180
0180
0380
0F00
0E00
ENDCHAR
STARTCHAR Omacron
ENCODING 332
SWIDTH 720 0
DWIDTH 17 0
BBX 15 21 2 0
BITMAP
03F0
03F0
0000
0000
03E0
0FF8
1C38
300C
700C
600C
E00E
C00C
C00C
C00C
C00C
C01C
C018
E038
70F0
3FE0
1F80
ENDCHAR
STARTCHAR omacron
ENCODING 333
SWIDTH 561 0
DWIDTH 13 0
BBX 11 17 1 0
BITMAP
0FE0
0FC0
0000
0000
0F80
1FC0
38E0
7060
6060
E060
C060
C060
C060
C0C0
61C0
7F80
3E00
ENDCHAR
STARTCHAR Obreve
ENCODING 334
SWIDTH 720 0
DWIDTH 17 0
BBX 15 22 2 0
BITMAP
0210
03F0
01E0
0000
0000
03E0
0FF8
1C38
300C
700C
600C
E00E
C00C
C00C
C00C
C00C
C01C
C018
E038
70F0
3FE0
1F80
ENDCHAR
STARTCHAR obreve
ENCODING 335
SWIDTH 561 0
DWIDTH 13 0
BBX 11 18 1 0
BITMAP
0860
0FC0
0780
0000
0000
0F80
1FC0
38E0
7060
6060
E060
C060
C060
C060
C0C0
61C0
7F80
3E00
ENDCHAR
STARTCHAR Ohungarumlaut
ENCODING 336
SWIDTH 720 0
DWIDTH 17 0
BBX 15 23 2 0
BITMAP
00EE
00CC
0198
0330
0000
0000
03E0
0FF8
1C38
300C
700C
600C
E00E
C00C
C00C
C00C
C00C
C01C
C018
E038
70F0
3FE0
1F80
ENDCHAR
STARTCHAR ohungarumlaut
ENCODING 337
SWIDTH 561 0
DWIDTH 13 0
BBX 12 19 1 0
BITMAP
0330
0330
0660
0CC0
0000
0000
0F80
1FC0
38E0
7060
6060
E060
C060
C060
C060
C0C0
61C0
7F80
3E00
ENDCHAR
STARTCHAR OE
ENCODING 338
SWIDTH 854 0
DWIDTH 21 0
BBX 20 17 2 0
BITMAP
03FFF0
0FFFF0
1C3800
303800
303000
603000
607000
C07FC0
C07FC0
C06000
C06000
C0E000
C0E000
60C000
70C000
3FFF80
0FFF00
ENDCHAR
STARTCHAR oe
ENCODING 339
SWIDTH 863 0
DWIDTH 21 0
BBX 19 13 1 0
BITMAP
0F87C0
1FCFE0
38FC60
707860
607060
E061C0
C07F80
C07E00
C06000
C0E000
61F080
7FBF80
3E1F00
ENDCHAR
STARTCHAR Racute
ENCODING 340
SWIDTH 568 0
DWIDTH 14 0
BBX 13 23 1 0
BITMAP
0070
0060
00C0
0180
0000
0000
0FC0
1FF0
1830
1838
1818
3030
3030
3070
3FC0
3F00
6180
6180
6180
60C0
60C0
C0E0
C060
ENDCHAR
STARTCHAR racute
ENCODING 341
SWIDTH 395 0
DWIDTH 10 0
BBX 10 19 1 0
BITMAP
01C0
0180
0300
0600
0000
0000
3380
3780
3C00
3800
7000
7000
6000
6000
6000
C000
C000
C000
C000
ENDCHAR
STARTCHAR Rcommaaccent
ENCODING 342
SWIDTH 568 0
DWIDTH 14 0
BBX 13 22 1 -5
BITMAP
0FC0
1FF0
1830
1838
1818
3030
3030
3070
3FC0
3F00
6180
6180
6180
60C0
60C0
C0E0
C060
0000
0C00
0C00
1800
1000
ENDCHAR
STARTCHAR rcommaaccent
ENCODING 343
SWIDTH 395 0
DWIDTH 10 0
BBX 11 18 -1 -5
BITMAP
0CE0
0DE0
0F00
0E00
1C00
1C00
1800
1800
1800
3000
3000
3000
3000
0000
6000
6000
C000
8000
ENDCHAR
STARTCHAR Rcaron
ENCODING 344
SWIDTH 568 0
DWIDTH 14 0
BBX 13 23 1 0
BITMAP
0630
0360
03C0
0180
0000
0000
0FC0
1FF0
1830
1838
1818
3030
3030
3070
3FC0
3F00
6180
6180
6180
60C0
60C0
C0E0
C060
ENDCHAR
STARTCHAR rcaron
ENCODING 345
SWIDTH 395 0
DWIDTH 10 0
BBX 10 19 1 0
BITMAP
18C0
0980
0F00
0600
0000
0000
3380
3780
3C00
3800
7000
7000
6000
6000
6000
C000
C000
C000
C000
ENDCHAR
STARTCHAR Sacute
ENCODING 346
SWIDTH 501 0
DWIDTH 12 0
BBX 12 23 0 0
BITMAP
0030
0060
00C0
0080
0000
0000
07E0
0FF0
1C10
1800
1800
1800
1800
0E00
0780
01C0
00C0
00E0
0060
00C0
C1C0
FF80
7F00
ENDCHAR
STARTCHAR sacute
ENCODING 347
SWIDTH 428 0
DWIDTH 10 0
BBX 10 19 0 0
BITMAP
00C0
01C0
0180
0300
0000
0000
0F80
3FC0
3080
3000
3000
3800
1E00
0700
0380
0180
8300
FF00
7C00
ENDCHAR
STARTCHAR Scircumflex
ENCODING 348
SWIDTH 501 0
DWIDTH 12 0
BBX 12 23 0 0
BITMAP
00C0
01E0
0360
0630
0000
0000
07E0
0FF0
1C10
1800
1800
1800
1800
0E00
0780
01C0
00C0
00E0
0060
00C0
C1C0
FF80
7F00
ENDCHAR
STARTCHAR scircumflex
ENCODING 349
SWIDTH 428 0
DWIDTH 10 0
BBX 10 19 0 0
BITMAP
0300
0780
0C80
18C0
0000
0000
0F80
3FC0
3080
3000
3000
3800
1E00
0700
0380
0180
8300
FF00
7C00
ENDCHAR
STARTCHAR Scedilla
ENCODING 350
SWIDTH 501 0
DWIDTH 12 0
BBX 12 23 0 -6
BITMAP
07E0
0FF0
1C10
1800
1800
1800
1800
0E00
0780
01C0
00C0
00E0
0060
00C0
C1C0
FF80
7F00
0800
1800
0C00
0400
0C00
3800
ENDCHAR
STARTCHAR scedilla
ENCODING 351
SWIDTH 428 0
DWIDTH 10 0
BBX 10 19 0 -6
BITMAP
0F80
3FC0
3080
3000
3000
3800
1E00
0700
0380
0180
8300
FF00
7C00
1000
1000
1800
0800
1800
7000
ENDCHAR
STARTCHAR Scaron
ENCODING 352
SWIDTH 501 0
DWIDTH 12 0
BBX 12 23 0 0
BITMAP
0630
0260
03C0
0180
0000
0000
07E0
0FF0
1C10
1800
1800
1800
1800
0E00
0780
01C0
00C0
00E0
0060
00C0
C1C0
FF80
7F00
ENDCHAR
STARTCHAR scaron
ENCODING 353
SWIDTH 428 0
DWIDTH 10 0
BBX 10 19 0 0
BITMAP
1840
0D80
0700
0700
0000
0000
0F80
3FC0
3080
3000
3000
3800
1E00
0700
0380
0180
8300
FF00
7C00
ENDCHAR
STARTCHAR Tcedilla
ENCODING 354
SWIDTH 498 0
DWIDTH 12 0
BBX 12 23 2 -6
BITMAP
FFF0
FFF0
0600
0600
0C00
0C00
0C00
0C00
0C00
1800
1800
1800
1800
3000
3000
3000
3000
2000
6000
3000
1000
3000
E000
ENDCHAR
STARTCHAR tcedilla
ENCODING 355
SWIDTH 324 0
DWIDTH 8 0
BBX 7 22 1 -6
BITMAP
08
18
10
7E
FE
30
30
20
60
60
60
60
C0
E0
78
78
20
60
30
30
30
E0
ENDCHAR
STARTCHAR Tcaron
ENCODING 356
SWIDTH 498 0
DWIDTH 12 0
BBX 12 23 2 0
BITMAP
0860
0CC0
0780
0700
0000
0000
FFF0
FFF0
0600
0600
0C00
0C00
0C00
0C00
0C00
1800
1800
1800
1800
3000
3000
3000
3000
ENDCHAR
STARTCHAR tcaron
ENCODING 357
SWIDTH 324 0
DWIDTH 8 0
BBX 10 18 1 0
BITMAP
00C0
00C0
0980
1900
1000
7E00
FE00
3000
3000
2000
6000
6000
6000
6000
C000
E000
7800
7800
ENDCHAR
STARTCHAR Tbar
ENCODING 358
SWIDTH 498 0
DWIDTH 12 0
BBX 12 17 2 0
BITMAP
FFF0
FFF0
0600
0600
0C00
0C00
0C00
0C00
FF80
FF80
1800
1800
1800
1800
3000
3000
3000
ENDCHAR
STARTCHAR tbar
ENCODING 359
SWIDTH 324 0
DWIDTH 8 0
BBX 7 16 1 0
BITMAP
08
18
10
7E
FE
30
30
FC
FC
60
60
60
C0
E0
78
78
ENDCHAR
STARTCHAR Utilde
ENCODING 360
SWIDTH 675 0
DWIDTH 16 0
BBX 14 22 2 0
BITMAP
0388
07F8
0470
0000
0000
300C
300C
300C
300C
601C
6018
6018
6018
6018
C030
C030
C030
C030
C060
E0E0
7FC0
3F00
ENDCHAR
STARTCHAR utilde
ENCODING 361
SWIDTH 577 0
DWIDTH 14 0
BBX 12 18 1 0
BITMAP
0710
0FF0
08E0
0000
0000
3030
3030
3030
3060
6060
6060
6060
60E0
C0C0
C1C0
E3C0
7EC0
3CC0
ENDCHAR
STARTCHAR Umacron
ENCODING 362
SWIDTH 675 0
DWIDTH 16 0
BBX 14 21 2 0
BITMAP
03F0
07F0
0000
0000
300C
300C
300C
300C
601C
6018
6018
6018
6018
C030
C030
C030
C030
C060
E0E0
7FC0
3F00
ENDCHAR
STARTCHAR umacron
ENCODING 363
SWIDTH 577 0
DWIDTH 14 0
BBX 12 17 1 0
BITMAP
07E0
0FE0
0000
0000
3030
3030
3030
3060
6060
6060
6060
60E0
C0C0
C1C0
E3C0
7EC0
3CC0
ENDCHAR
STARTCHAR Ubreve
ENCODING 364
SWIDTH 675 0
DWIDTH 16 0
BBX 14 22 2 0
BITMAP
0210
03F0
01E0
0000
0000
300C
300C
300C
300C
601C
6018
6018
6018
6018
C030
C030
C030
C030
C060
E0E0
7FC0
3F00
ENDCHAR
STARTCHAR ubreve
ENCODING 365
SWIDTH 577 0
DWIDTH 14 0
BBX 12 18 1 0
BITMAP
0C20
07E0
0780
0000
0000
3030
3030
3030
3060
6060
6060
6060
60E0
C0C0
C1C0
E3C0
7EC0
3CC0
ENDCHAR
STARTCHAR Uring
ENCODING 366
SWIDTH 675 0
DWIDTH 16 0
BBX 14 24 2 0
BITMAP
01C0
0320
0220
0320
01C0
0000
0000
300C
300C
300C
300C
601C
6018
6018
6018
6018
C030
C030
C030
C030
C060
E0E0
7FC0
3F00
ENDCHAR
STARTCHAR uring
ENCODING 367
SWIDTH 577 0
DWIDTH 14 0
BBX 12 20 1 0
BITMAP
0380
0640
0440
0640
0380
0000
0000
3030
3030
3030
3060
6060
6060
6060
60E0
C0C0
C1C0
E3C0
7EC0
3CC0
ENDCHAR
STARTCHAR Uhungarumlaut
ENCODING 368
SWIDTH 675 0
DWIDTH 16 0
BBX 14 23 2 0
BITMAP
00CC
0198
0110
0220
0000
0000
300C
300C
300C
300C
601C
6018
6018
6018
6018
C030
C030
C030
C030
C060
E0E0
7FC0
3F00
ENDCHAR
STARTCHAR uhungarumlaut
ENCODING 369
SWIDTH 577 0
DWIDTH 14 0
BBX 13 19 1 0
BITMAP
0198
0330
0660
0440
0000
0000
3030
3030
3030
3060
6060
6060
6060
60E0
C0C0
C1C0
E3C0
7EC0
3CC0
ENDCHAR
STARTCHAR Uogonek
ENCODING 370
SWIDTH 675 0
DWIDTH 16 0
BBX 14 22 2 -5
BITMAP
300C
300C
300C
300C
601C
6018
6018
6018
6018
C030
C030
C030
C030
C060
E0E0
7FC0
3F00
0600
0C00
0800
0C00
0E00
ENDCHAR
STARTCHAR uogonek
ENCODING 371
SWIDTH 577 0
DWIDTH 14 0
BBX 12 18 1 -5
BITMAP
3030
3030
3030
3060
6060
6060
6060
60E0
C0C0
C1C0
E3C0
7EC0
3CC0
0180
0200
0600
0600
0380
ENDCHAR
STARTCHAR Wcircumflex
ENCODING 372
SWIDTH 852 0
DWIDTH 20 0
BBX 19 23 3 0
BITMAP
006000
00F000
019000
031800
000000
000000
C0E060
C0E060
C1E0C0
C1E0C0
C36180
C36180
C66180
C66300
CC6300
CC6600
C86600
D86C00
D02C00
F02800
F03800
E03000
E03000
ENDCHAR
STARTCHAR wcircumflex
ENCODING 373
SWIDTH 716 0
DWIDTH 17 0
BBX 17 19 1 0
BITMAP
00E000
01E000
033000
061000
000000
000000
C1C180
C1C300
C3C300
43C600
46C600
46C600
44CC00
6CCC00
68D800
585800
507000
707000
706000
ENDCHAR
STARTCHAR Ycircumflex
ENCODING 374
SWIDTH 502 0
DWIDTH 12 0
BBX 12 23 2 0
BITMAP
0700
0700
0D80
1080
0000
0000
C030
6060
60E0
60C0
6180
3380
3300
3600
3C00
1C00
1800
1800
1800
3000
3000
3000
3000
ENDCHAR
STARTCHAR ycircumflex
ENCODING 375
SWIDTH 461 0
DWIDTH 11 0
BBX 14 25 -2 -6
BITMAP
00C0
01E0
0320
0630
0000
0000
180C
1818
0818
0C30
0C30
0C60
0C60
0CC0
0CC0
0580
0580
0700
0700
0600
0E00
0C00
1800
F800
E000
ENDCHAR
STARTCHAR Ydieresis
ENCODING 376
SWIDTH 502 0
DWIDTH 12 0
BBX 12 21 2 0
BITMAP
08C0
1880
0000
0000
C030
6060
60E0
60C0
6180
3380
3300
3600
3C00
1C00
1800
1800
1800
3000
3000
3000
3000
ENDCHAR
STARTCHAR Zacute
ENCODING 377
SWIDTH 530 0
DWIDTH 13 0
BBX 14 23 0 0
BITMAP
0038
0030
0060
00C0
0000
0000
0FFC
1FF8
0018
0030
0060
00C0
01C0
0380
0300
0600
0C00
1800
3800
3000
6000
FFE0
FFC0
ENDCHAR
STARTCHAR zacute
ENCODING 378
SWIDTH 443 0
DWIDTH 11 0
BBX 11 19 0 0
BITMAP
0060
00C0
0180
0300
0000
0000
1FC0
1FC0
00C0
0180
0300
0600
0C00
1800
3000
7000
E000
FF00
FF00
ENDCHAR
STARTCHAR Zdotaccent
ENCODING 379
SWIDTH 530 0
DWIDTH 13 0
BBX 14 22 0 0
BITMAP
00C0
00C0
00C0
0000
0000
0FFC
1FF8
0018
0030
0060
00C0
01C0
0380
0300
0600
0C00
1800
3800
3000
6000
FFE0
FFC0
ENDCHAR
STARTCHAR zdotaccent
ENCODING 380
SWIDTH 443 0
DWIDTH 11 0
BBX 10 18 0 0
BITMAP
0300
0300
0300
0000
0000
1FC0
1FC0
00C0
0180
0300
0600
0C00
1800
3000
7000
E000
FF00
FF00
ENDCHAR
STARTCHAR Zcaron
ENCODING 381
SWIDTH 530 0
DWIDTH 13 0
BBX 14 23 0 0
BITMAP
0318
0130
01E0
00C0
0000
0000
0FFC
1FF8
0018
0030
0060
00C0
01C0
0380
0300
0600
0C00
1800
3800
3000
6000
FFE0
FFC0
ENDCHAR
STARTCHAR zcaron
ENCODING 382
SWIDTH 443 0
DWIDTH 11 0
BBX 11 19 0 0
BITMAP
0C60
04C0
0780
0300
0000
0000
1FC0
1FC0
00C0
0180
0300
0600
0C00
1800
3000
7000
E000
FF00
FF00
ENDCHAR
STARTCHAR longs
ENCODING 383
SWIDTH 274 0
DWIDTH 7 0
BBX 13 24 -3 -6
BITMAP
0078
00F8
01C0
0180
0180
0300
0300
0300
0300
0700
0600
0600
0600
0600
0E00
0C00
0C00
0C00
0C00
1800
1800
3800
F000
E000
ENDCHAR
STARTCHAR florin
ENCODING 402
SWIDTH 550 0
DWIDTH 13 0
BBX 13 23 0 -6
BITMAP
0078
01F8
0180
0180
0300
0300
07E0
0FE0
0300
0600
0600
0600
0600
0600
0C00
0C00
0C00
0C00
1C00
1800
3800
F000
E000
ENDCHAR
STARTCHAR Ohorn
ENCODING 416
SWIDTH 713 0
DWIDTH 17 0
BBX 18 18 2 0
BITMAP
0000C0
03E1C0
0FF980
1C3F00
300C00
700C00
600C00
E00E00
C00C00
C00C00
C00C00
C00C00
C01C00
C01800
E03800
70F000
3FE000
1F8000
ENDCHAR
STARTCHAR ohorn
ENCODING 417
SWIDTH 561 0
DWIDTH 13 0
BBX 15 15 1 0
BITMAP
000E
000C
0F8C
1FD8
38E0
7060
6060
E060
C060
C060
C060
C0C0
61C0
7F80
3E00
ENDCHAR
STARTCHAR Uhorn
ENCODING 431
SWIDTH 722 0
DWIDTH 17 0
BBX 19 18 2 0
BITMAP
0000E0
300CC0
300DC0
300F80
300C00
601C00
601800
601800
601800
601800
C03000
C03000
C03000
C07000
C06000
E0E000
7FC000
3F0000
ENDCHAR
STARTCHAR uhorn
ENCODING 432
SWIDTH 617 0
DWIDTH 15 0
BBX 16 15 1 0
BITMAP
0003
0003
3037
303E
3038
3060
6060
6060
6060
60E0
C0C0
C1C0
E3C0
7EC0
3CC0
ENDCHAR
STARTCHAR uni01F0
ENCODING 496
SWIDTH 253 0
DWIDTH 6 0
BBX 12 25 -3 -6
BITMAP
0430
0260
03C0
0180
0000
0000
0300
0300
0300
0300
0600
0600
0600
0600
0600
0C00
0C00
0C00
0C00
0C00
1800
1800
3800
F000
E000
ENDCHAR
STARTCHAR Aringacute
ENCODING 506
SWIDTH 555 0
DWIDTH 13 0
BBX 14 23 -1 0
BITMAP
001C
0038
0060
0000
00E0
0190
0190
0190
00F0
01A0
01B0
0330
0730
0630
0E30
0C30
1FF0
1FF0
3018
3018
6018
E018
C018
ENDCHAR
STARTCHAR aringacute
ENCODING 507
SWIDTH 564 0
DWIDTH 14 0
BBX 12 23 1 0
BITMAP
0070
00C0
0180
0000
0380
06C0
0440
04C0
0380
0000
0F30
1FB0
38F0
7060
6060
6060
C060
C0E0
C0C0
C1C0
E3C0
7EC0
3CC0
ENDCHAR
STARTCHAR AEacute
ENCODING 508
SWIDTH 816 0
DWIDTH 20 0
BBX 22 23 -1 0
BITMAP
000060
0000C0
000180
000300
000000
000000
003FFC
003FF8
006C00
00EC00
00CC00
018C00
038C00
031FF0
061FE0
0E1800
0FF800
1FF800
183000
303000
703000
603FC0
C07FC0
ENDCHAR
STARTCHAR aeacute
ENCODING 509
SWIDTH 814 0
DWIDTH 20 0
BBX 18 19 1 0
BITMAP
000E00
001C00
001800
003000
000000
000000
0F2780
1FBFC0
38F8C0
70F0C0
6060C0
60E380
C0FF00
C0FC00
C1C000
C1C000
E6E180
7FFF80
39BE00
ENDCHAR
STARTCHAR Oslashacute
ENCODING 510
SWIDTH 720 0
DWIDTH 17 0
BBX 15 24 2 -1
BITMAP
0030
0060
00C0
0080
0000
0000
03E6
0FFC
1C38
301C
703C
606C
E0CE
C18C
C30C
C70C
CE0C
CC1C
D818
F038
70F0
FFE0
DF80
8000
ENDCHAR
STARTCHAR oslashacute
ENCODING 511
SWIDTH 561 0
DWIDTH 13 0
BBX 12 20 1 -1
BITMAP
00E0
00C0
0180
0300
0000
0020
0FB0
1FE0
38E0
71E0
6360
C360
C660
CC60
D860
F0C0
71C0
7F80
DE00
8000
ENDCHAR
STARTCHAR Scommaaccent
ENCODING 536
SWIDTH 501 0
DWIDTH 12 0
BBX 12 22 0 -5
BITMAP
07E0
0FF0
1C10
1800
1800
1800
1800
0E00
0780
01C0
00C0
00E0
0060
00C0
C1C0
FF80
7F00
0000
0C00
1800
1000
3000
ENDCHAR
STARTCHAR scommaaccent
ENCODING 537
SWIDTH 428 0
DWIDTH 10 0
BBX 10 18 0 -5
BITMAP
0F80
3FC0
3080
3000
3000
3800
1E00
0700
0380
0180
8300
FF00
7C00
0000
1800
3000
2000
6000
ENDCHAR
STARTCHAR Tcommaaccent
ENCODING 538
SWIDTH 498 0
DWIDTH 12 0
BBX 12 22 2 -5
BITMAP
FFF0
FFF0
0600
0600
0C00
0C00
0C00
0C00
0C00
1800
1800
1800
1800
3000
3000
3000
3000
0000
6000
6000
C000
8000
ENDCHAR
STARTCHAR tcommaaccent
ENCODING 539
SWIDTH 324 0
DWIDTH 8 0
BBX 7 21 1 -5
BITMAP
08
18
10
7E
FE
30
30
20
60
60
60
60
C0
E0
78
78
00
60
60
C0
80
ENDCHAR
STARTCHAR dotlessj
ENCODING 567
SWIDTH 253 0
DWIDTH 6 0
BBX 8 19 -3 -6
BITMAP
03
03
03
03
06
06
06
06
06
0C
0C
0C
0C
0C
18
18
38
F0
E0
ENDCHAR
STARTCHAR uni02BC
ENCODING 700
SWIDTH 169 0
DWIDTH 4 0
BBX 4 6 2 11
BITMAP
30
70
60
60
C0
80
ENDCHAR
STARTCHAR circumflex
ENCODING 710
SWIDTH 554 0
DWIDTH 13 0
BBX 7 4 5 15
BITMAP
18
3C
6C
C6
ENDCHAR
STARTCHAR caron
ENCODING 711
SWIDTH 554 0
DWIDTH 13 0
BBX 7 4 6 15
BITMAP
86
C8
78
70
ENDCHAR
STARTCHAR macron
ENCODING 713
SWIDTH 535 0
DWIDTH 13 0
BBX 6 2 5 15
BITMAP
FC
FC
ENDCHAR
STARTCHAR breve
ENCODING 728
SWIDTH 554 0
DWIDTH 13 0
BBX 6 3 6 15
BITMAP
84
FC
78
ENDCHAR
STARTCHAR dotaccent
ENCODING 729
SWIDTH 243 0
DWIDTH 6 0
BBX 2 3 4 15
BITMAP
C0
C0
C0
ENDCHAR
STARTCHAR ring
ENCODING 730
SWIDTH 577 0
DWIDTH 14 0
BBX 6 5 6 15
BITMAP
78
48
CC
48
78
ENDCHAR
STARTCHAR ogonek
ENCODING 731
SWIDTH 182 0
DWIDTH 4 0
BBX 4 5 -2 -5
BITMAP
30
60
C0
C0
70
ENDCHAR
STARTCHAR tilde
ENCODING 732
SWIDTH 554 0
DWIDTH 13 0
BBX 8 3 4 15
BITMAP
71
FF
8E
ENDCHAR
STARTCHAR hungarumlaut
ENCODING 733
SWIDTH 554 0
DWIDTH 13 0
BBX 8 4 5 15
BITMAP
33
66
44
88
ENDCHAR
STARTCHAR uni02F3
ENCODING 755
SWIDTH 333 0
DWIDTH 8 0
BBX 5 5 -1 -6
BITMAP
70
C8
88
C8
70
ENDCHAR
STARTCHAR uni0300
ENCODING 768
SWIDTH 0 0
DWIDTH 0 0
BBX 3 4 -8 15
BITMAP
C0
C0
60
20
ENDCHAR
STARTCHAR uni0301
ENCODING 769
SWIDTH 0 0
DWIDTH 0 0
BBX 4 4 -6 15
BITMAP
30
70
60
C0
ENDCHAR
STARTCHAR uni0303
ENCODING 771
SWIDTH 0 0
DWIDTH 0 0
BBX 9 3 -10 15
BITMAP
7180
7F00
CE00
ENDCHAR
STARTCHAR hook
ENCODING 777
SWIDTH 0 0
DWIDTH 0 0
BBX 4 6 -7 14
BITMAP
E0
30
10
70
C0
C0
ENDCHAR
STARTCHAR uni030F
ENCODING 783
SWIDTH 0 0
DWIDTH 0 0
BBX 8 4 -12 15
BITMAP
CC
66
66
33
ENDCHAR
STARTCHAR dotbelow
ENCODING 803
SWIDTH 0 0
DWIDTH 0 0
BBX 2 3 -10 -5
BITMAP
C0
C0
C0
ENDCHAR
STARTCHAR tonos
ENCODING 900
SWIDTH 562 0
DWIDTH 14 0
BBX 4 5 7 15
BITMAP
30
30
60
60
C0
ENDCHAR
STARTCHAR dieresistonos
ENCODING 901
SWIDTH 562 0
DWIDTH 14 0
BBX 7 5 5 15
BITMAP
0E
0C
18
D6
C6
ENDCHAR
STARTCHAR Alphatonos
ENCODING 902
SWIDTH 555 0
DWIDTH 13 0
BBX 13 19 -1 0
BITMAP
0600
0C00
0C60
18E0
10A0
01A0
01B0
0330
0730
0630
0C30
0C30
1FF0
1FF0
3018
3018
6018
E018
C018
ENDCHAR
STARTCHAR anoteleia
ENCODING 903
SWIDTH 252 0
DWIDTH 6 0
BBX 3 3 2 7
BITMAP
E0
E0
C0
ENDCHAR
STARTCHAR Epsilontonos
ENCODING 904
SWIDTH 567 0
DWIDTH 14 0
BBX 14 19 1 0
BITMAP
3000
6000
67FC
C7F8
8E00
0C00
0C00
0C00
0C00
1FF0
1FE0
1800
1800
1800
3000
3000
3000
3FC0
3FC0
ENDCHAR
STARTCHAR Etatonos
ENCODING 905
SWIDTH 753 0
DWIDTH 18 0
BBX 17 19 1 0
BITMAP
300000
600000
660180
C60180
860180
060300
0C0300
0C0300
0C0300
0FFF00
0FFE00
180600
180600
180600
180600
180C00
300C00
300C00
300C00
ENDCHAR
STARTCHAR Iotatonos
ENCODING 906
SWIDTH 363 0
DWIDTH 9 0
BBX 8 19 1 0
BITMAP
30
30
63
46
C6
06
06
06
0C
0C
0C
0C
0C
18
18
18
18
30
30
ENDCHAR
STARTCHAR Omicrontonos
ENCODING 908
SWIDTH 756 0
DWIDTH 18 0
BBX 16 19 1 0
BITMAP
3000
3000
60F8
43FE
C70E
0C07
1C03
1803
3003
3003
3003
3003
3003
3007
3006
380E
1C3C
0FF8
07E0
ENDCHAR
STARTCHAR Upsilontonos
ENCODING 910
SWIDTH 640 0
DWIDTH 15 0
BBX 16 19 1 0
BITMAP
3000
6000
6603
C607
8606
060C
031C
0318
0330
0360
01E0
01C0
0180
0180
0180
0180
0300
0300
0300
ENDCHAR
STARTCHAR Omegatonos
ENCODING 911
SWIDTH 782 0
DWIDTH 19 0
BBX 17 19 1 0
BITMAP
300000
300000
60F800
63FE00
CF0700
0C0300
1C0380
180180
380180
300180
300380
300300
300300
300600
180E00
181C00
0C3000
FE7F00
FE7F00
ENDCHAR
STARTCHAR iotadieresistonos
ENCODING 912
SWIDTH 305 0
DWIDTH 7 0
BBX 7 20 1 0
BITMAP
06
0C
08
7A
46
00
00
30
30
30
60
60
60
60
60
C0
C0
C0
F8
78
ENDCHAR
STARTCHAR Alpha
ENCODING 913
SWIDTH 555 0
DWIDTH 13 0
BBX 13 17 -1 0
BITMAP
0060
00E0
00A0
01A0
01B0
0330
0730
0630
0C30
0C30
1FF0
1FF0
3018
3018
6018
E018
C018
ENDCHAR
STARTCHAR Beta
ENCODING 914
SWIDTH 598 0
DWIDTH 14 0
BBX 13 17 1 0
BITMAP
0FE0
1FF0
1838
1818
1818
3018
3070
3FE0
3FC0
3060
6030
6030
6030
6070
40E0
FFC0
FF00
ENDCHAR
STARTCHAR Gamma
ENCODING 915
SWIDTH 476 0
DWIDTH 11 0
BBX 12 17 1 0
BITMAP
0FF0
1FF0
1800
1800
1800
3800
3000
3000
3000
3000
6000
6000
6000
6000
6000
C000
C000
ENDCHAR
STARTCHAR uni0394
ENCODING 916
SWIDTH 558 0
DWIDTH 13 0
BBX 13 17 -1 0
BITMAP
0060
00E0
00A0
01A0
01B0
0330
0330
0630
0C30
0C30
1830
1830
3010
3018
6018
7FF8
FFF8
ENDCHAR
STARTCHAR Epsilon
ENCODING 917
SWIDTH 511 0
DWIDTH 12 0
BBX 12 17 1 0
BITMAP
0FF0
1FF0
1800
1800
1800
3000
3000
3FC0
3FC0
3000
6000
6000
6000
6000
6000
FF80
FF80
ENDCHAR
STARTCHAR Zeta
ENCODING 918
SWIDTH 530 0
DWIDTH 13 0
BBX 14 17 0 0
BITMAP
0FFC
1FF8
0018
0030
0060
00C0
01C0
0380
0300
0600
0C00
1800
3800
3000
6000
FFE0
FFC0
ENDCHAR
STARTCHAR Eta
ENCODING 919
SWIDTH 678 0
DWIDTH 16 0
BBX 15 17 1 0
BITMAP
0C06
1806
1806
1806
180C
300C
300C
3FFC
3FFC
3018
6018
6018
6018
6030
6030
C030
C030
ENDCHAR
STARTCHAR Theta
ENCODING 920
SWIDTH 720 0
DWIDTH 17 0
BBX 15 17 2 0
BITMAP
03E0
0FF8
1C38
300C
700C
600C
E00E
C00C
CFCC
CFCC
C00C
C01C
C018
E038
70F0
3FE0
1F80
ENDCHAR
STARTCHAR Iota
ENCODING 921
SWIDTH 272 0
DWIDTH 7 0
BBX 6 17 1 0
BITMAP
0C
18
18
18
18
30
30
30
30
30
60
60
60
60
60
C0
C0
ENDCHAR
STARTCHAR Kappa
ENCODING 922
SWIDTH 557 0
DWIDTH 13 0
BBX 14 17 1 0
BITMAP
0C0C
1818
1830
1860
18C0
3180
3300
3600
3E00
3300
6300
6180
6180
61C0
60C0
C0C0
C060
ENDCHAR
STARTCHAR Lambda
ENCODING 923
SWIDTH 558 0
DWIDTH 13 0
BBX 13 17 -1 0
BITMAP
0060
00E0
00E0
01B0
01B0
0330
0730
0630
0C30
0C30
1810
1818
3018
3018
6018
E018
C018
ENDCHAR
STARTCHAR Mu
ENCODING 924
SWIDTH 836 0
DWIDTH 20 0
BBX 19 17 1 0
BITMAP
1E00E0
1E01E0
1E01E0
1E03C0
1E02C0
3606C0
320CC0
320CC0
331980
231980
633180
633180
636180
634300
41C300
C18300
C18300
ENDCHAR
STARTCHAR Nu
ENCODING 925
SWIDTH 702 0
DWIDTH 17 0
BBX 16 17 1 0
BITMAP
1C03
1C03
1E06
1E06
1606
3306
3306
318C
318C
318C
60CC
60CC
6058
6078
4078
C038
C030
ENDCHAR
STARTCHAR Xi
ENCODING 926
SWIDTH 517 0
DWIDTH 12 0
BBX 13 17 0 0
BITMAP
0FF8
1FF8
0000
0000
0000
0000
0000
1FE0
1FC0
0000
0000
0000
0000
0000
0000
FFC0
FFC0
ENDCHAR
STARTCHAR Omicron
ENCODING 927
SWIDTH 720 0
DWIDTH 17 0
BBX 15 17 2 0
BITMAP
03E0
0FF8
1C38
300C
700C
600C
E00E
C00C
C00C
C00C
C00C
C01C
C018
E038
70F0
3FE0
1F80
ENDCHAR
STARTCHAR Pi
ENCODING 928
SWIDTH 679 0
DWIDTH 16 0
BBX 15 17 1 0
BITMAP
0FFE
1FFE
1806
1806
180C
300C
300C
300C
300C
3018
6018
6018
6018
6018
6030
C030
C030
ENDCHAR
STARTCHAR Rho
ENCODING 929
SWIDTH 565 0
DWIDTH 14 0
BBX 13 17 1 0
BITMAP
0FC0
1FF0
1870
1830
1818
3838
3030
3030
30F0
3FE0
7F80
6000
6000
6000
6000
C000
C000
ENDCHAR
STARTCHAR Sigma
ENCODING 931
SWIDTH 520 0
DWIDTH 13 0
BBX 13 17 0 0
BITMAP
1FF8
1FF8
1800
0C00
0C00
0600
0600
0300
0300
0600
0C00
1800
3800
7000
6000
FFE0
FFE0
ENDCHAR
STARTCHAR Tau
ENCODING 932
SWIDTH 498 0
DWIDTH 12 0
BBX 12 17 2 0
BITMAP
FFF0
FFF0
0600
0600
0C00
0C00
0C00
0C00
0C00
1800
1800
1800
1800
3000
3000
3000
3000
ENDCHAR
STARTCHAR Upsilon
ENCODING 933
SWIDTH 502 0
DWIDTH 12 0
BBX 12 17 2 0
BITMAP
C030
6060
60E0
60C0
6180
3380
3300
3600
3C00
1C00
1800
1800
1800
3000
3000
3000
3000
ENDCHAR
STARTCHAR Phi
ENCODING 934
SWIDTH 744 0
DWIDTH 18 0
BBX 15 17 2 0
BITMAP
00C0
00C0
07F0
1FFC
799C
6186
C186
C186
C306
C306
C30E
C31C
E738
7FF0
1FC0
0600
0600
ENDCHAR
STARTCHAR Chi
ENCODING 935
SWIDTH 519 0
DWIDTH 12 0
BBX 15 17 -1 0
BITMAP
0C06
0C0C
0618
0638
0630
0360
03C0
0180
0380
0380
06C0
0CC0
1860
3860
3060
6030
C030
ENDCHAR
STARTCHAR Psi
ENCODING 936
SWIDTH 734 0
DWIDTH 18 0
BBX 17 17 2 0
BITMAP
70C180
60C300
60C300
618300
618300
E18700
C18600
C18600
E30E00
731C00
7FF800
1FE000
030000
060000
060000
060000
060000
ENDCHAR
STARTCHAR uni03A9
ENCODING 937
SWIDTH 732 0
DWIDTH 18 0
BBX 17 17 0 0
BITMAP
01F800
07FE00
0F0F00
0C0300
180300
380380
300180
300380
300300
300300
300300
300600
180C00
181C00
0C3000
FE7F00
FC7F00
ENDCHAR
STARTCHAR Iotadieresis
ENCODING 938
SWIDTH 272 0
DWIDTH 7 0
BBX 8 21 1 0
BITMAP
33
33
00
00
0C
18
18
18
18
30
30
30
30
30
60
60
60
60
60
C0
C0
ENDCHAR
STARTCHAR Upsilondieresis
ENCODING 939
SWIDTH 502 0
DWIDTH 12 0
BBX 12 21 2 0
BITMAP
08C0
1880
0000
0000
C030
6060
60E0
60C0
6180
3380
3300
3600
3C00
1C00
1800
1800
1800
3000
3000
3000
3000
ENDCHAR
STARTCHAR alphatonos
ENCODING 940
SWIDTH 568 0
DWIDTH 14 0
BBX 12 20 1 0
BITMAP
00E0
00C0
0180
0180
0300
0000
0000
0F10
1FB0
38F0
7060
6060
6060
C060
C0C0
C0C0
C1C0
E3C0
7EE0
3CE0
ENDCHAR
STARTCHAR epsilontonos
ENCODING 941
SWIDTH 444 0
DWIDTH 11 0
BBX 10 20 1 0
BITMAP
01C0
0180
0180
0300
0200
0000
0000
1F80
3FC0
3000
6000
3000
1E00
7E00
E000
C000
C000
C100
FF00
7E00
ENDCHAR
STARTCHAR etatonos
ENCODING 942
SWIDTH 577 0
DWIDTH 14 0
BBX 11 26 1 -6
BITMAP
00E0
00C0
0180
0180
0300
0000
0000
33C0
37E0
3C60
3820
7060
7060
6060
6060
6060
C0C0
C0C0
C0C0
C0C0
0180
0180
0180
0180
0180
0300
ENDCHAR
STARTCHAR iotatonos
ENCODING 943
SWIDTH 305 0
DWIDTH 7 0
BBX 7 20 1 0
BITMAP
06
0C
0C
18
10
00
00
30
30
30
60
60
60
60
60
C0
C0
C0
F8
78
ENDCHAR
STARTCHAR upsilondieresistonos
ENCODING 944
SWIDTH 576 0
DWIDTH 14 0
BBX 11 20 2 0
BITMAP
0180
0180
0300
1AC0
18C0
0000
0000
6060
6060
6060
C060
C060
C0C0
C0C0
C0C0
C0C0
C180
C380
FF00
7C00
ENDCHAR
STARTCHAR alpha
ENCODING 945
SWIDTH 568 0
DWIDTH 14 0
BBX 12 13 1 0
BITMAP
0F10
1FB0
38F0
7060
6060
6060
C060
C0C0
C0C0
C1C0
E3C0
7EE0
3CE0
ENDCHAR
STARTCHAR beta
ENCODING 946
SWIDTH 577 0
DWIDTH 14 0
BBX 13 24 0 -6
BITMAP
01F0
07F8
0618
0C18
0C18
1818
1818
1830
1BE0
1BE0
3070
3030
3030
3030
6030
7070
7FE0
6F80
6000
C000
C000
C000
C000
C000
ENDCHAR
STARTCHAR gamma
ENCODING 947
SWIDTH 458 0
DWIDTH 11 0
BBX 11 19 1 -6
BITMAP
C060
C0C0
40C0
6180
6180
6300
6300
6600
6600
2C00
2C00
3800
3800
3000
7000
6000
6000
C000
C000
ENDCHAR
STARTCHAR delta
ENCODING 948
SWIDTH 553 0
DWIDTH 13 0
BBX 12 18 1 0
BITMAP
03C0
07F0
0C30
0C00
0C00
0400
0700
0F80
18C0
70C0
6060
C060
C060
C0E0
C0C0
E1C0
7F80
3E00
ENDCHAR
STARTCHAR epsilon
ENCODING 949
SWIDTH 444 0
DWIDTH 11 0
BBX 10 13 1 0
BITMAP
1F80
3FC0
3000
6000
3000
1E00
7E00
E000
C000
C000
C100
FF00
7E00
ENDCHAR
STARTCHAR zeta
ENCODING 950
SWIDTH 453 0
DWIDTH 11 0
BBX 12 22 1 -4
BITMAP
0FF0
0FE0
00C0
0180
0300
0600
0C00
1800
3000
6000
6000
C000
C000
C000
E000
7000
3C00
0E00
0700
0200
0600
0C00
ENDCHAR
STARTCHAR eta
ENCODING 951
SWIDTH 577 0
DWIDTH 14 0
BBX 11 19 1 -6
BITMAP
33C0
37E0
3C60
3820
7060
7060
6060
6060
6060
C0C0
C0C0
C0C0
C0C0
0180
0180
0180
0180
0180
0300
ENDCHAR
STARTCHAR theta
ENCODING 952
SWIDTH 542 0
DWIDTH 13 0
BBX 12 18 1 0
BITMAP
07C0
0FE0
1C60
3860
3030
3030
6030
6060
7FE0
7FE0
C060
C040
C0C0
C0C0
C180
E380
7F00
3C00
ENDCHAR
STARTCHAR iota
ENCODING 953
SWIDTH 305 0
DWIDTH 7 0
BBX 5 13 1 0
BITMAP
30
30
30
60
60
60
60
60
C0
C0
C0
F8
78
ENDCHAR
STARTCHAR kappa
ENCODING 954
SWIDTH 487 0
DWIDTH 12 0
BBX 11 13 1 0
BITMAP
3060
30C0
3180
3300
6600
6C00
7C00
7600
6600
C300
C300
C380
C180
ENDCHAR
STARTCHAR lambda
ENCODING 955
SWIDTH 482 0
DWIDTH 12 0
BBX 12 18 -1 0
BITMAP
0E00
0F00
0300
0180
0180
0180
0180
0380
0780
0580
0D80
0880
18C0
30C0
30C0
60C0
60F0
C070
ENDCHAR
STARTCHAR uni03BC
ENCODING 956
SWIDTH 583 0
DWIDTH 14 0
BBX 13 19 0 -6
BITMAP
1818
1818
1818
1818
3030
3030
3030
3070
3060
60E0
71E0
7F60
7E60
4000
C000
C000
C000
C000
C000
ENDCHAR
STARTCHAR nu
ENCODING 957
SWIDTH 488 0
DWIDTH 12 0
BBX 11 13 1 0
BITMAP
C060
C060
C0C0
60C0
60C0
6180
6180
6300
6300
6600
6C00
3800
3000
ENDCHAR
STARTCHAR xi
ENCODING 958
SWIDTH 444 0
DWIDTH 11 0
BBX 11 22 1 -4
BITMAP
0FE0
1FC0
0E00
1800
1800
3000
1800
0F80
1F80
3800
6000
C000
C000
C000
C000
6000
3800
0E00
0600
0600
0600
0C00
ENDCHAR
STARTCHAR omicron
ENCODING 959
SWIDTH 561 0
DWIDTH 13 0
BBX 11 13 1 0
BITMAP
0F80
1FC0
38E0
7060
6060
E060
C060
C060
C060
C0C0
61C0
7F80
3E00
ENDCHAR
STARTCHAR pi
ENCODING 960
SWIDTH 600 0
DWIDTH 14 0
BBX 14 13 1 0
BITMAP
7FFC
FFFC
3060
3060
3060
30C0
70C0
60C0
60C0
6180
6180
C1E0
C0E0
ENDCHAR
STARTCHAR rho
ENCODING 961
SWIDTH 570 0
DWIDTH 14 0
BBX 13 19 0 -6
BITMAP
03C0
0FF0
1C30
1830
1838
3038
3030
3030
3030
6070
70E0
7FC0
6F80
6000
C000
C000
C000
C000
C000
ENDCHAR
STARTCHAR sigma1
ENCODING 962
SWIDTH 453 0
DWIDTH 11 0
BBX 10 17 1 -4
BITMAP
0F80
1FC0
3800
7000
6000
C000
C000
C000
C000
E000
7000
3C00
0E00
0300
0300
0600
0C00
ENDCHAR
STARTCHAR sigma
ENCODING 963
SWIDTH 581 0
DWIDTH 14 0
BBX 13 13 1 0
BITMAP
0FF8
1FF8
38C0
6060
6060
C060
C060
C060
C0E0
E0C0
61C0
7F80
3E00
ENDCHAR
STARTCHAR tau
ENCODING 964
SWIDTH 417 0
DWIDTH 10 0
BBX 10 13 1 0
BITMAP
7FC0
FFC0
1800
1800
1800
1800
1800
3000
3000
3000
3000
3E00
1E00
ENDCHAR
STARTCHAR upsilon
ENCODING 965
SWIDTH 576 0
DWIDTH 14 0
BBX 11 13 2 0
BITMAP
6060
6060
6060
C060
C060
C0C0
C0C0
C0C0
C0C0
C180
C380
FF00
7C00
ENDCHAR
STARTCHAR phi
ENCODING 966
SWIDTH 669 0
DWIDTH 16 0
BBX 14 19 1 -6
BITMAP
00F0
19F8
319C
618C
630C
C30C
C30C
C318
C618
C638
6670
7FE0
1F80
0C00
0C00
0C00
0C00
0C00
1800
ENDCHAR
STARTCHAR chi
ENCODING 967
SWIDTH 502 0
DWIDTH 12 0
BBX 15 19 -2 -6
BITMAP
1C0E
0E0C
0618
0330
0330
0360
0340
03C0
0380
0300
0380
0780
0D80
1980
1980
3180
60C0
E0F0
C070
ENDCHAR
STARTCHAR psi
ENCODING 968
SWIDTH 713 0
DWIDTH 17 0
BBX 14 24 2 -6
BITMAP
00C0
00C0
0080
0180
0180
618C
618C
630C
C30C
C30C
C30C
C21C
C618
C618
C630
E6F0
7FE0
3F80
0C00
0C00
0C00
1800
1800
1800
ENDCHAR
STARTCHAR omega
ENCODING 969
SWIDTH 729 0
DWIDTH 18 0
BBX 15 13 1 0
BITMAP
1806
3006
3006
6006
6006
6186
C186
C186
C30E
C30C
E79C
7DF8
38F0
ENDCHAR
STARTCHAR iotadieresis
ENCODING 970
SWIDTH 305 0
DWIDTH 7 0
BBX 7 17 1 0
BITMAP
66
66
00
00
30
30
30
60
60
60
60
60
C0
C0
C0
F8
78
ENDCHAR
STARTCHAR upsilondieresis
ENCODING 971
SWIDTH 576 0
DWIDTH 14 0
BBX 11 17 2 0
BITMAP
18C0
1880
0000
0000
6060
6060
6060
C060
C060
C0C0
C0C0
C0C0
C0C0
C180
C380
FF00
7C00
ENDCHAR
STARTCHAR omicrontonos
ENCODING 972
SWIDTH 561 0
DWIDTH 13 0
BBX 11 20 1 0
BITMAP
00C0
00C0
0180
0180
0300
0000
0000
0F80
1FC0
38E0
7060
6060
E060
C060
C060
C060
C0C0
61C0
7F80
3E00
ENDCHAR
STARTCHAR upsilontonos
ENCODING 973
SWIDTH 576 0
DWIDTH 14 0
BBX 11 20 2 0
BITMAP
0180
0180
0300
0200
0600
0000
0000
6060
6060
6060
C060
C060
C0C0
C0C0
C0C0
C0C0
C180
C380
FF00
7C00
ENDCHAR
STARTCHAR omegatonos
ENCODING 974
SWIDTH 729 0
DWIDTH 18 0
BBX 15 20 1 0
BITMAP
0038
0030
0060
0060
00C0
0000
0000
1806
3006
3006
6006
6006
6186
C186
C186
C30E
C30C
E79C
7DF8
38F0
ENDCHAR
STARTCHAR uni03D1
ENCODING 977
SWIDTH 569 0
DWIDTH 14 0
BBX 13 18 1 0
BITMAP
0780
0FC0
0C60
1860
1830
1830
0E30
0FF8
E3F8
E060
6060
6060
40C0
C0C0
C180
C380
FF00
7C00
ENDCHAR
STARTCHAR uni03D2
ENCODING 978
SWIDTH 509 0
DWIDTH 12 0
BBX 13 17 2 0
BITMAP
C038
6070
60E0
61C0
6180
3300
3300
3600
3C00
1C00
1800
1800
1800
3000
3000
3000
3000
ENDCHAR
STARTCHAR uni03D6
ENCODING 982
SWIDTH 791 0
DWIDTH 19 0
BBX 19 13 1 0
BITMAP
3FFFE0
FFFFC0
180300
300300
300300
600300
618300
618700
618600
618600
638C00
7EFC00
3C7000
ENDCHAR
STARTCHAR uni0400
ENCODING 1024
SWIDTH 511 0
DWIDTH 12 0
BBX 12 23 1 0
BITMAP
0300
0300
0180
0080
0000
0000
0FF0
1FF0
1800
1800
1800
3000
3000
3FC0
3FC0
3000
6000
6000
6000
6000
6000
FF80
FF80
ENDCHAR
STARTCHAR afii10023
ENCODING 1025
SWIDTH 511 0
DWIDTH 12 0
BBX 12 21 1 0
BITMAP
0620
0660
0000
0000
0FF0
1FF0
1800
1800
1800
3000
3000
3FC0
3FC0
3000
6000
6000
6000
6000
6000
FF80
FF80
ENDCHAR
STARTCHAR afii10051
ENCODING 1026
SWIDTH 666 0
DWIDTH 16 0
BBX 12 17 2 0
BITMAP
FFE0
FFE0
0C00
0C00
1800
1800
1800
1FE0
1FF0
3030
3030
3030
3030
7030
6060
63E0
63C0
ENDCHAR
STARTCHAR afii10052
ENCODING 1027
SWIDTH 476 0
DWIDTH 11 0
BBX 12 23 1 0
BITMAP
0060
00E0
00C0
0180
0000
0000
0FF0
1FF0
1800
1800
1800
3800
3000
3000
3000
3000
6000
6000
6000
6000
6000
C000
C000
ENDCHAR
STARTCHAR afii10053
ENCODING 1028
SWIDTH 584 0
DWIDTH 14 0
BBX 13 17 2 0
BITMAP
03F0
0FF8
1C00
3800
7000
6000
E000
FFC0
FF80
C000
C000
C000
C000
E000
7040
3FC0
1F80
ENDCHAR
STARTCHAR afii10054
ENCODING 1029
SWIDTH 501 0
DWIDTH 12 0
BBX 12 17 0 0
BITMAP
07E0
0FF0
1C10
1800
1800
1800
1800
0E00
0780
01C0
00C0
00E0
0060
00C0
C1C0
FF80
7F00
ENDCHAR
STARTCHAR afii10055
ENCODING 1030
SWIDTH 272 0
DWIDTH 7 0
BBX 6 17 1 0
BITMAP
0C
18
18
18
18
30
30
30
30
30
60
60
60
60
60
C0
C0
ENDCHAR
STARTCHAR afii10056
ENCODING 1031
SWIDTH 272 0
DWIDTH 7 0
BBX 8 21 1 0
BITMAP
33
33
00
00
0C
18
18
18
18
30
30
30
30
30
60
60
60
60
60
C0
C0
ENDCHAR
STARTCHAR afii10057
ENCODING 1032
SWIDTH 267 0
DWIDTH 6 0
BBX 11 21 -4 -4
BITMAP
0060
00C0
00C0
00C0
00C0
0180
0180
0180
0180
0180
0300
0300
0300
0300
0600
0600
0600
0600
0C00
FC00
F000
ENDCHAR
STARTCHAR afii10058
ENCODING 1033
SWIDTH 889 0
DWIDTH 21 0
BBX 21 17 -1 0
BITMAP
00FF00
00FF00
01C200
018600
018600
018600
030600
030FE0
030FF0
070C38
060C18
060C18
0E1818
0C1838
1C1870
F81FE0
F01FC0
ENDCHAR
STARTCHAR afii10059
ENCODING 1034
SWIDTH 901 0
DWIDTH 22 0
BBX 19 17 1 0
BITMAP
0C0C00
180C00
180C00
180C00
181800
301800
301800
3FFF80
3FFFC0
3030E0
603060
603060
603060
606060
6061C0
C07FC0
C07F00
ENDCHAR
STARTCHAR afii10060
ENCODING 1035
SWIDTH 666 0
DWIDTH 16 0
BBX 12 17 2 0
BITMAP
FFE0
FFE0
0C00
0C00
1800
1800
1800
1FE0
1FF0
3030
3030
3030
3030
7030
6030
6060
6060
ENDCHAR
STARTCHAR afii10061
ENCODING 1036
SWIDTH 559 0
DWIDTH 13 0
BBX 14 23 1 0
BITMAP
0030
0060
00C0
0080
0000
0000
0C0C
1818
1830
1860
18C0
3180
3300
3600
3C00
3E00
6600
6300
6380
6180
60C0
C0E0
C060
ENDCHAR
STARTCHAR uni040D
ENCODING 1037
SWIDTH 696 0
DWIDTH 17 0
BBX 16 23 1 0
BITMAP
0180
00C0
00C0
0060
0000
0000
0807
180F
180E
181E
1836
3066
30C4
30CC
318C
330C
660C
6618
6C18
7818
7018
F018
E030
ENDCHAR
STARTCHAR afii10062
ENCODING 1038
SWIDTH 571 0
DWIDTH 14 0
BBX 16 23 0 0
BITMAP
060C
060C
03F8
01F0
0000
0000
1807
1806
180C
0C0C
0C18
0C30
0430
0660
0660
06C0
0280
0380
0300
0600
0E00
FC00
F000
ENDCHAR
STARTCHAR afii10145
ENCODING 1039
SWIDTH 679 0
DWIDTH 16 0
BBX 15 21 1 -4
BITMAP
0C06
1806
1806
1806
180C
300C
300C
300C
300C
3018
6018
6018
6018
6038
6030
FFF0
FFF0
0600
0600
0C00
0C00
ENDCHAR
STARTCHAR afii10017
ENCODING 1040
SWIDTH 555 0
DWIDTH 13 0
BBX 13 17 -1 0
BITMAP
0060
00E0
00A0
01A0
01B0
0330
0730
0630
0C30
0C30
1FF0
1FF0
3018
3018
6018
E018
C018
ENDCHAR
STARTCHAR afii10018
ENCODING 1041
SWIDTH 563 0
DWIDTH 14 0
BBX 12 17 1 0
BITMAP
0FF0
1FF0
1800
1800
1800
3000
3000
3F80
3FC0
30E0
6060
6060
6060
60E0
61C0
FF80
FF00
ENDCHAR
STARTCHAR afii10019
ENCODING 1042
SWIDTH 598 0
DWIDTH 14 0
BBX 13 17 1 0
BITMAP
0FE0
1FF0
1838
1818
1818
3018
3070
3FE0
3FC0
3060
6030
6030
6030
6070
40E0
FFC0
FF00
ENDCHAR
STARTCHAR afii10020
ENCODING 1043
SWIDTH 476 0
DWIDTH 11 0
BBX 12 17 1 0
BITMAP
0FF0
1FF0
1800
1800
1800
3800
3000
3000
3000
3000
6000
6000
6000
6000
6000
C000
C000
ENDCHAR
STARTCHAR afii10021
ENCODING 1044
SWIDTH 621 0
DWIDTH 15 0
BBX 17 21 -2 -4
BITMAP
003F80
003F00
006300
006300
00E300
00C300
01C600
018600
038600
030600
070E00
060C00
0C0C00
0C0C00
180C00
7FFF00
7FFE00
600600
400600
C00600
C00600
ENDCHAR
STARTCHAR afii10022
ENCODING 1045
SWIDTH 511 0
DWIDTH 12 0
BBX 12 17 1 0
BITMAP
0FF0
1FF0
1800
1800
1800
3000
3000
3FC0
3FC0
3000
6000
6000
6000
6000
6000
FF80
FF80
ENDCHAR
STARTCHAR afii10024
ENCODING 1046
SWIDTH 775 0
DWIDTH 19 0
BBX 21 17 -1 0
BITMAP
0C0C18
0E1830
061870
0718E0
0319C0
039380
01B700
00FE00
01FC00
01BC00
036600
066600
0C6300
186380
386180
70C1C0
E0C0C0
ENDCHAR
STARTCHAR afii10025
ENCODING 1047
SWIDTH 532 0
DWIDTH 13 0
BBX 12 17 0 0
BITMAP
07E0
1FF0
1830
0030
0030
0030
0060
1FC0
1FC0
00E0
0060
0060
0060
0060
C1E0
FFC0
7F00
ENDCHAR
STARTCHAR afii10026
ENCODING 1048
SWIDTH 696 0
DWIDTH 17 0
BBX 16 17 1 0
BITMAP
0807
180F
180E
181E
1836
3066
30C4
30CC
318C
330C
660C
6618
6C18
7818
7018
F018
E030
ENDCHAR
STARTCHAR afii10027
ENCODING 1049
SWIDTH 696 0
DWIDTH 17 0
BBX 16 23 1 0
BITMAP
030C
030C
03F8
01F0
0000
0000
0807
180F
180E
181E
1836
3066
30C4
30CC
318C
330C
660C
6618
6C18
7818
7018
F018
E030
ENDCHAR
STARTCHAR afii10028
ENCODING 1050
SWIDTH 559 0
DWIDTH 13 0
BBX 14 17 1 0
BITMAP
0C0C
1818
1830
1860
18C0
3180
3300
3600
3C00
3E00
6600
6300
6380
6180
60C0
C0E0
C060
ENDCHAR
STARTCHAR afii10029
ENCODING 1051
SWIDTH 644 0
DWIDTH 15 0
BBX 16 17 -1 0
BITMAP
00FF
00FF
01C3
0183
0183
0186
0306
0306
0306
0706
060C
060C
0E0C
0C0C
1C18
F818
F018
ENDCHAR
STARTCHAR afii10030
ENCODING 1052
SWIDTH 836 0
DWIDTH 20 0
BBX 19 17 1 0
BITMAP
1E00E0
1E01E0
1E01E0
1E03C0
1E02C0
3606C0
320CC0
320CC0
331980
231980
633180
633180
636180
634300
41C300
C18300
C18300
ENDCHAR
STARTCHAR afii10031
ENCODING 1053
SWIDTH 678 0
DWIDTH 16 0
BBX 15 17 1 0
BITMAP
0C06
1806
1806
1806
180C
300C
300C
3FFC
3FFC
3018
6018
6018
6018
6030
6030
C030
C030
ENDCHAR
STARTCHAR afii10032
ENCODING 1054
SWIDTH 720 0
DWIDTH 17 0
BBX 15 17 2 0
BITMAP
03E0
0FF8
1C38
300C
700C
600C
E00E
C00C
C00C
C00C
C00C
C01C
C018
E038
70F0
3FE0
1F80
ENDCHAR
STARTCHAR afii10033
ENCODING 1055
SWIDTH 679 0
DWIDTH 16 0
BBX 15 17 1 0
BITMAP
0FFE
1FFE
1806
1806
180C
300C
300C
300C
300C
3018
6018
6018
6018
6018
6030
C030
C030
ENDCHAR
STARTCHAR afii10034
ENCODING 1056
SWIDTH 565 0
DWIDTH 14 0
BBX 13 17 1 0
BITMAP
0FC0
1FF0
1870
1830
1818
3838
3030
3030
30F0
3FE0
7F80
6000
6000
6000
6000
C000
C000
ENDCHAR
STARTCHAR afii10035
ENCODING 1057
SWIDTH 584 0
DWIDTH 14 0
BBX 13 17 2 0
BITMAP
03F0
0FF8
1C00
3800
7000
6000
E000
C000
C000
C000
C000
C000
C000
E000
7040
3FC0
1F80
ENDCHAR
STARTCHAR afii10036
ENCODING 1058
SWIDTH 498 0
DWIDTH 12 0
BBX 12 17 2 0
BITMAP
FFF0
FFF0
0600
0600
0C00
0C00
0C00
0C00
0C00
1800
1800
1800
1800
3000
3000
3000
3000
ENDCHAR
STARTCHAR afii10037
ENCODING 1059
SWIDTH 571 0
DWIDTH 14 0
BBX 16 17 0 0
BITMAP
1807
1806
180C
0C0C
0C18
0C30
0430
0660
0660
06C0
0280
0380
0300
0600
0E00
FC00
F000
ENDCHAR
STARTCHAR afii10038
ENCODING 1060
SWIDTH 744 0
DWIDTH 18 0
BBX 15 17 2 0
BITMAP
00C0
00C0
07F0
1FFC
799C
6186
C186
C186
C306
C306
C30E
C31C
E738
7FF0
1FC0
0600
0600
ENDCHAR
STARTCHAR afii10039
ENCODING 1061
SWIDTH 519 0
DWIDTH 12 0
BBX 15 17 -1 0
BITMAP
0C06
0C0C
0618
0638
0630
0360
03C0
0180
0380
0380
06C0
0CC0
1860
3860
3060
6030
C030
ENDCHAR
STARTCHAR afii10040
ENCODING 1062
SWIDTH 665 0
DWIDTH 16 0
BBX 15 21 1 -4
BITMAP
1C06
1806
180E
180C
180C
300C
300C
3018
3018
3018
6018
6018
6030
6030
6030
FFFC
FFF8
0018
0018
0018
0018
ENDCHAR
STARTCHAR afii10041
ENCODING 1063
SWIDTH 639 0
DWIDTH 15 0
BBX 12 17 3 0
BITMAP
6030
6030
6030
6030
C070
C060
C060
C060
C1E0
FFC0
7EC0
00C0
00C0
00C0
0180
0180
0180
ENDCHAR
STARTCHAR afii10042
ENCODING 1064
SWIDTH 955 0
DWIDTH 23 0
BBX 22 17 1 0
BITMAP
1C0C0C
180C0C
18181C
181818
181818
301818
303018
303030
303030
303030
603030
606030
606060
606060
406060
FFFFE0
FFFFE0
ENDCHAR
STARTCHAR afii10043
ENCODING 1065
SWIDTH 957 0
DWIDTH 23 0
BBX 22 21 1 -4
BITMAP
1C0C0C
180C0C
18181C
181818
181818
301818
303018
303030
303030
303030
603030
606030
606060
606060
406060
FFFFF8
FFFFF0
000030
000030
000030
000030
ENDCHAR
STARTCHAR afii10044
ENCODING 1066
SWIDTH 625 0
DWIDTH 15 0
BBX 12 17 2 0
BITMAP
FC00
FC00
0C00
0C00
1800
1800
1800
1F80
1FE0
3060
3070
3070
3060
6060
60E0
7FC0
7F00
ENDCHAR
STARTCHAR afii10045
ENCODING 1067
SWIDTH 786 0
DWIDTH 19 0
BBX 18 17 1 0
BITMAP
0C00C0
1800C0
180180
180180
180180
300180
300180
3F8300
3FC300
30E300
606300
606300
606600
60E600
41C600
FF8600
FE0C00
ENDCHAR
STARTCHAR afii10046
ENCODING 1068
SWIDTH 554 0
DWIDTH 13 0
BBX 11 17 1 0
BITMAP
0C00
1800
1800
1800
1800
3000
3000
3F80
3FC0
30E0
6060
6060
6060
60E0
41C0
FF80
FE00
ENDCHAR
STARTCHAR afii10047
ENCODING 1069
SWIDTH 584 0
DWIDTH 14 0
BBX 13 17 0 0
BITMAP
0FC0
1FF0
1070
0038
0018
0018
0018
0FF8
0FF8
0018
0018
0030
0030
0060
C1E0
FF80
7F00
ENDCHAR
STARTCHAR afii10048
ENCODING 1070
SWIDTH 979 0
DWIDTH 24 0
BBX 22 17 1 0
BITMAP
0C07E0
181FF0
183838
187018
18601C
30E00C
30C00C
3FC00C
3FC01C
31C01C
61C018
61C018
60C038
60C070
60F0E0
C07FC0
C01F00
ENDCHAR
STARTCHAR afii10049
ENCODING 1071
SWIDTH 568 0
DWIDTH 14 0
BBX 15 17 -1 0
BITMAP
01FE
07FC
070C
0C0C
0C0C
0C0C
0C18
0E18
07F8
03F8
0718
0E30
0C30
1830
3030
7070
E060
ENDCHAR
STARTCHAR afii10065
ENCODING 1072
SWIDTH 564 0
DWIDTH 14 0
BBX 12 13 1 0
BITMAP
0F30
1FB0
38F0
7060
6060
6060
C060
C0E0
C0C0
C1C0
E3C0
7EC0
3CC0
ENDCHAR
STARTCHAR afii10066
ENCODING 1073
SWIDTH 541 0
DWIDTH 13 0
BBX 13 18 1 0
BITMAP
0038
07F8
0F00
1800
3000
3000
6780
7FC0
78E0
E060
C060
C060
C0E0
C0C0
C0C0
6180
7F80
3E00
ENDCHAR
STARTCHAR afii10067
ENCODING 1074
SWIDTH 538 0
DWIDTH 13 0
BBX 11 13 1 0
BITMAP
0FC0
1FE0
3860
7060
6060
E0C0
FF80
FF80
C0C0
C0C0
60C0
7FC0
1F00
ENDCHAR
STARTCHAR afii10068
ENCODING 1075
SWIDTH 457 0
DWIDTH 11 0
BBX 9 13 1 0
BITMAP
1F00
7F80
2180
0180
0380
0F00
3C00
7000
C000
C000
C100
FF00
7E00
ENDCHAR
STARTCHAR afii10069
ENCODING 1076
SWIDTH 562 0
DWIDTH 14 0
BBX 12 18 1 0
BITMAP
0F80
0FC0
00E0
0060
0060
0070
0F30
1FB0
38F0
7060
6060
C060
C060
C0C0
C1C0
E380
7F00
3E00
ENDCHAR
STARTCHAR afii10070
ENCODING 1077
SWIDTH 493 0
DWIDTH 12 0
BBX 10 13 1 0
BITMAP
0F80
1FC0
38C0
70C0
60C0
6380
FF00
FE00
C000
C000
6080
7F80
3E00
ENDCHAR
STARTCHAR afii10072
ENCODING 1078
SWIDTH 833 0
DWIDTH 20 0
BBX 21 13 0 0
BITMAP
383078
3E31F0
063380
063300
062700
066600
07FE00
07FE00
066600
0E4600
1CC700
F8C7C0
E0C1C0
ENDCHAR
STARTCHAR afii10073
ENCODING 1079
SWIDTH 436 0
DWIDTH 10 0
BBX 10 13 0 0
BITMAP
1F00
3FC0
21C0
00C0
0180
1F00
1F00
0180
0180
0180
8380
FF00
7C00
ENDCHAR
STARTCHAR afii10074
ENCODING 1080
SWIDTH 577 0
DWIDTH 14 0
BBX 12 13 1 0
BITMAP
3030
3030
3030
3060
6060
6060
6060
60E0
C0C0
C1C0
E3C0
7EC0
3CC0
ENDCHAR
STARTCHAR afii10075
ENCODING 1081
SWIDTH 577 0
DWIDTH 14 0
BBX 12 19 1 0
BITMAP
0C30
0C30
0EE0
07C0
0000
0000
3030
3030
3030
3060
6060
6060
6060
60E0
C0C0
C1C0
E3C0
7EC0
3CC0
ENDCHAR
STARTCHAR afii10076
ENCODING 1082
SWIDTH 477 0
DWIDTH 11 0
BBX 11 13 1 0
BITMAP
3060
30C0
3180
3300
6600
6C00
7800
6C00
6E00
C600
C300
C380
C180
ENDCHAR
STARTCHAR afii10077
ENCODING 1083
SWIDTH 537 0
DWIDTH 13 0
BBX 13 13 -1 0
BITMAP
00F8
03F8
0318
0610
0630
0E30
0C30
0C30
1860
1860
3860
F060
E060
ENDCHAR
STARTCHAR afii10078
ENCODING 1084
SWIDTH 689 0
DWIDTH 17 0
BBX 15 13 1 0
BITMAP
380E
380E
381C
283C
682C
686C
6C48
6CC8
4C98
C598
C718
C610
C630
ENDCHAR
STARTCHAR afii10079
ENCODING 1085
SWIDTH 599 0
DWIDTH 14 0
BBX 13 13 1 0
BITMAP
3018
3030
3030
3030
6030
7FE0
7FE0
6060
6060
C060
C0C0
C0C0
C0C0
ENDCHAR
STARTCHAR afii10080
ENCODING 1086
SWIDTH 561 0
DWIDTH 13 0
BBX 11 13 1 0
BITMAP
0F80
1FC0
38E0
7060
6060
E060
C060
C060
C060
C0C0
61C0
7F80
3E00
ENDCHAR
STARTCHAR afii10081
ENCODING 1087
SWIDTH 577 0
DWIDTH 14 0
BBX 11 13 1 0
BITMAP
33C0
37E0
3C60
3820
7060
7060
6060
6060
6060
C0C0
C0C0
C0C0
C0C0
ENDCHAR
STARTCHAR afii10082
ENCODING 1088
SWIDTH 577 0
DWIDTH 14 0
BBX 13 19 0 -6
BITMAP
19E0
1BF0
1E30
1C18
3818
3018
3030
3030
3030
7070
78E0
7FC0
6F80
6000
C000
C000
C000
C000
C000
ENDCHAR
STARTCHAR afii10083
ENCODING 1089
SWIDTH 450 0
DWIDTH 11 0
BBX 10 13 1 0
BITMAP
0F80
1FC0
3800
7000
6000
E000
C000
C000
C000
C000
6100
7F00
3E00
ENDCHAR
STARTCHAR afii10084
ENCODING 1090
SWIDTH 872 0
DWIDTH 21 0
BBX 19 13 1 0
BITMAP
33C380
37EFC0
3C78E0
387060
7060C0
7060C0
6060C0
60C0C0
60C0C0
C0C180
C0C180
C18180
C18180
ENDCHAR
STARTCHAR afii10085
ENCODING 1091
SWIDTH 461 0
DWIDTH 11 0
BBX 14 19 -2 -6
BITMAP
180C
1818
0818
0C30
0C30
0C60
0C60
0CC0
0CC0
0580
0580
0700
0700
0600
0E00
0C00
1800
F800
E000
ENDCHAR
STARTCHAR afii10086
ENCODING 1092
SWIDTH 663 0
DWIDTH 16 0
BBX 14 24 1 -6
BITMAP
00C0
00C0
00C0
00C0
0080
07E0
1FF0
39B8
719C
610C
C30C
C30C
C31C
C218
E638
7670
7FE0
1F80
0400
0C00
0C00
0C00
0C00
0800
ENDCHAR
STARTCHAR afii10087
ENCODING 1093
SWIDTH 478 0
DWIDTH 11 0
BBX 12 13 0 0
BITMAP
3070
1860
18C0
1980
0F00
0E00
0600
0E00
1B00
3300
6180
E180
C180
ENDCHAR
STARTCHAR afii10088
ENCODING 1094
SWIDTH 595 0
DWIDTH 14 0
BBX 12 17 1 -4
BITMAP
3030
3030
3030
3060
6060
6060
6060
60C0
C0C0
C1C0
E3C0
7EF0
3C60
0060
0060
0060
0060
ENDCHAR
STARTCHAR afii10089
ENCODING 1095
SWIDTH 555 0
DWIDTH 13 0
BBX 10 13 2 0
BITMAP
6040
C0C0
C0C0
C0C0
C1C0
C180
C780
FD80
7980
0180
0300
0300
0300
ENDCHAR
STARTCHAR afii10090
ENCODING 1096
SWIDTH 872 0
DWIDTH 21 0
BBX 19 13 1 0
BITMAP
303060
306060
306060
3060C0
6060C0
6060C0
60C0C0
60C1C0
C1C180
C1C380
E3C780
7EFD80
787980
ENDCHAR
STARTCHAR afii10091
ENCODING 1097
SWIDTH 890 0
DWIDTH 21 0
BBX 19 17 1 -4
BITMAP
303060
306060
306060
3060C0
6060C0
6060C0
60C0C0
60C1C0
C1C180
C1C380
E3C780
7EFDE0
7878E0
0000C0
0000C0
0000C0
0000C0
ENDCHAR
STARTCHAR afii10092
ENCODING 1098
SWIDTH 591 0
DWIDTH 14 0
BBX 12 13 1 0
BITMAP
FC00
FC00
0C00
0C00
1800
1FC0
1FE0
1870
1830
1830
1860
1FE0
0F80
ENDCHAR
STARTCHAR afii10093
ENCODING 1099
SWIDTH 721 0
DWIDTH 17 0
BBX 14 13 2 0
BITMAP
600C
600C
600C
600C
C00C
FE18
FF18
C318
C198
8318
C330
FF30
7C30
ENDCHAR
STARTCHAR afii10094
ENCODING 1100
SWIDTH 519 0
DWIDTH 12 0
BBX 9 13 2 0
BITMAP
6000
6000
6000
6000
C000
FE00
FF00
C380
C180
8180
C380
FF00
7C00
ENDCHAR
STARTCHAR afii10095
ENCODING 1101
SWIDTH 456 0
DWIDTH 11 0
BBX 10 13 0 0
BITMAP
3E00
3F80
0180
00C0
00C0
3FC0
3FC0
01C0
0180
0380
8700
FE00
7C00
ENDCHAR
STARTCHAR afii10096
ENCODING 1102
SWIDTH 780 0
DWIDTH 19 0
BBX 17 13 1 0
BITMAP
303C00
30FF00
31C300
318300
638180
7F0380
7F0300
630300
630300
C30700
C38E00
C1FC00
C0F800
ENDCHAR
STARTCHAR afii10097
ENCODING 1103
SWIDTH 526 0
DWIDTH 13 0
BBX 13 13 -1 0
BITMAP
07F8
0FF8
1C30
1830
1830
1C30
0FF0
07E0
1C60
1860
3860
F040
E0C0
ENDCHAR
STARTCHAR uni0450
ENCODING 1104
SWIDTH 493 0
DWIDTH 12 0
BBX 10 19 1 0
BITMAP
0C00
0C00
0600
0200
0000
0000
0F80
1FC0
38C0
70C0
60C0
6380
FF00
FE00
C000
C000
6080
7F80
3E00
ENDCHAR
STARTCHAR afii10071
ENCODING 1105
SWIDTH 493 0
DWIDTH 12 0
BBX 10 17 1 0
BITMAP
0CC0
0CC0
0000
0000
0F80
1FC0
38C0
70C0
60C0
6380
FF00
FE00
C000
C000
6080
7F80
3E00
ENDCHAR
STARTCHAR afii10099
ENCODING 1106
SWIDTH 577 0
DWIDTH 14 0
BBX 11 24 1 -6
BITMAP
1800
1800
7F80
7F80
1800
3000
33C0
37E0
3C60
3860
7060
6060
6060
6060
C0C0
C0C0
C0C0
C0C0
01C0
0180
0180
0380
0F00
0E00
ENDCHAR
STARTCHAR afii10100
ENCODING 1107
SWIDTH 457 0
DWIDTH 11 0
BBX 10 19 1 0
BITMAP
00C0
0180
0300
0600
0000
0000
1F00
7F80
2180
0180
0380
0F00
3C00
7000
C000
C000
C100
FF00
7E00
ENDCHAR
STARTCHAR afii10101
ENCODING 1108
SWIDTH 450 0
DWIDTH 11 0
BBX 10 13 1 0
BITMAP
0F80
1FC0
3800
7000
6000
7F00
FF00
C000
C000
C000
6100
7F00
3E00
ENDCHAR
STARTCHAR afii10102
ENCODING 1109
SWIDTH 428 0
DWIDTH 10 0
BBX 10 13 0 0
BITMAP
0F80
3FC0
3080
3000
3000
3800
1E00
0700
0380
0180
8300
FF00
7C00
ENDCHAR
STARTCHAR afii10103
ENCODING 1110
SWIDTH 253 0
DWIDTH 6 0
BBX 5 18 1 0
BITMAP
18
18
00
00
00
30
30
30
30
60
60
60
60
60
C0
C0
C0
C0
ENDCHAR
STARTCHAR afii10104
ENCODING 1111
SWIDTH 253 0
DWIDTH 6 0
BBX 7 17 1 0
BITMAP
66
66
00
00
30
30
30
30
60
60
60
60
60
C0
C0
C0
C0
ENDCHAR
STARTCHAR afii10105
ENCODING 1112
SWIDTH 253 0
DWIDTH 6 0
BBX 9 24 -3 -6
BITMAP
0180
0180
0000
0000
0000
0300
0300
0300
0300
0600
0600
0600
0600
0600
0C00
0C00
0C00
0C00
0C00
1800
1800
3800
F000
E000
ENDCHAR
STARTCHAR afii10106
ENCODING 1113
SWIDTH 762 0
DWIDTH 18 0
BBX 18 13 -1 0
BITMAP
01F000
03F000
033000
063000
063000
0E6F00
0C7F80
0C61C0
1860C0
1860C0
386180
F07F80
E03F00
ENDCHAR
STARTCHAR afii10107
ENCODING 1114
SWIDTH 812 0
DWIDTH 19 0
BBX 17 13 1 0
BITMAP
303000
306000
306000
306000
606000
7FFE00
7FFF00
60C180
60C180
C0C180
C0C380
C0FF00
C03E00
ENDCHAR
STARTCHAR afii10108
ENCODING 1115
SWIDTH 577 0
DWIDTH 14 0
BBX 11 18 1 0
BITMAP
1800
1800
7F80
7F80
1800
33C0
37E0
3C60
3860
3060
7060
6060
6060
6040
C0C0
C0C0
C0C0
C0C0
ENDCHAR
STARTCHAR afii10109
ENCODING 1116
SWIDTH 477 0
DWIDTH 11 0
BBX 11 19 1 0
BITMAP
00E0
00C0
0180
0300
0000
0000
3060
30C0
3180
3300
6600
6C00
7800
6C00
6E00
C600
C300
C380
C180
ENDCHAR
STARTCHAR uni045D
ENCODING 1117
SWIDTH 577 0
DWIDTH 14 0
BBX 12 19 1 0
BITMAP
0600
0600
0300
0100
0000
0000
3030
3030
3030
3060
6060
6060
6060
60E0
C0C0
C1C0
E3C0
7EC0
3CC0
ENDCHAR
STARTCHAR afii10110
ENCODING 1118
SWIDTH 461 0
DWIDTH 11 0
BBX 14 25 -2 -6
BITMAP
060C
0618
03F8
01F0
0000
0000
180C
1818
0818
0C30
0C30
0C60
0C60
0CC0
0CC0
0580
0580
0700
0700
0600
0E00
0C00
1800
F800
E000
ENDCHAR
STARTCHAR afii10193
ENCODING 1119
SWIDTH 577 0
DWIDTH 14 0
BBX 12 19 1 -6
BITMAP
3030
3030
3030
3060
6060
6060
6060
60E0
C0C0
C1C0
E3C0
7EC0
3CC0
0000
0C00
1800
1800
1800
1800
ENDCHAR
STARTCHAR uni0460
ENCODING 1120
SWIDTH 953 0
DWIDTH 23 0
BBX 20 17 2 0
BITMAP
0783C0
1FC7E0
384470
300030
700030
600030
600030
C00030
C00030
C06060
C0C060
C0C060
C0C0C0
C1C1C0
E1E380
7F7F00
3E3E00
ENDCHAR
STARTCHAR uni0461
ENCODING 1121
SWIDTH 717 0
DWIDTH 17 0
BBX 17 13 1 0
BITMAP
C30180
C18300
418300
618300
618600
618600
638600
638C00
678C00
649800
6CB000
38E000
30E000
ENDCHAR
STARTCHAR uni0462
ENCODING 1122
SWIDTH 619 0
DWIDTH 15 0
BBX 11 18 2 0
BITMAP
0C00
0C00
0C00
FFC0
FFC0
1800
1800
1800
1F80
3FE0
30E0
3060
3060
3060
6060
61C0
7FC0
7F00
ENDCHAR
STARTCHAR uni0463
ENCODING 1123
SWIDTH 551 0
DWIDTH 13 0
BBX 11 16 1 0
BITMAP
0C00
1800
1800
FF00
FF00
1800
3000
3000
3F80
3FC0
60E0
6060
6060
70C0
3FC0
1F00
ENDCHAR
STARTCHAR uni0464
ENCODING 1124
SWIDTH 860 0
DWIDTH 21 0
BBX 21 17 1 0
BITMAP
0C03F0
180FF8
183C10
183000
186000
30E000
30C000
3FFF80
3FFF80
31C000
61C000
61C000
60C000
60C000
60F040
C07FC0
C01F80
ENDCHAR
STARTCHAR uni0465
ENCODING 1125
SWIDTH 687 0
DWIDTH 16 0
BBX 15 13 1 0
BITMAP
303E
30FE
31C0
3180
6380
7FFC
7FF8
6300
6300
C300
C384
C1FC
C0F8
ENDCHAR
STARTCHAR uni0466
ENCODING 1126
SWIDTH 601 0
DWIDTH 14 0
BBX 14 17 -1 0
BITMAP
0060
0070
00F0
00F0
01B0
0330
0318
07F8
07F8
0CD8
1C98
1998
318C
318C
618C
E30C
C30C
ENDCHAR
STARTCHAR uni0467
ENCODING 1127
SWIDTH 528 0
DWIDTH 13 0
BBX 12 13 -1 0
BITMAP
01C0
01C0
0340
0660
0660
0FE0
0FE0
1B60
1360
3330
6230
6630
C630
ENDCHAR
STARTCHAR uni0468
ENCODING 1128
SWIDTH 840 0
DWIDTH 20 0
BBX 18 17 1 0
BITMAP
0C0600
180600
180F00
181B00
181B00
303300
306300
3FFF00
3FFF80
30D980
619980
619980
631980
671080
6630C0
CC30C0
CC30C0
ENDCHAR
STARTCHAR uni0469
ENCODING 1129
SWIDTH 721 0
DWIDTH 17 0
BBX 15 13 1 0
BITMAP
3038
3078
30D8
30D8
6188
7FF8
7FFC
636C
664C
CECC
CCCC
D8C4
D8C6
ENDCHAR
STARTCHAR uni046A
ENCODING 1130
SWIDTH 660 0
DWIDTH 16 0
BBX 17 17 -1 0
BITMAP
07FF80
07FF80
060300
030600
030C00
019800
00F000
03FC00
0FFC00
0CCE00
18C600
18C600
30C600
318600
618600
618600
C18600
ENDCHAR
STARTCHAR uni046B
ENCODING 1131
SWIDTH 603 0
DWIDTH 14 0
BBX 15 13 -1 0
BITMAP
0FFE
0FFE
0418
0630
0360
07F0
1FF8
3998
3198
7118
630C
E30C
C30C
ENDCHAR
STARTCHAR uni046C
ENCODING 1132
SWIDTH 915 0
DWIDTH 22 0
BBX 21 17 1 0
BITMAP
0C7FF8
187FF8
186030
183060
1830C0
301980
301F00
3FFF80
3FFFC0
30CCE0
618C60
618C60
630C60
631860
661860
C61860
CC1860
ENDCHAR
STARTCHAR uni046D
ENCODING 1133
SWIDTH 800 0
DWIDTH 19 0
BBX 18 13 1 0
BITMAP
31FFC0
31FFC0
318300
30C600
606C00
7FF800
7FFE00
633300
663300
CE6300
CC6300
DC6180
D86180
ENDCHAR
STARTCHAR uni046E
ENCODING 1134
SWIDTH 532 0
DWIDTH 13 0
BBX 13 24 -1 -4
BITMAP
0318
01B8
00E0
03F0
0FF8
0C18
0018
0018
0018
0030
0FE0
0FE0
0070
0030
0030
0030
0030
00F0
1FE0
7F00
E000
C000
FFC0
7FC0
ENDCHAR
STARTCHAR uni046F
ENCODING 1135
SWIDTH 446 0
DWIDTH 11 0
BBX 12 21 -1 -5
BITMAP
0470
06F0
03C0
0FC0
1FE0
0860
0060
0060
00C0
0F80
0F80
00C0
00C0
00C0
01C0
3F80
7E00
C000
C000
FF80
7F80
ENDCHAR
STARTCHAR uni0470
ENCODING 1136
SWIDTH 734 0
DWIDTH 18 0
BBX 17 17 2 0
BITMAP
70C180
60C300
60C300
618300
618300
E18700
C18600
C18600
E30E00
731C00
7FF800
1FE000
030000
060000
060000
060000
060000
ENDCHAR
STARTCHAR uni0471
ENCODING 1137
SWIDTH 713 0
DWIDTH 17 0
BBX 14 24 2 -6
BITMAP
00C0
00C0
0080
0180
0180
618C
618C
630C
C30C
C30C
C30C
C21C
C618
C618
C630
E6F0
7FE0
3F80
0C00
0C00
0C00
1800
1800
1800
ENDCHAR
STARTCHAR uni0472
ENCODING 1138
SWIDTH 720 0
DWIDTH 17 0
BBX 15 17 2 0
BITMAP
03E0
0FF8
1C38
381C
700C
600C
E00E
C00C
FFFC
FFFC
C00C
C00C
C018
E038
7070
3FE0
1F80
ENDCHAR
STARTCHAR uni0473
ENCODING 1139
SWIDTH 561 0
DWIDTH 13 0
BBX 11 13 1 0
BITMAP
0F80
1FC0
38E0
6060
6060
FFE0
FFE0
C060
C0E0
C0C0
61C0
7F80
1E00
ENDCHAR
STARTCHAR uni0474
ENCODING 1140
SWIDTH 559 0
DWIDTH 13 0
BBX 14 17 2 0
BITMAP
C01C
C03C
C070
6060
60E0
60C0
61C0
6180
6380
6300
6700
6600
2E00
3C00
3C00
3800
3800
ENDCHAR
STARTCHAR uni0475
ENCODING 1141
SWIDTH 439 0
DWIDTH 11 0
BBX 11 13 1 0
BITMAP
C060
C0E0
C1C0
4180
6300
6300
6700
6600
6E00
6C00
6C00
7800
3800
ENDCHAR
STARTCHAR uni0476
ENCODING 1142
SWIDTH 559 0
DWIDTH 13 0
BBX 14 23 2 0
BITMAP
3300
3300
1980
0880
0000
0000
C01C
C03C
C070
6060
60E0
60C0
61C0
6180
6380
6300
6700
6600
2E00
3C00
3C00
3800
3800
ENDCHAR
STARTCHAR uni0477
ENCODING 1143
SWIDTH 439 0
DWIDTH 11 0
BBX 11 19 1 0
BITMAP
6600
6600
3300
1100
0000
0000
C060
C0E0
C1C0
4180
6300
6300
6700
6600
6E00
6C00
6C00
7800
3800
ENDCHAR
STARTCHAR uni0478
ENCODING 1144
SWIDTH 1184 0
DWIDTH 28 0
BBX 27 23 2 -6
BITMAP
03E00000
0FF80000
1C380000
300C0000
700C6060
600C6060
E00E60C0
C00C60C0
C00C6180
C00C6180
C00C6300
C01C2300
C0183600
E0383600
70F03C00
3FE03800
1F803800
00003000
00003000
00006000
0000E000
0007C000
00078000
ENDCHAR
STARTCHAR uni0479
ENCODING 1145
SWIDTH 1003 0
DWIDTH 24 0
BBX 24 19 1 -6
BITMAP
0F8603
1FC606
38E206
70630C
60630C
E06318
C06318
C06330
C06330
C0C160
61C160
7F81C0
3E01C0
000180
000380
000300
000600
003E00
003800
ENDCHAR
STARTCHAR uni047A
ENCODING 1146
SWIDTH 738 0
DWIDTH 18 0
BBX 15 20 2 -2
BITMAP
00C0
07F0
0FF8
3DDC
300C
6006
6006
E006
C006
C006
C006
C00E
C00C
C01C
E038
7070
7FE0
1FC0
0E00
0600
ENDCHAR
STARTCHAR uni047B
ENCODING 1147
SWIDTH 578 0
DWIDTH 14 0
BBX 12 15 1 -1
BITMAP
0300
0FC0
1FE0
3A60
7070
6030
E030
C030
C060
C060
C0E0
65C0
7F80
3F00
0C00
ENDCHAR
STARTCHAR uni047C
ENCODING 1148
SWIDTH 953 0
DWIDTH 23 0
BBX 20 24 2 0
BITMAP
007F80
006780
001800
000C00
000800
001000
000000
0783C0
1FC7E0
384470
300030
700030
600030
600030
C00030
C00030
C00060
C00060
C000E0
C000C0
C001C0
E1C380
7FFF00
3E7E00
ENDCHAR
STARTCHAR uni047D
ENCODING 1149
SWIDTH 758 0
DWIDTH 18 0
BBX 16 20 1 0
BITMAP
01F8
033E
0060
0060
0020
0040
0000
0F1E
3F3E
3123
6003
6003
E003
C003
C003
C006
C006
E10C
7FFC
3FF0
ENDCHAR
STARTCHAR uni047E
ENCODING 1150
SWIDTH 953 0
DWIDTH 23 0
BBX 20 21 2 0
BITMAP
01FF80
011100
000000
000000
0783C0
1FC7E0
384470
300030
700030
600030
600030
C00030
C00030
C06060
C0C060
C0C060
C0C0C0
C1C1C0
E1E380
7F7F00
3E3E00
ENDCHAR
STARTCHAR uni047F
ENCODING 1151
SWIDTH 717 0
DWIDTH 17 0
BBX 17 17 1 0
BITMAP
0FF800
088800
000000
000000
C30180
C18300
418300
618300
618600
618600
638600
638C00
678C00
649800
6CB000
38E000
30E000
ENDCHAR
STARTCHAR uni0480
ENCODING 1152
SWIDTH 584 0
DWIDTH 14 0
BBX 13 23 2 -6
BITMAP
03F0
0FF8
1C00
3800
7000
6000
E000
C000
C000
C000
C000
C000
C000
E000
7000
3F00
1E00
0600
0600
0600
0600
0E00
0C00
ENDCHAR
STARTCHAR uni0481
ENCODING 1153
SWIDTH 450 0
DWIDTH 11 0
BBX 10 19 1 -6
BITMAP
0F80
1FC0
3800
7000
6000
6000
C000
C000
C000
C000
6000
7E00
3E00
0600
0600
0C00
0C00
0C00
0C00
ENDCHAR
STARTCHAR uni0482
ENCODING 1154
SWIDTH 608 0
DWIDTH 15 0
BBX 13 15 1 0
BITMAP
0020
0060
0CC0
0FC0
0380
01E0
0378
4610
F600
3C00
0E00
1F80
1980
3000
2000
ENDCHAR
STARTCHAR uni0483
ENCODING 1155
SWIDTH 560 0
DWIDTH 13 0
BBX 9 3 4 14
BITMAP
0180
FF80
C000
ENDCHAR
STARTCHAR uni0484
ENCODING 1156
SWIDTH 580 0
DWIDTH 14 0
BBX 9 3 4 15
BITMAP
0700
7D80
E080
ENDCHAR
STARTCHAR uni0485
ENCODING 1157
SWIDTH 580 0
DWIDTH 14 0
BBX 3 4 7 15
BITMAP
60
C0
40
20
ENDCHAR
STARTCHAR uni0486
ENCODING 1158
SWIDTH 580 0
DWIDTH 14 0
BBX 2 4 8 15
BITMAP
C0
C0
40
80
ENDCHAR
STARTCHAR uni0488
ENCODING 1160
SWIDTH 988 0
DWIDTH 24 0
BBX 22 21 1 -4
BITMAP
007000
00C800
000000
3C00E0
240110
000000
000000
000000
000000
F00038
900064
000000
000000
000000
000000
3C00E0
240110
000000
000000
007800
008800
ENDCHAR
STARTCHAR uni0489
ENCODING 1161
SWIDTH 956 0
DWIDTH 23 0
BBX 22 22 0 -5
BITMAP
001800
001000
001000
083000
0C0030
0600E0
040080
000000
000000
000000
F00038
38001C
000000
000000
000000
000040
0200C0
0E0040
181860
001020
001000
003000
ENDCHAR
STARTCHAR uni048A
ENCODING 1162
SWIDTH 703 0
DWIDTH 17 0
BBX 16 26 1 -4
BITMAP
030C
030C
03F8
01F0
0000
0807
180F
180E
181E
1836
3066
30C4
30CC
318C
330C
660C
6618
6C18
7818
7018
F01C
E03C
0008
0018
0030
0030
ENDCHAR
STARTCHAR uni048B
ENCODING 1163
SWIDTH 579 0
DWIDTH 14 0
BBX 12 23 1 -4
BITMAP
0C30
0C30
0EE0
07C0
0000
0000
3030
3030
3030
3060
6060
6060
6060
60E0
C0C0
C1C0
E3C0
7EE0
3CE0
0060
00C0
00C0
0180
ENDCHAR
STARTCHAR uni048C
ENCODING 1164
SWIDTH 553 0
DWIDTH 13 0
BBX 11 17 1 0
BITMAP
0C00
1800
7F80
7F00
1800
3000
3000
3F80
3FC0
30E0
6060
6060
6060
60C0
41C0
FF80
FE00
ENDCHAR
STARTCHAR uni048D
ENCODING 1165
SWIDTH 519 0
DWIDTH 12 0
BBX 10 18 1 0
BITMAP
1800
1800
1800
7F00
7F00
3000
3000
3000
3000
6000
7F00
7F80
61C0
40C0
C0C0
6180
7F80
3E00
ENDCHAR
STARTCHAR uni048E
ENCODING 1166
SWIDTH 565 0
DWIDTH 14 0
BBX 13 17 1 0
BITMAP
0FC0
1FF0
1870
1838
1818
3838
3130
31F0
31E0
3FC0
7EC0
6040
6000
6000
6000
C000
C000
ENDCHAR
STARTCHAR uni048F
ENCODING 1167
SWIDTH 577 0
DWIDTH 14 0
BBX 13 19 0 -6
BITMAP
19E0
1BF0
1E30
1C18
3818
3018
3038
3030
3030
7370
7B60
7FC0
6780
60C0
C0C0
C000
C000
C000
C000
ENDCHAR
STARTCHAR afii10050
ENCODING 1168
SWIDTH 476 0
DWIDTH 11 0
BBX 13 21 1 0
BITMAP
0018
0018
0010
0030
0FF0
1FF0
1800
1800
1800
3800
3000
3000
3000
3000
6000
6000
6000
6000
6000
C000
C000
ENDCHAR
STARTCHAR afii10098
ENCODING 1169
SWIDTH 382 0
DWIDTH 9 0
BBX 10 17 1 0
BITMAP
00C0
00C0
0180
0180
3F80
3F80
3000
3000
7000
6000
6000
6000
6000
C000
C000
C000
C000
ENDCHAR
STARTCHAR uni0492
ENCODING 1170
SWIDTH 471 0
DWIDTH 11 0
BBX 12 17 1 0
BITMAP
0FF0
1FF0
1800
1800
1800
3800
3000
3000
FF00
FF00
7000
6000
6000
6000
6000
C000
C000
ENDCHAR
STARTCHAR uni0493
ENCODING 1171
SWIDTH 382 0
DWIDTH 9 0
BBX 10 13 0 0
BITMAP
1FC0
1FC0
1800
1800
1800
3000
FE00
FE00
3000
3000
6000
6000
6000
ENDCHAR
STARTCHAR uni0494
ENCODING 1172
SWIDTH 603 0
DWIDTH 14 0
BBX 12 23 1 -6
BITMAP
0FF0
1FF0
1800
1800
1800
3800
3000
3000
3F00
3FC0
71E0
6060
6060
6060
6060
C060
C060
0060
00E0
01C0
0380
7F00
7E00
ENDCHAR
STARTCHAR uni0495
ENCODING 1173
SWIDTH 491 0
DWIDTH 12 0
BBX 9 19 1 -6
BITMAP
3F80
3F80
3000
3000
6000
7E00
7F00
6380
6180
C180
C180
C180
C180
0180
0380
0300
0700
7E00
7800
ENDCHAR
STARTCHAR uni0496
ENCODING 1174
SWIDTH 821 0
DWIDTH 20 0
BBX 21 21 -1 -4
BITMAP
0C0C18
0E1830
061870
0718E0
0319C0
039380
01B700
00FE00
01FC00
01BC00
036600
066600
0C6300
186380
386180
70C1E0
E0C0E0
000060
000060
000060
0000C0
ENDCHAR
STARTCHAR uni0497
ENCODING 1175
SWIDTH 837 0
DWIDTH 20 0
BBX 21 17 0 -4
BITMAP
383078
3E31F0
063380
063300
062700
066600
07FE00
07FE00
066600
0E4600
1CC700
F8C7E0
E0C1C0
0000C0
0000C0
0000C0
0000C0
ENDCHAR
STARTCHAR uni0498
ENCODING 1176
SWIDTH 532 0
DWIDTH 13 0
BBX 12 22 0 -5
BITMAP
07E0
1FF0
1830
0030
0030
0030
0060
1FC0
1FC0
00E0
0060
0060
0060
0060
C1E0
FFC0
7F00
0400
0400
0400
0C00
3800
ENDCHAR
STARTCHAR uni0499
ENCODING 1177
SWIDTH 436 0
DWIDTH 10 0
BBX 10 18 0 -5
BITMAP
1F00
3FC0
21C0
00C0
0180
1F00
1F00
0180
0180
0180
8380
FF00
7C00
0800
0800
0800
1800
7000
ENDCHAR
STARTCHAR uni049A
ENCODING 1178
SWIDTH 600 0
DWIDTH 14 0
BBX 14 21 1 -4
BITMAP
1C0C
1818
1830
1860
18C0
3180
3300
3600
3C00
3E00
6600
6300
6380
6180
60C0
C0F0
C070
0030
0020
0060
0060
ENDCHAR
STARTCHAR uni049B
ENCODING 1179
SWIDTH 520 0
DWIDTH 13 0
BBX 11 17 1 -4
BITMAP
3060
30C0
3180
3300
6600
6C00
7800
6C00
6E00
C600
C300
C3C0
C1C0
00C0
00C0
0080
0180
ENDCHAR
STARTCHAR uni049C
ENCODING 1180
SWIDTH 559 0
DWIDTH 13 0
BBX 14 17 1 0
BITMAP
1C0C
1818
1830
1B60
1AC0
3380
3700
3600
3E00
3700
6700
6F80
6D80
6180
60C0
C0C0
C060
ENDCHAR
STARTCHAR uni049D
ENCODING 1181
SWIDTH 475 0
DWIDTH 11 0
BBX 11 13 1 0
BITMAP
3060
36C0
3580
3700
6E00
6C00
7800
6C00
6C00
DE00
DF00
DB00
C180
ENDCHAR
STARTCHAR uni049E
ENCODING 1182
SWIDTH 557 0
DWIDTH 13 0
BBX 14 17 1 0
BITMAP
0C0C
1818
7E30
7E60
18C0
3180
3300
3600
3E00
3300
6300
6180
6180
61C0
60C0
C0C0
C060
ENDCHAR
STARTCHAR uni049F
ENCODING 1183
SWIDTH 478 0
DWIDTH 11 0
BBX 11 18 1 0
BITMAP
1800
1800
7F00
7F00
1800
3060
30C0
3180
3300
2600
6C00
7C00
7600
6600
C300
C300
C380
C180
ENDCHAR
STARTCHAR uni04A0
ENCODING 1184
SWIDTH 631 0
DWIDTH 15 0
BBX 15 17 2 0
BITMAP
FC0E
FC1C
0C38
0C70
18E0
19C0
1B80
1F00
1E00
3600
3300
3380
3180
30C0
60E0
6060
6030
ENDCHAR
STARTCHAR uni04A1
ENCODING 1185
SWIDTH 560 0
DWIDTH 13 0
BBX 13 13 1 0
BITMAP
FC18
FC30
0C60
0CC0
1980
1B00
1E00
1B00
1B00
3180
30C0
30C0
3060
ENDCHAR
STARTCHAR uni04A2
ENCODING 1186
SWIDTH 676 0
DWIDTH 16 0
BBX 15 21 1 -4
BITMAP
0C06
1806
1806
1806
180C
300C
300C
3FFC
3FFC
3018
6018
6018
6018
6030
6030
C03C
C03C
0008
0018
0018
0018
ENDCHAR
STARTCHAR uni04A3
ENCODING 1187
SWIDTH 599 0
DWIDTH 14 0
BBX 13 17 1 -4
BITMAP
3018
3030
3030
3030
6030
7FE0
7FE0
6060
6060
C060
C0C0
C0F0
C0F0
0060
0060
0060
0060
ENDCHAR
STARTCHAR uni04A4
ENCODING 1188
SWIDTH 754 0
DWIDTH 18 0
BBX 19 17 1 0
BITMAP
0C07E0
1807E0
180600
180600
180C00
300C00
300C00
3FFC00
3FFC00
301800
601800
601800
601800
603000
603000
C03000
C03000
ENDCHAR
STARTCHAR uni04A5
ENCODING 1189
SWIDTH 687 0
DWIDTH 17 0
BBX 17 13 1 0
BITMAP
301F80
303F00
303000
303000
603000
7FF000
7FE000
606000
606000
C06000
C0C000
C0C000
C0C000
ENDCHAR
STARTCHAR uni04A6
ENCODING 1190
SWIDTH 996 0
DWIDTH 24 0
BBX 21 23 1 -6
BITMAP
0FFE00
1FFE00
180600
180C00
180C00
300C00
300C00
301C00
301FC0
301FE0
601870
601830
603818
603018
603018
C03018
C03018
000030
000030
000070
0001E0
003FC0
003F00
ENDCHAR
STARTCHAR uni04A7
ENCODING 1191
SWIDTH 817 0
DWIDTH 20 0
BBX 17 19 1 -6
BITMAP
3FF000
3FF000
303000
306000
606000
607E00
607F00
606300
60C180
C0C180
C0C180
C0C180
C0C180
000180
000300
000300
008E00
00FE00
007800
ENDCHAR
STARTCHAR uni04A8
ENCODING 1192
SWIDTH 720 0
DWIDTH 17 0
BBX 14 18 2 -1
BITMAP
03E0
0FE0
1C00
3078
70FC
61CC
C18C
C38C
C30C
C30C
C30C
C31C
C318
E338
71F0
3FC0
1FF8
0078
ENDCHAR
STARTCHAR uni04A9
ENCODING 1193
SWIDTH 599 0
DWIDTH 14 0
BBX 12 13 1 0
BITMAP
0F80
1F00
3800
61E0
63F0
C330
C730
C630
C630
E660
67E0
7FE0
1FE0
ENDCHAR
STARTCHAR uni04AA
ENCODING 1194
SWIDTH 584 0
DWIDTH 14 0
BBX 13 22 2 -5
BITMAP
03F0
0FF8
1C00
3800
7000
6000
E000
C000
C000
C000
C000
C000
C000
E000
7040
3FC0
1F80
0400
0600
0600
0E00
1C00
ENDCHAR
STARTCHAR uni04AB
ENCODING 1195
SWIDTH 450 0
DWIDTH 11 0
BBX 10 18 1 -5
BITMAP
0F80
1FC0
3800
7000
6000
E000
C000
C000
C000
C000
6100
7F00
3E00
0800
0C00
0C00
1800
7800
ENDCHAR
STARTCHAR uni04AC
ENCODING 1196
SWIDTH 498 0
DWIDTH 12 0
BBX 12 21 2 -4
BITMAP
FFF0
FFF0
0600
0600
0C00
0C00
0C00
0C00
0C00
1800
1800
1800
1800
3000
3000
3C00
3C00
0800
1800
1800
1800
ENDCHAR
STARTCHAR uni04AD
ENCODING 1197
SWIDTH 884 0
DWIDTH 21 0
BBX 19 17 1 -4
BITMAP
33C380
37EFC0
3C78E0
387060
7060C0
7060C0
6060C0
60C0C0
60C0C0
C0C180
C0C180
C181E0
C180E0
000060
0000C0
0000C0
0000C0
ENDCHAR
STARTCHAR uni04AE
ENCODING 1198
SWIDTH 502 0
DWIDTH 12 0
BBX 12 17 2 0
BITMAP
C030
6060
60E0
60C0
6180
3380
3300
3600
3C00
1C00
1800
1800
1800
3000
3000
3000
3000
ENDCHAR
STARTCHAR uni04AF
ENCODING 1199
SWIDTH 461 0
DWIDTH 11 0
BBX 11 19 1 -6
BITMAP
C060
C0C0
C0C0
6180
6180
6300
6700
6600
6C00
6C00
3800
3800
3000
3000
3000
6000
6000
6000
6000
ENDCHAR
STARTCHAR uni04B0
ENCODING 1200
SWIDTH 502 0
DWIDTH 12 0
BBX 13 17 1 0
BITMAP
6018
3030
3070
3060
30C0
1980
1980
1B00
1E00
0E00
0C00
7F80
FF80
1800
1800
1800
1800
ENDCHAR
STARTCHAR uni04B1
ENCODING 1201
SWIDTH 461 0
DWIDTH 11 0
BBX 12 19 0 -6
BITMAP
6030
6060
6060
30C0
30C0
3180
3380
3300
3600
3600
1C00
1C00
1800
FF00
FF00
3000
3000
3000
3000
ENDCHAR
STARTCHAR uni04B2
ENCODING 1202
SWIDTH 568 0
DWIDTH 14 0
BBX 15 21 -1 -4
BITMAP
0C06
0C0C
0618
0638
0630
0360
03C0
0180
0380
03C0
06C0
0CC0
1860
3860
3060
6038
C038
0018
0018
0010
0030
ENDCHAR
STARTCHAR uni04B3
ENCODING 1203
SWIDTH 520 0
DWIDTH 13 0
BBX 12 17 0 -4
BITMAP
1830
1860
0CE0
0CC0
0580
0700
0700
0F00
0F00
1980
3180
60E0
C0E0
0060
0060
0040
00C0
ENDCHAR
STARTCHAR uni04B4
ENCODING 1204
SWIDTH 776 0
DWIDTH 19 0
BBX 17 21 2 -4
BITMAP
FFF180
FFF300
060300
060300
0C0300
0C0300
0C0600
0C0600
0C0600
180600
180C00
180C00
180C00
300C00
300C00
3FFE00
3FFE00
000600
000600
000400
000C00
ENDCHAR
STARTCHAR uni04B5
ENCODING 1205
SWIDTH 657 0
DWIDTH 16 0
BBX 14 17 1 -4
BITMAP
FFCC
FF8C
0C18
1818
1818
1818
1830
3030
3030
3070
30F0
3FB8
1E38
0018
0018
0018
0030
ENDCHAR
STARTCHAR uni04B6
ENCODING 1206
SWIDTH 636 0
DWIDTH 15 0
BBX 12 21 3 -4
BITMAP
6030
6030
6030
6030
C060
C060
C060
C060
C1E0
FFC0
7EC0
00C0
00C0
00C0
0180
01E0
01E0
0040
00C0
00C0
00C0
ENDCHAR
STARTCHAR uni04B7
ENCODING 1207
SWIDTH 543 0
DWIDTH 13 0
BBX 10 17 2 -4
BITMAP
6040
C0C0
C0C0
C0C0
C1C0
C180
C780
FD80
7980
0180
0300
03C0
03C0
0180
0180
0180
0180
ENDCHAR
STARTCHAR uni04B8
ENCODING 1208
SWIDTH 639 0
DWIDTH 15 0
BBX 12 17 3 0
BITMAP
6030
6030
6030
6030
C070
C660
C460
CC60
CDE0
FFC0
7EC0
08C0
18C0
18C0
0180
0180
0180
ENDCHAR
STARTCHAR uni04B9
ENCODING 1209
SWIDTH 554 0
DWIDTH 13 0
BBX 10 13 2 0
BITMAP
6040
C0C0
C0C0
CCC0
C9C0
C980
DB80
FF80
7980
1180
1300
0300
0300
ENDCHAR
STARTCHAR uni04BA
ENCODING 1210
SWIDTH 639 0
DWIDTH 15 0
BBX 13 17 1 0
BITMAP
1C00
1800
1800
1800
1800
3000
33E0
3FF0
3830
3018
6030
6030
6030
6030
6030
C060
C060
ENDCHAR
STARTCHAR uni04BB
ENCODING 1211
SWIDTH 576 0
DWIDTH 14 0
BBX 10 13 1 0
BITMAP
3000
3000
3000
3000
7000
6780
6FC0
78C0
70C0
E0C0
C0C0
C0C0
C0C0
ENDCHAR
STARTCHAR uni04BC
ENCODING 1212
SWIDTH 765 0
DWIDTH 18 0
BBX 16 17 2 0
BITMAP
007C
01FE
0787
0603
0C03
DC03
9807
981E
FFFC
FFE0
3000
3000
3000
3800
1C08
0FF8
07F0
ENDCHAR
STARTCHAR uni04BD
ENCODING 1213
SWIDTH 592 0
DWIDTH 14 0
BBX 13 13 1 0
BITMAP
01E0
07F0
0E30
CC18
DC30
D870
FFE0
7F80
1800
1800
1C20
1FE0
07C0
ENDCHAR
STARTCHAR uni04BE
ENCODING 1214
SWIDTH 765 0
DWIDTH 18 0
BBX 16 21 2 -4
BITMAP
007C
01FE
0787
0603
0C03
DC03
9807
981E
FFFC
FFE0
3000
3000
3000
3800
1C08
0FF8
07F0
0180
0180
0300
0300
ENDCHAR
STARTCHAR uni04BF
ENCODING 1215
SWIDTH 592 0
DWIDTH 14 0
BBX 13 17 1 -4
BITMAP
01E0
07F0
0E30
CC18
DC30
D870
FFE0
7F80
1800
1800
1C20
1FE0
07C0
0300
0600
0600
0600
ENDCHAR
STARTCHAR uni04C0
ENCODING 1216
SWIDTH 272 0
DWIDTH 7 0
BBX 6 17 1 0
BITMAP
0C
18
18
18
18
30
30
30
30
30
60
60
60
60
60
C0
C0
ENDCHAR
STARTCHAR uni04C1
ENCODING 1217
SWIDTH 775 0
DWIDTH 19 0
BBX 21 23 -1 0
BITMAP
0060C0
006180
003F80
001F00
000000
000000
0C0C18
0E1830
061870
0718E0
0319C0
039380
01B700
00FE00
01FC00
01BC00
036600
066600
0C6300
186380
386180
70C1C0
E0C0C0
ENDCHAR
STARTCHAR uni04C2
ENCODING 1218
SWIDTH 833 0
DWIDTH 20 0
BBX 21 19 0 0
BITMAP
00C300
00C300
00FE00
007C00
000000
000000
383078
3E31F0
063380
063300
062700
066600
07FE00
07FE00
066600
0E4600
1CC700
F8C7C0
E0C1C0
ENDCHAR
STARTCHAR uni04C3
ENCODING 1219
SWIDTH 628 0
DWIDTH 15 0
BBX 14 23 1 -6
BITMAP
0C0C
1818
1830
1860
18C0
3180
3300
3600
3F80
3FC0
60E0
6070
6030
6030
6030
C030
C030
0070
0060
00E0
41C0
7F80
3E00
ENDCHAR
STARTCHAR uni04C4
ENCODING 1220
SWIDTH 514 0
DWIDTH 12 0
BBX 11 19 1 -6
BITMAP
3060
30C0
3180
3300
6600
6C00
7E00
7F80
6380
E1C0
C0C0
C0C0
C0C0
0180
0180
0380
0700
7E00
7C00
ENDCHAR
STARTCHAR uni04C5
ENCODING 1221
SWIDTH 649 0
DWIDTH 16 0
BBX 16 21 -1 -4
BITMAP
00FF
00FF
01C3
0183
0183
0186
0306
0306
0306
0706
060C
060C
0E0C
0C0C
1C18
F81E
F01E
0004
000C
0018
0038
ENDCHAR
STARTCHAR uni04C6
ENCODING 1222
SWIDTH 536 0
DWIDTH 13 0
BBX 13 17 -1 -4
BITMAP
00F8
03F8
0318
0610
0630
0E30
0C30
0C30
1860
1860
3860
F070
E070
0030
0020
0060
00C0
ENDCHAR
STARTCHAR uni04C7
ENCODING 1223
SWIDTH 678 0
DWIDTH 16 0
BBX 15 23 1 -6
BITMAP
0C06
1806
1806
1806
180C
300C
300C
3FFC
3FFC
3018
6018
6018
6018
6038
6030
C030
C030
0070
0060
00E0
41C0
7F80
7E00
ENDCHAR
STARTCHAR uni04C8
ENCODING 1224
SWIDTH 599 0
DWIDTH 14 0
BBX 13 19 1 -6
BITMAP
3018
3030
3030
3030
6030
7FE0
7FE0
6060
6060
C060
C0C0
C0C0
C0C0
00C0
01C0
0180
0380
3F00
3E00
ENDCHAR
STARTCHAR uni04C9
ENCODING 1225
SWIDTH 684 0
DWIDTH 16 0
BBX 15 21 1 -4
BITMAP
0C06
1806
1806
1806
180C
300C
300C
3FFC
3FFC
3018
6018
6018
6018
6030
6030
C03C
C038
0018
0010
0030
0070
ENDCHAR
STARTCHAR uni04CA
ENCODING 1226
SWIDTH 599 0
DWIDTH 14 0
BBX 13 17 1 -4
BITMAP
3018
3030
3030
3030
6030
7FE0
7FE0
6060
6060
C060
C0C0
C0F0
C0F0
0020
0060
00C0
00C0
ENDCHAR
STARTCHAR uni04CB
ENCODING 1227
SWIDTH 639 0
DWIDTH 15 0
BBX 12 21 3 -4
BITMAP
6030
6030
6030
6030
C070
C060
C060
C060
C1E0
FFC0
7EC0
00C0
00C0
00C0
0180
0780
0780
0600
0600
0C00
0C00
ENDCHAR
STARTCHAR uni04CC
ENCODING 1228
SWIDTH 578 0
DWIDTH 14 0
BBX 11 17 2 -4
BITMAP
6060
6060
6060
60C0
C0C0
C1C0
E3C0
7EC0
3D80
0180
0180
0780
0780
0600
0C00
0C00
0C00
ENDCHAR
STARTCHAR uni04CD
ENCODING 1229
SWIDTH 841 0
DWIDTH 20 0
BBX 19 21 1 -4
BITMAP
1E00E0
1E01E0
1E01E0
1E03C0
1E02C0
3606C0
320CC0
320CC0
331980
231980
633180
633180
636180
634300
41C300
C183C0
C18380
000180
000300
000300
000600
ENDCHAR
STARTCHAR uni04CE
ENCODING 1230
SWIDTH 688 0
DWIDTH 17 0
BBX 15 17 1 -4
BITMAP
380E
380E
381C
283C
682C
686C
6C48
6CC8
4C98
C598
C718
C61C
C63C
0008
0018
0010
0030
ENDCHAR
STARTCHAR uni04CF
ENCODING 1231
SWIDTH 272 0
DWIDTH 7 0
BBX 6 17 1 0
BITMAP
0C
18
18
18
18
30
30
30
30
30
60
60
60
60
60
C0
C0
ENDCHAR
STARTCHAR uni04D0
ENCODING 1232
SWIDTH 555 0
DWIDTH 13 0
BBX 15 23 -1 0
BITMAP
0106
0106
01DC
00F8
0000
0000
0060
00E0
00A0
01A0
01B0
0330
0730
0630
0C30
0C30
1FF0
1FF0
3018
3018
6018
E018
C018
ENDCHAR
STARTCHAR uni04D1
ENCODING 1233
SWIDTH 564 0
DWIDTH 14 0
BBX 12 19 1 0
BITMAP
0C10
0C30
0FF0
07C0
0000
0000
0F30
1FB0
38F0
7060
6060
6060
C060
C0E0
C0C0
C1C0
E3C0
7EC0
3CC0
ENDCHAR
STARTCHAR uni04D2
ENCODING 1234
SWIDTH 555 0
DWIDTH 13 0
BBX 13 21 -1 0
BITMAP
0188
0198
0000
0000
0060
00E0
00A0
01A0
01B0
0330
0730
0630
0C30
0C30
1FF0
1FF0
3018
3018
6018
E018
C018
ENDCHAR
STARTCHAR uni04D3
ENCODING 1235
SWIDTH 564 0
DWIDTH 14 0
BBX 12 17 1 0
BITMAP
0460
0C40
0000
0000
0F30
1FB0
38F0
7060
6060
6060
C060
C0E0
C0C0
C1C0
E3C0
7EC0
3CC0
ENDCHAR
STARTCHAR uni04D4
ENCODING 1236
SWIDTH 816 0
DWIDTH 20 0
BBX 22 17 -1 0
BITMAP
003FFC
003FF8
006C00
00EC00
00CC00
018C00
038C00
031FF0
061FE0
0E1800
0FF800
1FF800
183000
303000
703000
603FC0
C07FC0
ENDCHAR
STARTCHAR uni04D5
ENCODING 1237
SWIDTH 814 0
DWIDTH 20 0
BBX 18 13 1 0
BITMAP
0F2780
1FBFC0
38F8C0
70F0C0
6060C0
60E380
C0FF00
C0FC00
C1C000
C1C000
E6E180
7FFF80
39BE00
ENDCHAR
STARTCHAR uni04D6
ENCODING 1238
SWIDTH 511 0
DWIDTH 12 0
BBX 13 23 1 0
BITMAP
0C18
0C18
07F0
03E0
0000
0000
0FF0
1FF0
1800
1800
1800
3000
3000
3FC0
3FC0
3000
6000
6000
6000
6000
6000
FF80
FF80
ENDCHAR
STARTCHAR uni04D7
ENCODING 1239
SWIDTH 493 0
DWIDTH 12 0
BBX 11 19 1 0
BITMAP
1860
1860
1FC0
0F80
0000
0000
0F80
1FC0
38C0
70C0
60C0
6380
FF00
FE00
C000
C000
6080
7F80
3E00
ENDCHAR
STARTCHAR uni04D8
ENCODING 1240
SWIDTH 661 0
DWIDTH 16 0
BBX 14 17 1 0
BITMAP
0FE0
1FF0
1038
001C
000C
000C
000C
000C
07FC
3FFC
7818
E018
C030
C070
E0E0
7FC0
3F00
ENDCHAR
STARTCHAR uni04D9
ENCODING 1241
SWIDTH 493 0
DWIDTH 12 0
BBX 10 13 1 0
BITMAP
1E00
7F80
4380
01C0
00C0
00C0
1F80
7F80
E180
C300
C700
FE00
7800
ENDCHAR
STARTCHAR uni04DA
ENCODING 1242
SWIDTH 661 0
DWIDTH 16 0
BBX 14 21 1 0
BITMAP
0330
0330
0000
0000
0FE0
1FF0
1038
001C
000C
000C
000C
000C
07FC
3FFC
7818
E018
C030
C070
E0E0
7FC0
3F00
ENDCHAR
STARTCHAR uni04DB
ENCODING 1243
SWIDTH 493 0
DWIDTH 12 0
BBX 10 17 1 0
BITMAP
1980
1980
0000
0000
1E00
7F80
4380
01C0
00C0
00C0
1F80
7F80
E180
C300
C700
FE00
7800
ENDCHAR
STARTCHAR uni04DC
ENCODING 1244
SWIDTH 775 0
DWIDTH 19 0
BBX 21 21 -1 0
BITMAP
003100
003300
000000
000000
0C0C18
0E1830
061870
0718E0
0319C0
039380
01B700
00FE00
01FC00
01BC00
036600
066600
0C6300
186380
386180
70C1C0
E0C0C0
ENDCHAR
STARTCHAR uni04DD
ENCODING 1245
SWIDTH 833 0
DWIDTH 20 0
BBX 21 17 0 0
BITMAP
006600
006600
000000
000000
383078
3E31F0
063380
063300
062700
066600
07FE00
07FE00
066600
0E4600
1CC700
F8C7C0
E0C1C0
ENDCHAR
STARTCHAR uni04DE
ENCODING 1246
SWIDTH 532 0
DWIDTH 13 0
BBX 12 21 0 0
BITMAP
0230
0630
0000
0000
07E0
1FF0
1830
0030
0030
0030
0060
1FC0
1FC0
00E0
0060
0060
0060
0060
C1E0
FFC0
7F00
ENDCHAR
STARTCHAR uni04DF
ENCODING 1247
SWIDTH 436 0
DWIDTH 10 0
BBX 10 17 0 0
BITMAP
0CC0
0CC0
0000
0000
1F00
3FC0
21C0
00C0
0180
1F00
1F00
0180
0180
0180
8380
FF00
7C00
ENDCHAR
STARTCHAR uni04E0
ENCODING 1248
SWIDTH 525 0
DWIDTH 13 0
BBX 13 17 0 0
BITMAP
0FF8
1FF8
0030
00E0
0180
0300
0600
0F80
0FC0
00E0
0060
0060
0060
00E0
C1C0
FF80
3E00
ENDCHAR
STARTCHAR uni04E1
ENCODING 1249
SWIDTH 456 0
DWIDTH 11 0
BBX 13 19 -2 -6
BITMAP
0FF8
0FF0
0030
0060
00C0
0180
0300
0600
0F00
0FC0
01C0
00E0
0060
0060
0060
00C0
C1C0
FF80
7E00
ENDCHAR
STARTCHAR uni04E2
ENCODING 1250
SWIDTH 696 0
DWIDTH 17 0
BBX 16 21 1 0
BITMAP
01F8
01F8
0000
0000
0807
180F
180E
181E
1836
3066
30C4
30CC
318C
330C
660C
6618
6C18
7818
7018
F018
E030
ENDCHAR
STARTCHAR uni04E3
ENCODING 1251
SWIDTH 577 0
DWIDTH 14 0
BBX 12 17 1 0
BITMAP
07E0
0FE0
0000
0000
3030
3030
3030
3060
6060
6060
6060
60E0
C0C0
C1C0
E3C0
7EC0
3CC0
ENDCHAR
STARTCHAR uni04E4
ENCODING 1252
SWIDTH 696 0
DWIDTH 17 0
BBX 16 21 1 0
BITMAP
0198
0198
0000
0000
0807
180F
180E
181E
1836
3066
30C4
30CC
318C
330C
660C
6618
6C18
7818
7018
F018
E030
ENDCHAR
STARTCHAR uni04E5
ENCODING 1253
SWIDTH 577 0
DWIDTH 14 0
BBX 12 17 1 0
BITMAP
0460
0C60
0000
0000
3030
3030
3030
3060
6060
6060
6060
60E0
C0C0
C1C0
E3C0
7EC0
3CC0
ENDCHAR
STARTCHAR uni04E6
ENCODING 1254
SWIDTH 720 0
DWIDTH 17 0
BBX 15 21 2 0
BITMAP
0330
0330
0000
0000
03E0
0FF8
1C38
300C
700C
600C
E00E
C00C
C00C
C00C
C00C
C01C
C018
E038
70F0
3FE0
1F80
ENDCHAR
STARTCHAR uni04E7
ENCODING 1255
SWIDTH 561 0
DWIDTH 13 0
BBX 11 17 1 0
BITMAP
0C40
0CC0
0000
0000
0F80
1FC0
38E0
7060
6060
E060
C060
C060
C060
C0C0
61C0
7F80
3E00
ENDCHAR
STARTCHAR uni04E8
ENCODING 1256
SWIDTH 720 0
DWIDTH 17 0
BBX 15 17 2 0
BITMAP
03E0
0FF8
1C38
381C
700C
600C
E00E
C00C
FFFC
FFFC
C00C
C00C
C018
E038
7070
3FE0
1F80
ENDCHAR
STARTCHAR uni04E9
ENCODING 1257
SWIDTH 561 0
DWIDTH 13 0
BBX 11 13 1 0
BITMAP
0F80
1FC0
38E0
6060
6060
FFE0
FFE0
C060
C0E0
C0C0
61C0
7F80
1E00
ENDCHAR
STARTCHAR uni04EA
ENCODING 1258
SWIDTH 720 0
DWIDTH 17 0
BBX 15 21 2 0
BITMAP
0330
0330
0000
0000
03E0
0FF8
1C38
381C
700C
600C
E00E
C00C
FFFC
FFFC
C00C
C00C
C018
E038
7070
3FE0
1F80
ENDCHAR
STARTCHAR uni04EB
ENCODING 1259
SWIDTH 561 0
DWIDTH 13 0
BBX 11 17 1 0
BITMAP
0C40
0CC0
0000
0000
0F80
1FC0
38E0
6060
6060
FFE0
FFE0
C060
C0E0
C0C0
61C0
7F80
1E00
ENDCHAR
STARTCHAR uni04EC
ENCODING 1260
SWIDTH 584 0
DWIDTH 14 0
BBX 13 21 0 0
BITMAP
0630
0620
0000
0000
0FC0
1FF0
1070
0038
0018
0018
0018
0FF8
0FF8
0018
0018
0030
0030
0060
C1E0
FF80
7F00
ENDCHAR
STARTCHAR uni04ED
ENCODING 1261
SWIDTH 456 0
DWIDTH 11 0
BBX 10 17 0 0
BITMAP
08C0
18C0
0000
0000
3E00
3F80
0180
00C0
00C0
3FC0
3FC0
01C0
0180
0380
8700
FE00
7C00
ENDCHAR
STARTCHAR uni04EE
ENCODING 1262
SWIDTH 571 0
DWIDTH 14 0
BBX 16 21 0 0
BITMAP
03F8
03F0
0000
0000
1807
1806
180C
0C0C
0C18
0C30
0430
0660
0660
06C0
0280
0380
0300
0600
0E00
FC00
F000
ENDCHAR
STARTCHAR uni04EF
ENCODING 1263
SWIDTH 461 0
DWIDTH 11 0
BBX 14 23 -2 -6
BITMAP
03F0
03F0
0000
0000
180C
1818
0818
0C30
0C30
0C60
0C60
0CC0
0CC0
0580
0580
0700
0700
0600
0E00
0C00
1800
F800
E000
ENDCHAR
STARTCHAR uni04F0
ENCODING 1264
SWIDTH 571 0
DWIDTH 14 0
BBX 16 21 0 0
BITMAP
0310
0330
0000
0000
1807
1806
180C
0C0C
0C18
0C30
0430
0660
0660
06C0
0280
0380
0300
0600
0E00
FC00
F000
ENDCHAR
STARTCHAR uni04F1
ENCODING 1265
SWIDTH 461 0
DWIDTH 11 0
BBX 14 23 -2 -6
BITMAP
0330
0330
0000
0000
180C
1818
0818
0C30
0C30
0C60
0C60
0CC0
0CC0
0580
0580
0700
0700
0600
0E00
0C00
1800
F800
E000
ENDCHAR
STARTCHAR uni04F2
ENCODING 1266
SWIDTH 571 0
DWIDTH 14 0
BBX 16 23 0 0
BITMAP
0066
00CC
0198
0330
0000
0000
1807
1806
180C
0C0C
0C18
0C30
0430
0660
0660
06C0
0280
0380
0300
0600
0E00
FC00
F000
ENDCHAR
STARTCHAR uni04F3
ENCODING 1267
SWIDTH 461 0
DWIDTH 11 0
BBX 14 25 -2 -6
BITMAP
00CC
0198
0110
0220
0000
0000
180C
1818
0818
0C30
0C30
0C60
0C60
0CC0
0CC0
0580
0580
0700
0700
0600
0E00
0C00
1800
F800
E000
ENDCHAR
STARTCHAR uni04F4
ENCODING 1268
SWIDTH 639 0
DWIDTH 15 0
BBX 12 21 3 0
BITMAP
0CC0
0CC0
0000
0000
6030
6030
6030
6030
C070
C060
C060
C060
C1E0
FFC0
7EC0
00C0
00C0
00C0
0180
0180
0180
ENDCHAR
STARTCHAR uni04F5
ENCODING 1269
SWIDTH 555 0
DWIDTH 13 0
BBX 10 17 2 0
BITMAP
1980
1980
0000
0000
6040
C0C0
C0C0
C0C0
C1C0
C180
C780
FD80
7980
0180
0300
0300
0300
ENDCHAR
STARTCHAR uni04F6
ENCODING 1270
SWIDTH 476 0
DWIDTH 11 0
BBX 12 21 1 -4
BITMAP
0FF0
1FF0
1800
1800
1800
3800
3000
3000
3000
3000
6000
6000
6000
6000
6000
F000
F000
3000
2000
6000
6000
ENDCHAR
STARTCHAR uni04F7
ENCODING 1271
SWIDTH 382 0
DWIDTH 9 0
BBX 9 17 1 -4
BITMAP
3F80
3F80
3000
3000
7000
6000
6000
6000
6000
C000
C000
F000
E000
6000
6000
6000
E000
ENDCHAR
STARTCHAR uni04F8
ENCODING 1272
SWIDTH 786 0
DWIDTH 19 0
BBX 18 21 1 0
BITMAP
00CC00
00CC00
000000
000000
0C00C0
1800C0
180180
180180
180180
300180
300180
3F8300
3FC300
30E300
606300
606300
606600
60E600
41C600
FF8600
FE0C00
ENDCHAR
STARTCHAR uni04F9
ENCODING 1273
SWIDTH 721 0
DWIDTH 17 0
BBX 14 17 2 0
BITMAP
0660
0660
0000
0000
600C
600C
600C
600C
C00C
FE18
FF18
C318
C198
8318
C330
FF30
7C30
ENDCHAR
STARTCHAR uni04FA
ENCODING 1274
SWIDTH 471 0
DWIDTH 11 0
BBX 13 21 0 -4
BITMAP
07F8
0FF8
0C00
0C00
0C00
1C00
1800
1800
7F80
7F80
3000
3000
3000
3000
3000
7800
7800
1000
3000
F000
E000
ENDCHAR
STARTCHAR uni04FB
ENCODING 1275
SWIDTH 382 0
DWIDTH 9 0
BBX 10 17 0 -4
BITMAP
1FC0
1FC0
1800
1800
1800
3000
FE00
FE00
3000
2000
6000
7800
7000
3000
3000
F000
E000
ENDCHAR
STARTCHAR uni04FC
ENCODING 1276
SWIDTH 508 0
DWIDTH 12 0
BBX 15 21 -1 -4
BITMAP
0C06
0C0C
0618
0638
0630
0360
03C0
0180
0380
03C0
06C0
0CC0
1860
3860
3060
6038
C038
0018
0010
00F0
00E0
ENDCHAR
STARTCHAR uni04FD
ENCODING 1277
SWIDTH 469 0
DWIDTH 11 0
BBX 12 17 0 -4
BITMAP
3070
1860
18C0
1980
0F00
0E00
0600
0E00
1B00
3300
6180
E1E0
C1C0
00C0
00C0
0380
0380
ENDCHAR
STARTCHAR uni04FE
ENCODING 1278
SWIDTH 519 0
DWIDTH 12 0
BBX 15 17 -1 0
BITMAP
0C06
0C0C
0618
0638
0630
0360
03C0
1FF8
1FF8
0380
06C0
0CC0
1860
1860
3060
6030
C030
ENDCHAR
STARTCHAR uni04FF
ENCODING 1279
SWIDTH 478 0
DWIDTH 11 0
BBX 12 13 0 0
BITMAP
3070
1860
18C0
1980
0F80
0F00
7FC0
7FC0
0A00
1300
2100
6180
C180
ENDCHAR
STARTCHAR uni0500
ENCODING 1280
SWIDTH 565 0
DWIDTH 14 0
BBX 13 17 1 0
BITMAP
0018
0030
0030
0030
0030
0070
0060
0FE0
3FE0
7060
E0C0
C0C0
C0C0
C0C0
E0C0
7F80
3F80
ENDCHAR
STARTCHAR uni0501
ENCODING 1281
SWIDTH 577 0
DWIDTH 14 0
BBX 13 18 1 0
BITMAP
0018
0018
0018
0018
0030
0F30
1FB0
38F0
7060
6060
6060
C060
C0E0
C0C0
C1C0
E3C0
7EC0
3CC0
ENDCHAR
STARTCHAR uni0502
ENCODING 1282
SWIDTH 831 0
DWIDTH 20 0
BBX 18 17 1 0
BITMAP
001800
003800
003000
003000
003000
003000
006000
0FE0C0
3FE180
786180
606180
E0C180
C0C180
C0C300
E1C700
7F7E00
3E3C00
ENDCHAR
STARTCHAR uni0503
ENCODING 1283
SWIDTH 850 0
DWIDTH 20 0
BBX 18 18 1 0
BITMAP
001800
001800
001800
001800
003000
0F3000
1FB000
38F000
706000
606000
6060C0
C060C0
C0C180
C0C180
C1C180
E36300
7E7F00
3C3E00
ENDCHAR
STARTCHAR uni0504
ENCODING 1284
SWIDTH 837 0
DWIDTH 20 0
BBX 16 17 3 0
BITMAP
3F00
FF80
E180
00C0
01C0
0180
0300
FE03
FE03
0706
0306
0306
0306
030E
038C
03FC
01F0
ENDCHAR
STARTCHAR uni0505
ENCODING 1285
SWIDTH 743 0
DWIDTH 18 0
BBX 14 13 2 0
BITMAP
7C00
FE00
8700
0300
0600
7C0C
7C0C
0E0C
061C
0618
0638
07F0
03E0
ENDCHAR
STARTCHAR uni0506
ENCODING 1286
SWIDTH 569 0
DWIDTH 14 0
BBX 10 21 3 -4
BITMAP
3F00
FF80
C180
01C0
01C0
0180
0180
0700
FE00
FE00
0700
0300
0300
0300
0300
0380
0780
0180
0180
0300
0300
ENDCHAR
STARTCHAR uni0507
ENCODING 1287
SWIDTH 470 0
DWIDTH 11 0
BBX 8 17 2 -4
BITMAP
7C
FE
87
03
06
06
7C
7C
0E
06
04
0F
0F
03
06
06
06
ENDCHAR
STARTCHAR uni0508
ENCODING 1288
SWIDTH 895 0
DWIDTH 22 0
BBX 21 17 -1 0
BITMAP
00FF00
00FF00
01C200
018600
018600
018600
030600
030C18
030C18
070C18
060C30
060830
0E1830
0C1830
1C1C60
F80FE0
F00780
ENDCHAR
STARTCHAR uni0509
ENCODING 1289
SWIDTH 806 0
DWIDTH 19 0
BBX 19 13 -1 0
BITMAP
00F800
03F800
031800
061000
063000
0E3060
0C30C0
0C30C0
1860C0
1860C0
387180
F03F80
E01F00
ENDCHAR
STARTCHAR uni050A
ENCODING 1290
SWIDTH 953 0
DWIDTH 23 0
BBX 20 17 1 0
BITMAP
0C0600
180600
180600
180600
180C00
300C00
300C00
3FFC10
3FFC30
301830
601830
601830
601860
601860
6018E0
C01FC0
C00F80
ENDCHAR
STARTCHAR uni050B
ENCODING 1291
SWIDTH 867 0
DWIDTH 21 0
BBX 18 13 1 0
BITMAP
301800
303000
303000
303000
603000
7FE0C0
7FE0C0
6060C0
6061C0
C06180
C06380
C07F00
C03E00
ENDCHAR
STARTCHAR uni050C
ENCODING 1292
SWIDTH 695 0
DWIDTH 17 0
BBX 14 17 2 0
BITMAP
03F0
0FFC
1C08
3800
7000
6000
E000
C000
C1FC
C1FC
C018
C018
C018
E030
7070
3FE0
1F80
ENDCHAR
STARTCHAR uni050D
ENCODING 1293
SWIDTH 588 0
DWIDTH 14 0
BBX 12 13 1 0
BITMAP
07E0
1FF0
3820
7000
6000
E000
C3F0
C3F0
C020
E060
60E0
7FC0
1F00
ENDCHAR
STARTCHAR uni050E
ENCODING 1294
SWIDTH 658 0
DWIDTH 16 0
BBX 12 17 2 0
BITMAP
FFF0
FFF0
0600
0600
0C00
0C00
0C00
0C30
1830
1830
1830
1830
1860
1860
18E0
1FC0
0F80
ENDCHAR
STARTCHAR uni050F
ENCODING 1295
SWIDTH 586 0
DWIDTH 14 0
BBX 11 13 1 0
BITMAP
FF80
FF80
1800
1800
1800
1860
1860
3060
3060
30E0
30C0
3FC0
1F00
ENDCHAR
STARTCHAR uni0510
ENCODING 1296
SWIDTH 539 0
DWIDTH 13 0
BBX 12 17 1 0
BITMAP
07E0
0FF0
1C30
1800
1800
1800
1C00
07C0
1FC0
3800
6000
6000
E000
E000
7040
7FC0
1F80
ENDCHAR
STARTCHAR uni0511
ENCODING 1297
SWIDTH 444 0
DWIDTH 11 0
BBX 10 13 1 0
BITMAP
1F80
3FC0
3000
6000
3000
1E00
7E00
E000
C000
C000
C100
FF00
7E00
ENDCHAR
STARTCHAR uni0512
ENCODING 1298
SWIDTH 633 0
DWIDTH 15 0
BBX 16 21 -1 -4
BITMAP
00FF
00FF
01C3
0183
0183
0186
0306
0306
0306
0706
060C
060C
0E0C
0C0C
1C18
F81E
F01E
0004
000C
003C
0038
ENDCHAR
STARTCHAR uni0513
ENCODING 1299
SWIDTH 526 0
DWIDTH 13 0
BBX 13 17 -1 -4
BITMAP
00F8
03F8
0318
0610
0630
0E30
0C30
0C30
1860
1860
3860
F070
E070
0030
0030
00E0
00C0
ENDCHAR
STARTCHAR uni1E00
ENCODING 7680
SWIDTH 555 0
DWIDTH 13 0
BBX 13 23 -1 -6
BITMAP
0060
00E0
00A0
01A0
01B0
0330
0730
0630
0C30
0C30
1FF0
1FF0
3018
3018
6018
E018
C018
0000
0F00
0980
1980
0980
0F00
ENDCHAR
STARTCHAR uni1E01
ENCODING 7681
SWIDTH 564 0
DWIDTH 14 0
BBX 12 19 1 -6
BITMAP
0F30
1FB0
38F0
7060
6060
6060
C060
C0E0
C0C0
C1C0
E3C0
7EC0
3CC0
0000
1C00
2600
2200
2600
1C00
ENDCHAR
STARTCHAR uni1E3E
ENCODING 7742
SWIDTH 836 0
DWIDTH 20 0
BBX 19 23 1 0
BITMAP
000600
000C00
001800
001000
000000
000000
1E00E0
1E01E0
1E01E0
1E03C0
1E02C0
3606C0
320CC0
320CC0
331980
231980
633180
633180
636180
634300
41C300
C18300
C18300
ENDCHAR
STARTCHAR uni1E3F
ENCODING 7743
SWIDTH 872 0
DWIDTH 21 0
BBX 19 19 1 0
BITMAP
000E00
000C00
001800
003000
000000
000000
33C380
37EFC0
3C78E0
387060
7060C0
7060C0
6060C0
60C0C0
60C0C0
C0C180
C0C180
C18180
C18180
ENDCHAR
STARTCHAR Wgrave
ENCODING 7808
SWIDTH 852 0
DWIDTH 20 0
BBX 19 23 3 0
BITMAP
018000
018000
00C000
004000
000000
000000
C0E060
C0E060
C1E0C0
C1E0C0
C36180
C36180
C66180
C66300
CC6300
CC6600
C86600
D86C00
D02C00
F02800
F03800
E03000
E03000
ENDCHAR
STARTCHAR wgrave
ENCODING 7809
SWIDTH 716 0
DWIDTH 17 0
BBX 17 19 1 0
BITMAP
030000
018000
018000
00C000
000000
000000
C1C180
C1C300
C3C300
43C600
46C600
46C600
44CC00
6CCC00
68D800
585800
507000
707000
706000
ENDCHAR
STARTCHAR Wacute
ENCODING 7810
SWIDTH 852 0
DWIDTH 20 0
BBX 19 23 3 0
BITMAP
001C00
001800
003000
006000
000000
000000
C0E060
C0E060
C1E0C0
C1E0C0
C36180
C36180
C66180
C66300
CC6300
CC6600
C86600
D86C00
D02C00
F02800
F03800
E03000
E03000
ENDCHAR
STARTCHAR wacute
ENCODING 7811
SWIDTH 716 0
DWIDTH 17 0
BBX 17 19 1 0
BITMAP
003800
003000
006000
00C000
000000
000000
C1C180
C1C300
C3C300
43C600
46C600
46C600
44CC00
6CCC00
68D800
585800
507000
707000
706000
ENDCHAR
STARTCHAR Wdieresis
ENCODING 7812
SWIDTH 852 0
DWIDTH 20 0
BBX 19 21 3 0
BITMAP
019800
019800
000000
000000
C0E060
C0E060
C1E0C0
C1E0C0
C36180
C36180
C66180
C66300
CC6300
CC6600
C86600
D86C00
D02C00
F02800
F03800
E03000
E03000
ENDCHAR
STARTCHAR wdieresis
ENCODING 7813
SWIDTH 716 0
DWIDTH 17 0
BBX 17 17 1 0
BITMAP
033000
033000
000000
000000
C1C180
C1C300
C3C300
43C600
46C600
46C600
44CC00
6CCC00
68D800
585800
507000
707000
706000
ENDCHAR
STARTCHAR uni1EA0
ENCODING 7840
SWIDTH 555 0
DWIDTH 13 0
BBX 13 22 -1 -5
BITMAP
0060
00E0
00A0
01A0
01B0
0330
0730
0630
0C30
0C30
1FF0
1FF0
3018
3018
6018
E018
C018
0000
0000
0600
0600
0600
ENDCHAR
STARTCHAR uni1EA1
ENCODING 7841
SWIDTH 564 0
DWIDTH 14 0
BBX 12 18 1 -5
BITMAP
0F30
1FB0
38F0
7060
6060
6060
C060
C0E0
C0C0
C1C0
E3C0
7EC0
3CC0
0000
0000
1800
1800
1800
ENDCHAR
STARTCHAR uni1EA2
ENCODING 7842
SWIDTH 555 0
DWIDTH 13 0
BBX 13 24 -1 0
BITMAP
0078
0018
0008
0038
0060
0060
0000
0060
00E0
00A0
01A0
01B0
0330
0730
0630
0C30
0C30
1FF0
1FF0
3018
3018
6018
E018
C018
ENDCHAR
STARTCHAR uni1EA3
ENCODING 7843
SWIDTH 564 0
DWIDTH 14 0
BBX 12 21 1 0
BITMAP
03C0
0040
0040
01C0
0100
0100
0000
0000
0F30
1FB0
38F0
7060
6060
6060
C060
C0E0
C0C0
C1C0
E3C0
7EC0
3CC0
ENDCHAR
STARTCHAR uni1EA4
ENCODING 7844
SWIDTH 555 0
DWIDTH 13 0
BBX 17 24 -1 0
BITMAP
000180
000300
007600
00D000
010800
000000
000000
006000
00E000
00A000
01A000
01B000
033000
073000
063000
0C3000
0C3000
1FF000
1FF000
301800
301800
601800
E01800
C01800
ENDCHAR
STARTCHAR uni1EA5
ENCODING 7845
SWIDTH 564 0
DWIDTH 14 0
BBX 14 20 1 0
BITMAP
000C
0018
03B0
07C0
0C60
0000
0000
0F30
1FB0
38F0
7060
6060
6060
C060
C0E0
C0C0
C1C0
E3C0
7EC0
3CC0
ENDCHAR
STARTCHAR uni1EA6
ENCODING 7846
SWIDTH 555 0
DWIDTH 13 0
BBX 13 24 -1 0
BITMAP
0600
0200
0370
00D0
0108
0000
0000
0060
00E0
00A0
01A0
01B0
0330
0730
0630
0C30
0C30
1FF0
1FF0
3018
3018
6018
E018
C018
ENDCHAR
STARTCHAR uni1EA7
ENCODING 7847
SWIDTH 564 0
DWIDTH 14 0
BBX 12 20 1 0
BITMAP
3000
1000
0B80
07C0
0C60
0000
0000
0F30
1FB0
38F0
7060
6060
6060
C060
C0E0
C0C0
C1C0
E3C0
7EC0
3CC0
ENDCHAR
STARTCHAR uni1EA8
ENCODING 7848
SWIDTH 555 0
DWIDTH 13 0
BBX 16 25 -1 0
BITMAP
0007
0001
0003
0074
00D0
0108
0000
0000
0060
00E0
00A0
01A0
01B0
0330
0730
0630
0C30
0C30
1FF0
1FF0
3018
3018
6018
E018
C018
ENDCHAR
STARTCHAR uni1EA9
ENCODING 7849
SWIDTH 564 0
DWIDTH 14 0
BBX 13 21 1 0
BITMAP
0038
0008
0018
0390
07C0
0C60
0000
0000
0F30
1FB0
38F0
7060
6060
6060
C060
C0E0
C0C0
C1C0
E3C0
7EC0
3CC0
ENDCHAR
STARTCHAR uni1EAA
ENCODING 7850
SWIDTH 555 0
DWIDTH 13 0
BBX 15 26 -1 0
BITMAP
00E2
01BE
0000
0070
0050
0098
0108
0000
0000
0060
00E0
00A0
01A0
01B0
0330
0730
0630
0C30
0C30
1FF0
1FF0
3018
3018
6018
E018
C018
ENDCHAR
STARTCHAR uni1EAB
ENCODING 7851
SWIDTH 564 0
DWIDTH 14 0
BBX 13 22 1 0
BITMAP
0798
07F0
0000
0180
03C0
0640
0860
0000
0000
0F30
1FB0
38F0
7060
6060
6060
C060
C0E0
C0C0
C1C0
E3C0
7EC0
3CC0
ENDCHAR
STARTCHAR uni1EAC
ENCODING 7852
SWIDTH 555 0
DWIDTH 13 0
BBX 14 28 -1 -5
BITMAP
0070
0070
00D8
010C
0000
0000
0060
00E0
00A0
01A0
01B0
0330
0730
0630
0C30
0C30
1FF0
1FF0
3018
3018
6018
E018
C018
0000
0000
0600
0600
0600
ENDCHAR
STARTCHAR uni1EAD
ENCODING 7853
SWIDTH 564 0
DWIDTH 14 0
BBX 12 24 1 -5
BITMAP
0180
0380
06C0
0C60
0000
0000
0F30
1FB0
38F0
7060
6060
6060
C060
C0E0
C0C0
C1C0
E3C0
7EC0
3CC0
0000
0000
1800
1800
1800
ENDCHAR
STARTCHAR uni1EAE
ENCODING 7854
SWIDTH 555 0
DWIDTH 13 0
BBX 14 25 -1 0
BITMAP
000C
0018
0020
010C
01F8
00F0
0000
0000
0060
00E0
00A0
01A0
01B0
0330
0730
0630
0C30
0C30
1FF0
1FF0
3018
3018
6018
E018
C018
ENDCHAR
STARTCHAR uni1EAF
ENCODING 7855
SWIDTH 564 0
DWIDTH 14 0
BBX 12 21 1 0
BITMAP
0060
00C0
0180
0C20
07E0
03C0
0000
0000
0F30
1FB0
38F0
7060
6060
6060
C060
C0E0
C0C0
C1C0
E3C0
7EC0
3CC0
ENDCHAR
STARTCHAR uni1EB0
ENCODING 7856
SWIDTH 555 0
DWIDTH 13 0
BBX 14 25 -1 0
BITMAP
00C0
0060
0020
010C
01F8
00F0
0000
0000
0060
00E0
00A0
01A0
01B0
0330
0730
0630
0C30
0C30
1FF0
1FF0
3018
3018
6018
E018
C018
ENDCHAR
STARTCHAR uni1EB1
ENCODING 7857
SWIDTH 564 0
DWIDTH 14 0
BBX 12 21 1 0
BITMAP
0200
0300
0180
0C20
07E0
03C0
0000
0000
0F30
1FB0
38F0
7060
6060
6060
C060
C0E0
C0C0
C1C0
E3C0
7EC0
3CC0
ENDCHAR
STARTCHAR uni1EB2
ENCODING 7858
SWIDTH 555 0
DWIDTH 13 0
BBX 14 26 -1 0
BITMAP
0030
0018
0030
0020
010C
01F8
00F0
0000
0000
0060
00E0
00A0
01A0
01B0
0330
0730
0630
0C30
0C30
1FF0
1FF0
3018
3018
6018
E018
C018
ENDCHAR
STARTCHAR uni1EB3
ENCODING 7859
SWIDTH 564 0
DWIDTH 14 0
BBX 12 22 1 0
BITMAP
01C0
0040
00C0
0100
0C20
07E0
03C0
0000
0000
0F30
1FB0
38F0
7060
6060
6060
C060
C0E0
C0C0
C1C0
E3C0
7EC0
3CC0
ENDCHAR
STARTCHAR uni1EB4
ENCODING 7860
SWIDTH 555 0
DWIDTH 13 0
BBX 15 26 -1 0
BITMAP
00E2
01FC
0000
0000
010C
01F8
00F0
0000
0000
0060
00E0
00A0
01A0
01B0
0330
0730
0630
0C30
0C30
1FF0
1FF0
3018
3018
6018
E018
C018
ENDCHAR
STARTCHAR uni1EB5
ENCODING 7861
SWIDTH 564 0
DWIDTH 14 0
BBX 12 22 1 0
BITMAP
0790
0FF0
0000
0000
0C20
07E0
03C0
0000
0000
0F30
1FB0
38F0
7060
6060
6060
C060
C0E0
C0C0
C1C0
E3C0
7EC0
3CC0
ENDCHAR
STARTCHAR uni1EB6
ENCODING 7862
SWIDTH 555 0
DWIDTH 13 0
BBX 14 27 -1 -5
BITMAP
010C
01F8
00F0
0000
0000
0060
00E0
00A0
01A0
01B0
0330
0730
0630
0C30
0C30
1FF0
1FF0
3018
3018
6018
E018
C018
0000
0000
0600
0600
0600
ENDCHAR
STARTCHAR uni1EB7
ENCODING 7863
SWIDTH 564 0
DWIDTH 14 0
BBX 12 23 1 -5
BITMAP
0420
07E0
03C0
0000
0000
0F30
1FB0
38F0
7060
6060
6060
C060
C0E0
C0C0
C1C0
E3C0
7EC0
3CC0
0000
0000
1800
1800
1800
ENDCHAR
STARTCHAR uni1EB8
ENCODING 7864
SWIDTH 511 0
DWIDTH 12 0
BBX 12 22 1 -5
BITMAP
0FF0
1FF0
1800
1800
1800
3000
3000
3FC0
3FC0
3000
6000
6000
6000
6000
6000
FF80
FF80
0000
0000
1800
1800
1800
ENDCHAR
STARTCHAR uni1EB9
ENCODING 7865
SWIDTH 493 0
DWIDTH 12 0
BBX 10 18 1 -5
BITMAP
0F80
1FC0
38C0
70C0
60C0
6380
FF00
FE00
C000
C000
6080
7F80
3E00
0000
0000
1800
3800
1000
ENDCHAR
STARTCHAR uni1EBA
ENCODING 7866
SWIDTH 511 0
DWIDTH 12 0
BBX 12 24 1 0
BITMAP
01C0
0060
0060
00E0
0180
0100
0000
0FF0
1FF0
1800
1800
1800
3000
3000
3FC0
3FC0
3000
6000
6000
6000
6000
6000
FF80
FF80
ENDCHAR
STARTCHAR uni1EBB
ENCODING 7867
SWIDTH 493 0
DWIDTH 12 0
BBX 10 21 1 0
BITMAP
0380
00C0
00C0
0380
0300
0200
0000
0000
0F80
1FC0
38C0
70C0
60C0
6380
FF00
FE00
C000
C000
6080
7F80
3E00
ENDCHAR
STARTCHAR uni1EBC
ENCODING 7868
SWIDTH 511 0
DWIDTH 12 0
BBX 12 22 1 0
BITMAP
0710
0FF0
08E0
0000
0000
0FF0
1FF0
1800
1800
1800
3000
3000
3FC0
3FC0
3000
6000
6000
6000
6000
6000
FF80
FF80
ENDCHAR
STARTCHAR uni1EBD
ENCODING 7869
SWIDTH 493 0
DWIDTH 12 0
BBX 11 18 1 0
BITMAP
0E20
1FE0
11C0
0000
0000
0F80
1FC0
38C0
70C0
60C0
6380
FF00
FE00
C000
C000
6080
7F80
3E00
ENDCHAR
STARTCHAR uni1EBE
ENCODING 7870
SWIDTH 511 0
DWIDTH 12 0
BBX 15 24 1 0
BITMAP
0006
000C
01D8
0340
0620
0000
0000
0FF0
1FF0
1800
1800
1800
3000
3000
3FC0
3FC0
3000
6000
6000
6000
6000
6000
FF80
FF80
ENDCHAR
STARTCHAR uni1EBF
ENCODING 7871
SWIDTH 493 0
DWIDTH 12 0
BBX 14 20 1 0
BITMAP
001C
0018
03B0
0780
0840
0000
0000
0F80
1FC0
38C0
70C0
60C0
6380
FF00
FE00
C000
C000
6080
7F80
3E00
ENDCHAR
STARTCHAR uni1EC0
ENCODING 7872
SWIDTH 511 0
DWIDTH 12 0
BBX 12 24 1 0
BITMAP
1800
0800
0DC0
0340
0620
0000
0000
0FF0
1FF0
1800
1800
1800
3000
3000
3FC0
3FC0
3000
6000
6000
6000
6000
6000
FF80
FF80
ENDCHAR
STARTCHAR uni1EC1
ENCODING 7873
SWIDTH 493 0
DWIDTH 12 0
BBX 10 20 1 0
BITMAP
2000
3000
1380
0780
0840
0000
0000
0F80
1FC0
38C0
70C0
60C0
6380
FF00
FE00
C000
C000
6080
7F80
3E00
ENDCHAR
STARTCHAR uni1EC2
ENCODING 7874
SWIDTH 511 0
DWIDTH 12 0
BBX 14 25 1 0
BITMAP
001C
0004
000C
01D0
0340
0620
0000
0000
0FF0
1FF0
1800
1800
1800
3000
3000
3FC0
3FC0
3000
6000
6000
6000
6000
6000
FF80
FF80
ENDCHAR
STARTCHAR uni1EC3
ENCODING 7875
SWIDTH 493 0
DWIDTH 12 0
BBX 13 21 1 0
BITMAP
0038
0008
0018
03A0
0780
0840
0000
0000
0F80
1FC0
38C0
70C0
60C0
6380
FF00
FE00
C000
C000
6080
7F80
3E00
ENDCHAR
STARTCHAR uni1EC4
ENCODING 7876
SWIDTH 511 0
DWIDTH 12 0
BBX 13 26 1 0
BITMAP
0388
06F8
0000
01C0
0340
0260
0420
0000
0000
0FF0
1FF0
1800
1800
1800
3000
3000
3FC0
3FC0
3000
6000
6000
6000
6000
6000
FF80
FF80
ENDCHAR
STARTCHAR uni1EC5
ENCODING 7877
SWIDTH 493 0
DWIDTH 12 0
BBX 12 22 1 0
BITMAP
0710
0DE0
0000
0380
0780
0CC0
1840
0000
0000
0F80
1FC0
38C0
70C0
60C0
6380
FF00
FE00
C000
C000
6080
7F80
3E00
ENDCHAR
STARTCHAR uni1EC6
ENCODING 7878
SWIDTH 511 0
DWIDTH 12 0
BBX 12 28 1 -5
BITMAP
00C0
01C0
0360
0430
0000
0000
0FF0
1FF0
1800
1800
1800
3000
3000
3FC0
3FC0
3000
6000
6000
6000
6000
6000
FF80
FF80
0000
0000
1800
1800
1800
ENDCHAR
STARTCHAR uni1EC7
ENCODING 7879
SWIDTH 493 0
DWIDTH 12 0
BBX 10 24 1 -5
BITMAP
0380
0780
0CC0
1840
0000
0000
0F80
1FC0
38C0
70C0
60C0
6380
FF00
FE00
C000
C000
6080
7F80
3E00
0000
0000
1800
3800
1000
ENDCHAR
STARTCHAR uni1EC8
ENCODING 7880
SWIDTH 272 0
DWIDTH 7 0
BBX 8 24 1 0
BITMAP
0E
03
03
07
0C
08
00
0C
18
18
18
18
30
30
30
30
30
60
60
60
60
60
C0
C0
ENDCHAR
STARTCHAR uni1EC9
ENCODING 7881
SWIDTH 253 0
DWIDTH 6 0
BBX 7 21 1 0
BITMAP
1C
06
06
0C
18
10
00
00
30
30
30
30
60
60
60
60
60
C0
C0
C0
C0
ENDCHAR
STARTCHAR uni1ECA
ENCODING 7882
SWIDTH 272 0
DWIDTH 7 0
BBX 7 22 0 -5
BITMAP
06
0C
0C
0C
0C
18
18
18
18
18
30
30
30
30
30
60
60
00
00
40
E0
C0
ENDCHAR
STARTCHAR uni1ECB
ENCODING 7883
SWIDTH 253 0
DWIDTH 6 0
BBX 6 23 0 -5
BITMAP
0C
0C
00
00
00
18
18
18
18
30
30
30
30
30
60
60
60
60
00
00
C0
C0
C0
ENDCHAR
STARTCHAR uni1ECC
ENCODING 7884
SWIDTH 720 0
DWIDTH 17 0
BBX 15 22 2 -5
BITMAP
03E0
0FF8
1C38
300C
700C
600C
E00E
C00C
C00C
C00C
C00C
C01C
C018
E038
70F0
3FE0
1F80
0000
0000
0C00
0C00
0C00
ENDCHAR
STARTCHAR uni1ECD
ENCODING 7885
SWIDTH 561 0
DWIDTH 13 0
BBX 11 18 1 -5
BITMAP
0F80
1FC0
38E0
7060
6060
E060
C060
C060
C060
C0C0
61C0
7F80
3E00
0000
0000
1800
1800
1800
ENDCHAR
STARTCHAR uni1ECE
ENCODING 7886
SWIDTH 720 0
DWIDTH 17 0
BBX 15 24 2 0
BITMAP
00E0
0030
0010
0070
00C0
00C0
0000
03E0
0FF8
1C38
300C
700C
600C
E00E
C00C
C00C
C00C
C00C
C01C
C018
E038
70F0
3FE0
1F80
ENDCHAR
STARTCHAR uni1ECF
ENCODING 7887
SWIDTH 561 0
DWIDTH 13 0
BBX 11 21 1 0
BITMAP
0380
00C0
0040
01C0
0300
0300
0000
0000
0F80
1FC0
38E0
7060
6060
E060
C060
C060
C060
C0C0
61C0
7F80
3E00
ENDCHAR
STARTCHAR uni1ED0
ENCODING 7888
SWIDTH 720 0
DWIDTH 17 0
BBX 16 24 2 0
BITMAP
0007
0006
00E8
01E0
0230
0000
0000
03E0
0FF8
1C38
300C
700C
600C
E00E
C00C
C00C
C00C
C00C
C01C
C018
E038
70F0
3FE0
1F80
ENDCHAR
STARTCHAR uni1ED1
ENCODING 7889
SWIDTH 561 0
DWIDTH 13 0
BBX 14 20 1 0
BITMAP
000C
0018
03B0
0780
0840
0000
0000
0F80
1FC0
38E0
7060
6060
E060
C060
C060
C060
C0C0
61C0
7F80
3E00
ENDCHAR
STARTCHAR uni1ED2
ENCODING 7890
SWIDTH 720 0
DWIDTH 17 0
BBX 15 24 2 0
BITMAP
0800
0C00
04C0
01E0
0630
0000
0000
03E0
0FF8
1C38
300C
700C
600C
E00E
C00C
C00C
C00C
C00C
C01C
C018
E038
70F0
3FE0
1F80
ENDCHAR
STARTCHAR uni1ED3
ENCODING 7891
SWIDTH 561 0
DWIDTH 13 0
BBX 11 20 1 0
BITMAP
3000
1000
1B80
0780
0840
0000
0000
0F80
1FC0
38E0
7060
6060
E060
C060
C060
C060
C0C0
61C0
7F80
3E00
ENDCHAR
STARTCHAR uni1ED4
ENCODING 7892
SWIDTH 720 0
DWIDTH 17 0
BBX 15 25 2 0
BITMAP
000C
0006
0004
00C8
01E0
0630
0000
0000
03E0
0FF8
1C38
300C
700C
600C
E00E
C00C
C00C
C00C
C00C
C01C
C018
E038
70F0
3FE0
1F80
ENDCHAR
STARTCHAR uni1ED5
ENCODING 7893
SWIDTH 561 0
DWIDTH 13 0
BBX 13 21 1 0
BITMAP
0038
0008
0018
03A0
0780
0840
0000
0000
0F80
1FC0
38E0
7060
6060
E060
C060
C060
C060
C0C0
61C0
7F80
3E00
ENDCHAR
STARTCHAR uni1ED6
ENCODING 7894
SWIDTH 720 0
DWIDTH 17 0
BBX 15 26 2 0
BITMAP
01CC
03F8
0000
00C0
01E0
0320
0610
0000
0000
03E0
0FF8
1C38
300C
700C
600C
E00E
C00C
C00C
C00C
C00C
C01C
C018
E038
70F0
3FE0
1F80
ENDCHAR
STARTCHAR uni1ED7
ENCODING 7895
SWIDTH 561 0
DWIDTH 13 0
BBX 12 22 1 0
BITMAP
0710
0DF0
0000
0380
0780
04C0
0840
0000
0000
0F80
1FC0
38E0
7060
6060
E060
C060
C060
C060
C0C0
61C0
7F80
3E00
ENDCHAR
STARTCHAR uni1ED8
ENCODING 7896
SWIDTH 720 0
DWIDTH 17 0
BBX 15 28 2 -5
BITMAP
00C0
01E0
0330
0610
0000
0000
03E0
0FF8
1C38
300C
700C
600C
E00E
C00C
C00C
C00C
C00C
C01C
C018
E038
70F0
3FE0
1F80
0000
0000
0C00
0C00
0C00
ENDCHAR
STARTCHAR uni1ED9
ENCODING 7897
SWIDTH 561 0
DWIDTH 13 0
BBX 11 24 1 -5
BITMAP
0380
0380
06C0
0860
0000
0000
0F80
1FC0
38E0
7060
6060
E060
C060
C060
C060
C0C0
61C0
7F80
3E00
0000
0000
1800
1800
1800
ENDCHAR
STARTCHAR uni1EDA
ENCODING 7898
SWIDTH 713 0
DWIDTH 17 0
BBX 18 23 2 0
BITMAP
003000
006000
00C000
008000
000000
0000C0
03E1C0
0FF980
1C3F00
300C00
700C00
600C00
E00E00
C00C00
C00C00
C00C00
C00C00
C01C00
C01800
E03800
70F000
3FE000
1F8000
ENDCHAR
STARTCHAR uni1EDB
ENCODING 7899
SWIDTH 561 0
DWIDTH 13 0
BBX 15 19 1 0
BITMAP
00E0
00C0
0180
0300
000E
000C
0F8C
1FD8
38E0
7060
6060
E060
C060
C060
C060
C0C0
61C0
7F80
3E00
ENDCHAR
STARTCHAR uni1EDC
ENCODING 7900
SWIDTH 713 0
DWIDTH 17 0
BBX 18 23 2 0
BITMAP
030000
018000
018000
00C000
000000
0000C0
03E1C0
0FF980
1C3F00
300C00
700C00
600C00
E00E00
C00C00
C00C00
C00C00
C00C00
C01C00
C01800
E03800
70F000
3FE000
1F8000
ENDCHAR
STARTCHAR uni1EDD
ENCODING 7901
SWIDTH 561 0
DWIDTH 13 0
BBX 15 19 1 0
BITMAP
0E00
0600
0200
0300
000E
000C
0F8C
1FD8
38E0
7060
6060
E060
C060
C060
C060
C0C0
61C0
7F80
3E00
ENDCHAR
STARTCHAR uni1EDE
ENCODING 7902
SWIDTH 713 0
DWIDTH 17 0
BBX 18 24 2 0
BITMAP
00E000
003000
001000
007000
00C000
00C000
0000C0
03E1C0
0FF980
1C3F00
300C00
700C00
600C00
E00E00
C00C00
C00C00
C00C00
C00C00
C01C00
C01800
E03800
70F000
3FE000
1F8000
ENDCHAR
STARTCHAR uni1EDF
ENCODING 7903
SWIDTH 561 0
DWIDTH 13 0
BBX 15 21 1 0
BITMAP
0380
00C0
0040
01C0
0300
0300
000E
000C
0F8C
1FD8
38E0
7060
6060
E060
C060
C060
C060
C0C0
61C0
7F80
3E00
ENDCHAR
STARTCHAR uni1EE0
ENCODING 7904
SWIDTH 713 0
DWIDTH 17 0
BBX 18 22 2 0
BITMAP
038800
07F800
047000
000000
0000C0
03E1C0
0FF980
1C3F00
300C00
700C00
600C00
E00E00
C00C00
C00C00
C00C00
C00C00
C01C00
C01800
E03800
70F000
3FE000
1F8000
ENDCHAR
STARTCHAR uni1EE1
ENCODING 7905
SWIDTH 561 0
DWIDTH 13 0
BBX 15 18 1 0
BITMAP
0E20
0FE0
11C0
000E
000C
0F8C
1FD8
38E0
7060
6060
E060
C060
C060
C060
C0C0
61C0
7F80
3E00
ENDCHAR
STARTCHAR uni1EE2
ENCODING 7906
SWIDTH 713 0
DWIDTH 17 0
BBX 18 23 2 -5
BITMAP
0000C0
03E1C0
0FF980
1C3F00
300C00
700C00
600C00
E00E00
C00C00
C00C00
C00C00
C00C00
C01C00
C01800
E03800
70F000
3FE000
1F8000
000000
000000
0C0000
0C0000
0C0000
ENDCHAR
STARTCHAR uni1EE3
ENCODING 7907
SWIDTH 561 0
DWIDTH 13 0
BBX 15 20 1 -5
BITMAP
000E
000C
0F8C
1FD8
38E0
7060
6060
E060
C060
C060
C060
C0C0
61C0
7F80
3E00
0000
0000
1800
1800
1800
ENDCHAR
STARTCHAR uni1EE4
ENCODING 7908
SWIDTH 675 0
DWIDTH 16 0
BBX 14 22 2 -5
BITMAP
300C
300C
300C
300C
601C
6018
6018
6018
6018
C030
C030
C030
C030
C060
E0E0
7FC0
3F00
0000
0000
0C00
1C00
0800
ENDCHAR
STARTCHAR uni1EE5
ENCODING 7909
SWIDTH 577 0
DWIDTH 14 0
BBX 12 18 1 -5
BITMAP
3030
3030
3030
3060
6060
6060
6060
60E0
C0C0
C1C0
E3C0
7EC0
3CC0
0000
0000
0C00
1C00
0800
ENDCHAR
STARTCHAR uni1EE6
ENCODING 7910
SWIDTH 675 0
DWIDTH 16 0
BBX 14 24 2 0
BITMAP
01E0
0020
0030
00E0
0080
0080
0000
300C
300C
300C
300C
601C
6018
6018
6018
6018
C030
C030
C030
C030
C060
E0E0
7FC0
3F00
ENDCHAR
STARTCHAR uni1EE7
ENCODING 7911
SWIDTH 577 0
DWIDTH 14 0
BBX 12 21 1 0
BITMAP
03C0
0040
0060
01C0
0100
0100
0000
0000
3030
3030
3030
3060
6060
6060
6060
60E0
C0C0
C1C0
E3C0
7EC0
3CC0
ENDCHAR
STARTCHAR uni1EE8
ENCODING 7912
SWIDTH 722 0
DWIDTH 17 0
BBX 19 23 2 0
BITMAP
003000
006000
00C000
008000
000000
0000E0
300CC0
300DC0
300F80
300C00
601C00
601800
601800
601800
601800
C03000
C03000
C03000
C07000
C06000
E0E000
7FC000
3F0000
ENDCHAR
STARTCHAR uni1EE9
ENCODING 7913
SWIDTH 617 0
DWIDTH 15 0
BBX 16 19 1 0
BITMAP
0060
00C0
0180
0300
0003
0003
3037
303E
3038
3060
6060
6060
6060
60E0
C0C0
C1C0
E3C0
7EC0
3CC0
ENDCHAR
STARTCHAR uni1EEA
ENCODING 7914
SWIDTH 722 0
DWIDTH 17 0
BBX 19 23 2 0
BITMAP
030000
030000
018000
008000
000000
0000E0
300CC0
300DC0
300F80
300C00
601C00
601800
601800
601800
601800
C03000
C03000
C03000
C07000
C06000
E0E000
7FC000
3F0000
ENDCHAR
STARTCHAR uni1EEB
ENCODING 7915
SWIDTH 617 0
DWIDTH 15 0
BBX 16 19 1 0
BITMAP
0600
0600
0300
0100
0003
0003
3037
303E
3038
3060
6060
6060
6060
60E0
C0C0
C1C0
E3C0
7EC0
3CC0
ENDCHAR
STARTCHAR uni1EEC
ENCODING 7916
SWIDTH 722 0
DWIDTH 17 0
BBX 19 24 2 0
BITMAP
00E000
003000
003000
00E000
00C000
008000
0000E0
300CC0
300DC0
300F80
300C00
601C00
601800
601800
601800
601800
C03000
C03000
C03000
C07000
C06000
E0E000
7FC000
3F0000
ENDCHAR
STARTCHAR uni1EED
ENCODING 7917
SWIDTH 617 0
DWIDTH 15 0
BBX 16 21 1 0
BITMAP
01C0
0060
0060
01C0
0100
0100
0003
0003
3037
303E
3038
3060
6060
6060
6060
60E0
C0C0
C1C0
E3C0
7EC0
3CC0
ENDCHAR
STARTCHAR uni1EEE
ENCODING 7918
SWIDTH 722 0
DWIDTH 17 0
BBX 19 22 2 0
BITMAP
038800
07F800
047000
000000
0000E0
300CC0
300DC0
300F80
300C00
601C00
601800
601800
601800
601800
C03000
C03000
C03000
C07000
C06000
E0E000
7FC000
3F0000
ENDCHAR
STARTCHAR uni1EEF
ENCODING 7919
SWIDTH 617 0
DWIDTH 15 0
BBX 16 18 1 0
BITMAP
0710
0FF0
08E0
0003
0003
3037
303E
3038
3060
6060
6060
6060
60E0
C0C0
C1C0
E3C0
7EC0
3CC0
ENDCHAR
STARTCHAR uni1EF0
ENCODING 7920
SWIDTH 722 0
DWIDTH 17 0
BBX 19 23 2 -5
BITMAP
0000E0
300CC0
300DC0
300F80
300C00
601C00
601800
601800
601800
601800
C03000
C03000
C03000
C07000
C06000
E0E000
7FC000
3F0000
000000
000000
0C0000
1C0000
080000
ENDCHAR
STARTCHAR uni1EF1
ENCODING 7921
SWIDTH 617 0
DWIDTH 15 0
BBX 16 20 1 -5
BITMAP
0003
0003
3037
303E
3038
3060
6060
6060
6060
60E0
C0C0
C1C0
E3C0
7EC0
3CC0
0000
0000
0C00
1C00
0800
ENDCHAR
STARTCHAR Ygrave
ENCODING 7922
SWIDTH 502 0
DWIDTH 12 0
BBX 12 23 2 0
BITMAP
1800
0C00
0400
0600
0000
0000
C030
6060
60E0
60C0
6180
3380
3300
3600
3C00
1C00
1800
1800
1800
3000
3000
3000
3000
ENDCHAR
STARTCHAR ygrave
ENCODING 7923
SWIDTH 461 0
DWIDTH 11 0
BBX 14 25 -2 -6
BITMAP
0300
0180
0180
00C0
0000
0000
180C
1818
0818
0C30
0C30
0C60
0C60
0CC0
0CC0
0580
0580
0700
0700
0600
0E00
0C00
1800
F800
E000
ENDCHAR
STARTCHAR uni1EF4
ENCODING 7924
SWIDTH 502 0
DWIDTH 12 0
BBX 12 22 2 -5
BITMAP
C030
6060
60E0
60C0
6180
3380
3300
3600
3C00
1C00
1800
1800
1800
3000
3000
3000
3000
0000
0000
6000
6000
6000
ENDCHAR
STARTCHAR uni1EF5
ENCODING 7925
SWIDTH 461 0
DWIDTH 11 0
BBX 14 19 -2 -6
BITMAP
180C
1818
0818
0C30
0C30
0C60
0C60
0CC0
0CC0
0580
0580
0700
0700
0600
0E00
0C60
18E0
F840
E000
ENDCHAR
STARTCHAR uni1EF6
ENCODING 7926
SWIDTH 502 0
DWIDTH 12 0
BBX 12 24 2 0
BITMAP
0700
0180
0080
0380
0600
0600
0000
C030
6060
60E0
60C0
6180
3380
3300
3600
3C00
1C00
1800
1800
1800
3000
3000
3000
3000
ENDCHAR
STARTCHAR uni1EF7
ENCODING 7927
SWIDTH 461 0
DWIDTH 11 0
BBX 14 27 -2 -6
BITMAP
00E0
0030
0030
00E0
00C0
0080
0000
0000
180C
1818
0818
0C30
0C30
0C60
0C60
0CC0
0CC0
0580
0580
0700
0700
0600
0E00
0C00
1800
F800
E000
ENDCHAR
STARTCHAR uni1EF8
ENCODING 7928
SWIDTH 502 0
DWIDTH 12 0
BBX 12 22 2 0
BITMAP
1C60
1FC0
3180
0000
0000
C030
6060
60E0
60C0
6180
3380
3300
3600
3C00
1C00
1800
1800
1800
3000
3000
3000
3000
ENDCHAR
STARTCHAR uni1EF9
ENCODING 7929
SWIDTH 461 0
DWIDTH 11 0
BBX 14 24 -2 -6
BITMAP
0388
07F8
0470
0000
0000
180C
1818
0818
0C30
0C30
0C60
0C60
0CC0
0CC0
0580
0580
0700
0700
0600
0E00
0C00
1800
F800
E000
ENDCHAR
STARTCHAR uni1F4D
ENCODING 8013
SWIDTH 778 0
DWIDTH 19 0
BBX 20 17 -2 0
BITMAP
261F80
4C7FC0
C8E0E0
79C060
018070
030030
030030
070030
060030
060070
060060
060060
0700E0
0301C0
038380
01FF00
007C00
ENDCHAR
STARTCHAR uni2000
ENCODING 8192
SWIDTH 500 0
DWIDTH 12 0
BBX 1 1 0 0
BITMAP
00
ENDCHAR
STARTCHAR uni2001
ENCODING 8193
SWIDTH 1000 0
DWIDTH 24 0
BBX 1 1 0 0
BITMAP
00
ENDCHAR
STARTCHAR uni2002
ENCODING 8194
SWIDTH 500 0
DWIDTH 12 0
BBX 1 1 0 0
BITMAP
00
ENDCHAR
STARTCHAR uni2003
ENCODING 8195
SWIDTH 1000 0
DWIDTH 24 0
BBX 1 1 0 0
BITMAP
00
ENDCHAR
STARTCHAR uni2004
ENCODING 8196
SWIDTH 333 0
DWIDTH 8 0
BBX 1 1 0 0
BITMAP
00
ENDCHAR
STARTCHAR uni2005
ENCODING 8197
SWIDTH 250 0
DWIDTH 6 0
BBX 1 1 0 0
BITMAP
00
ENDCHAR
STARTCHAR uni2006
ENCODING 8198
SWIDTH 166 0
DWIDTH 4 0
BBX 1 1 0 0
BITMAP
00
ENDCHAR
STARTCHAR uni2007
ENCODING 8199
SWIDTH 559 0
DWIDTH 13 0
BBX 1 1 0 0
BITMAP
00
ENDCHAR
STARTCHAR uni2008
ENCODING 8200
SWIDTH 266 0
DWIDTH 6 0
BBX 1 1 0 0
BITMAP
00
ENDCHAR
STARTCHAR uni2009
ENCODING 8201
SWIDTH 200 0
DWIDTH 5 0
BBX 1 1 0 0
BITMAP
00
ENDCHAR
STARTCHAR uni200A
ENCODING 8202
SWIDTH 100 0
DWIDTH 2 0
BBX 1 1 0 0
BITMAP
00
ENDCHAR
STARTCHAR uni200B
ENCODING 8203
SWIDTH 0 0
DWIDTH 0 0
BBX 1 1 0 0
BITMAP
00
ENDCHAR
STARTCHAR endash
ENCODING 8211
SWIDTH 479 0
DWIDTH 12 0
BBX 10 2 1 5
BITMAP
FFC0
FF80
ENDCHAR
STARTCHAR emdash
ENCODING 8212
SWIDTH 959 0
DWIDTH 23 0
BBX 21 2 1 5
BITMAP
FFFFF8
FFFFF8
ENDCHAR
STARTCHAR afii00208
ENCODING 8213
SWIDTH 959 0
DWIDTH 23 0
BBX 21 2 1 5
BITMAP
FFFFF8
FFFFF8
ENDCHAR
STARTCHAR underscoredbl
ENCODING 8215
SWIDTH 394 0
DWIDTH 9 0
BBX 10 6 -2 -6
BITMAP
FFC0
FFC0
0000
0000
FF80
FF80
ENDCHAR
STARTCHAR quoteleft
ENCODING 8216
SWIDTH 169 0
DWIDTH 4 0
BBX 4 6 2 11
BITMAP
30
20
60
60
C0
C0
ENDCHAR
STARTCHAR quoteright
ENCODING 8217
SWIDTH 169 0
DWIDTH 4 0
BBX 4 6 2 11
BITMAP
30
70
60
60
C0
80
ENDCHAR
STARTCHAR quotesinglbase
ENCODING 8218
SWIDTH 240 0
DWIDTH 6 0
BBX 4 6 -1 -3
BITMAP
30
30
60
60
C0
C0
ENDCHAR
STARTCHAR quotereversed
ENCODING 8219
SWIDTH 169 0
DWIDTH 4 0
BBX 2 6 3 11
BITMAP
C0
C0
C0
C0
C0
C0
ENDCHAR
STARTCHAR quotedblleft
ENCODING 8220
SWIDTH 351 0
DWIDTH 8 0
BBX 8 6 2 11
BITMAP
31
23
66
66
CE
CC
ENDCHAR
STARTCHAR quotedblright
ENCODING 8221
SWIDTH 351 0
DWIDTH 8 0
BBX 8 6 2 11
BITMAP
33
73
66
66
CC
8C
ENDCHAR
STARTCHAR quotedblbase
ENCODING 8222
SWIDTH 418 0
DWIDTH 10 0
BBX 9 6 -1 -3
BITMAP
3380
3300
6300
6600
C600
CC00
ENDCHAR
STARTCHAR dagger
ENCODING 8224
SWIDTH 465 0
DWIDTH 11 0
BBX 8 18 3 0
BITMAP
0C
0C
08
18
FF
FF
10
10
30
30
30
20
60
60
60
60
E0
C0
ENDCHAR
STARTCHAR daggerdbl
ENCODING 8225
SWIDTH 476 0
DWIDTH 11 0
BBX 11 18 1 0
BITMAP
0300
0300
0300
0200
3FE0
3FC0
0600
0600
0C00
0C00
0C00
0C00
FF80
FF80
1800
1800
1800
3800
ENDCHAR
STARTCHAR bullet
ENCODING 8226
SWIDTH 377 0
DWIDTH 9 0
BBX 6 6 2 6
BITMAP
38
7C
FC
FC
F8
70
ENDCHAR
STARTCHAR ellipsis
ENCODING 8230
SWIDTH 763 0
DWIDTH 18 0
BBX 16 3 0 0
BITMAP
6186
E187
6186
ENDCHAR
STARTCHAR perthousand
ENCODING 8240
SWIDTH 1117 0
DWIDTH 27 0
BBX 24 17 2 0
BITMAP
1C0600
3E0C00
620800
C21800
C63000
C66000
C64000
CCDE1E
FDBF3E
732363
026363
066343
0C43C2
1842C6
1046C6
307C7C
603878
ENDCHAR
STARTCHAR minute
ENCODING 8242
SWIDTH 216 0
DWIDTH 5 0
BBX 3 6 3 11
BITMAP
E0
C0
C0
C0
80
80
ENDCHAR
STARTCHAR second
ENCODING 8243
SWIDTH 386 0
DWIDTH 9 0
BBX 7 6 3 11
BITMAP
EE
CC
CC
CC
88
88
ENDCHAR
STARTCHAR guilsinglleft
ENCODING 8249
SWIDTH 283 0
DWIDTH 7 0
BBX 5 10 1 1
BITMAP
08
18
30
60
C0
C0
60
60
30
30
ENDCHAR
STARTCHAR guilsinglright
ENCODING 8250
SWIDTH 283 0
DWIDTH 7 0
BBX 5 10 1 1
BITMAP
40
60
20
30
30
38
70
60
C0
80
ENDCHAR
STARTCHAR exclamdbl
ENCODING 8252
SWIDTH 479 0
DWIDTH 12 0
BBX 12 17 0 0
BITMAP
1C30
1830
1830
1830
3060
3060
3060
3060
2040
2040
60C0
60C0
0000
0000
C180
E1C0
C180
ENDCHAR
STARTCHAR fraction
ENCODING 8260
SWIDTH 130 0
DWIDTH 3 0
BBX 13 17 -5 0
BITMAP
0008
0018
0030
0060
0040
00C0
0180
0300
0200
0600
0C00
1800
1000
3000
6000
C000
8000
ENDCHAR
STARTCHAR zerosuperior
ENCODING 8304
SWIDTH 350 0
DWIDTH 8 0
BBX 7 10 2 7
BITMAP
3C
7E
46
C6
C6
86
84
8C
D8
70
ENDCHAR
STARTCHAR foursuperior
ENCODING 8308
SWIDTH 350 0
DWIDTH 8 0
BBX 8 10 1 7
BITMAP
02
06
0A
16
24
44
FF
0C
0C
08
ENDCHAR
STARTCHAR fivesuperior
ENCODING 8309
SWIDTH 350 0
DWIDTH 8 0
BBX 7 10 2 7
BITMAP
3E
20
60
40
78
5C
04
0C
9C
F0
ENDCHAR
STARTCHAR sixsuperior
ENCODING 8310
SWIDTH 350 0
DWIDTH 8 0
BBX 7 10 2 7
BITMAP
1E
30
60
40
FC
EC
C6
84
CC
78
ENDCHAR
STARTCHAR sevensuperior
ENCODING 8311
SWIDTH 350 0
DWIDTH 8 0
BBX 7 10 2 7
BITMAP
7E
06
04
0C
08
18
30
20
60
C0
ENDCHAR
STARTCHAR eightsuperior
ENCODING 8312
SWIDTH 350 0
DWIDTH 8 0
BBX 7 10 2 7
BITMAP
3C
66
46
66
38
EC
84
84
DC
78
ENDCHAR
STARTCHAR ninesuperior
ENCODING 8313
SWIDTH 350 0
DWIDTH 8 0
BBX 7 10 2 7
BITMAP
3C
6E
46
C6
C6
7E
04
0C
38
F0
ENDCHAR
STARTCHAR nsuperior
ENCODING 8319
SWIDTH 368 0
DWIDTH 9 0
BBX 7 8 2 9
BITMAP
2E
72
62
42
46
C6
C4
84
ENDCHAR
STARTCHAR franc
ENCODING 8355
SWIDTH 550 0
DWIDTH 13 0
BBX 13 17 1 0
BITMAP
0FF8
0FF8
0C00
0C00
0C00
1800
1800
1800
1FE0
3FE0
3000
3000
FE00
FE00
6000
6000
6000
ENDCHAR
STARTCHAR afii08941
ENCODING 8356
SWIDTH 550 0
DWIDTH 13 0
BBX 14 17 0 0
BITMAP
01F0
03FC
0708
0600
0600
0400
0C00
3FC0
3FC0
0C00
7FC0
7FC0
1800
1800
3000
FFE0
FFE0
ENDCHAR
STARTCHAR peseta
ENCODING 8359
SWIDTH 725 0
DWIDTH 17 0
BBX 16 17 1 0
BITMAP
1F00
1FC0
18C0
18E0
3060
3064
30CC
30FF
73FF
7F98
7E18
6018
6010
C030
C030
C03E
C01E
ENDCHAR
STARTCHAR uni20AB
ENCODING 8363
SWIDTH 577 0
DWIDTH 14 0
BBX 15 22 0 -4
BITMAP
000C
000C
01FE
01FE
0018
0798
0FD8
1C78
3838
3030
3030
6030
6070
6060
60E0
71E0
3F60
1E60
0000
0000
FFC0
FFC0
ENDCHAR
STARTCHAR Euro
ENCODING 8364
SWIDTH 550 0
DWIDTH 13 0
BBX 13 17 1 0
BITMAP
01F0
03F8
0708
0C00
1C00
1800
7FC0
7F80
3000
3000
FF00
FF00
3000
3000
3800
1FC0
0FC0
ENDCHAR
STARTCHAR afii61248
ENCODING 8453
SWIDTH 777 0
DWIDTH 19 0
BBX 14 17 3 0
BITMAP
3E0C
6018
4030
C020
C060
C0C0
C180
7900
0300
0678
0CD8
098C
190C
310C
6108
C198
C0F0
ENDCHAR
STARTCHAR afii61289
ENCODING 8467
SWIDTH 500 0
DWIDTH 12 0
BBX 9 17 2 0
BITMAP
1E00
1A00
3300
3300
3300
3300
3200
3600
3C00
3000
F000
3000
3000
3080
3100
1F00
0E00
ENDCHAR
STARTCHAR afii61352
ENCODING 8470
SWIDTH 950 0
DWIDTH 23 0
BBX 21 17 1 0
BITMAP
1C0400
1C0C00
1C0C00
160C00
360C00
360800
3318F0
3319F8
631B18
631318
61B318
61B318
41B3F0
C0F1E0
C0E000
C0E3E0
C067E0
ENDCHAR
STARTCHAR uni2120
ENCODING 8480
SWIDTH 762 0
DWIDTH 18 0
BBX 15 9 1 8
BITMAP
7986
C986
818A
C1CA
714A
1952
0932
9922
F000
ENDCHAR
STARTCHAR trademark
ENCODING 8482
SWIDTH 749 0
DWIDTH 18 0
BBX 16 8 1 9
BITMAP
FDC3
11C7
11C7
11EF
11AB
11AB
11BB
1193
ENDCHAR
STARTCHAR Omega
ENCODING 8486
SWIDTH 732 0
DWIDTH 18 0
BBX 17 17 0 0
BITMAP
01F800
07FE00
0F0F00
0C0300
180300
380380
300180
300380
300300
300300
300300
300600
180C00
181C00
0C3000
FE7F00
FC7F00
ENDCHAR
STARTCHAR estimated
ENCODING 8494
SWIDTH 619 0
DWIDTH 15 0
BBX 13 13 1 0
BITMAP
0F80
1860
2030
6030
6038
6038
FFF8
6000
6000
6010
2030
1060
0F80
ENDCHAR
STARTCHAR oneeighth
ENCODING 8539
SWIDTH 752 0
DWIDTH 18 0
BBX 16 17 1 0
BITMAP
1C0C
3808
6818
1830
1860
1040
10C0
319E
333B
3231
0633
0C1C
1836
1062
3042
6066
C03C
ENDCHAR
STARTCHAR threeeighths
ENCODING 8540
SWIDTH 812 0
DWIDTH 20 0
BBX 18 17 1 0
BITMAP
3E0300
260600
020600
060C00
381800
0C3000
063000
066780
CCCCC0
F988C0
018D80
030700
061B00
0C3180
0C3180
183B00
301E00
ENDCHAR
STARTCHAR fiveeighths
ENCODING 8541
SWIDTH 818 0
DWIDTH 20 0
BBX 18 17 1 0
BITMAP
3E0300
300600
200400
600C00
7C1800
0C3000
062000
066780
CCCCC0
F988C0
010C80
030700
061B00
0C1180
083180
181B80
301E00
ENDCHAR
STARTCHAR seveneighths
ENCODING 8542
SWIDTH 750 0
DWIDTH 18 0
BBX 16 17 1 0
BITMAP
3F0C
0308
0618
0430
0C60
1840
10C0
319E
6333
6231
0633
0C1C
1836
1042
3042
6066
C03C
ENDCHAR
STARTCHAR partialdiff
ENCODING 8706
SWIDTH 581 0
DWIDTH 14 0
BBX 12 18 1 0
BITMAP
0F80
0FC0
00E0
0060
0030
0030
0FB0
1FF0
38F0
7070
6060
6060
C060
C0C0
E0C0
6380
7F00
3E00
ENDCHAR
STARTCHAR Delta
ENCODING 8710
SWIDTH 558 0
DWIDTH 13 0
BBX 13 17 -1 0
BITMAP
0060
00E0
00A0
01A0
01B0
0330
0330
0630
0C30
0C30
1830
1830
3010
3018
6018
7FF8
FFF8
ENDCHAR
STARTCHAR product
ENCODING 8719
SWIDTH 741 0
DWIDTH 18 0
BBX 13 23 3 -6
BITMAP
FFF8
FFF8
C018
C018
C018
C018
C018
C018
C018
C018
C018
C018
C018
C018
C018
C018
C018
C018
C018
C018
C018
C018
C018
ENDCHAR
STARTCHAR summation
ENCODING 8721
SWIDTH 630 0
DWIDTH 15 0
BBX 14 23 2 -6
BITMAP
FFF8
7FF8
7000
3000
1800
0C00
0E00
0700
0300
0180
01C0
01C0
0180
0300
0700
0600
0C00
1800
3800
3000
6000
FFFC
FFFC
ENDCHAR
STARTCHAR minus
ENCODING 8722
SWIDTH 550 0
DWIDTH 13 0
BBX 11 2 1 7
BITMAP
FFE0
FFE0
ENDCHAR
STARTCHAR radical
ENCODING 8730
SWIDTH 548 0
DWIDTH 13 0
BBX 14 20 1 0
BITMAP
000C
0008
0018
0018
0010
0030
0030
0020
0060
F060
F040
10C0
18C0
1880
0980
0D80
0D00
0700
0700
0600
ENDCHAR
STARTCHAR infinity
ENCODING 8734
SWIDTH 707 0
DWIDTH 17 0
BBX 14 7 2 5
BITMAP
7870
ECF8
C70C
830C
C70C
EDD8
7870
ENDCHAR
STARTCHAR integral
ENCODING 8747
SWIDTH 383 0
DWIDTH 9 0
BBX 9 24 0 -6
BITMAP
0380
0780
0C00
0C00
0C00
0C00
0C00
0C00
0C00
0C00
0C00
0C00
0C00
0C00
0C00
0C00
0C00
0C00
0C00
0C00
0C00
0C00
F800
F000
ENDCHAR
STARTCHAR approxequal
ENCODING 8776
SWIDTH 550 0
DWIDTH 13 0
BBX 12 8 1 4
BITMAP
7C10
FFF0
83E0
0000
0000
7C10
FFF0
83E0
ENDCHAR
STARTCHAR notequal
ENCODING 8800
SWIDTH 550 0
DWIDTH 13 0
BBX 11 13 1 2
BITMAP
0080
0180
0180
FFE0
FFE0
0600
0600
0C00
FFE0
FFE0
1800
1000
1000
ENDCHAR
STARTCHAR lessequal
ENCODING 8804
SWIDTH 550 0
DWIDTH 13 0
BBX 11 14 1 0
BITMAP
0020
00E0
03C0
0E00
3800
E000
7000
1E00
07C0
00E0
0020
0000
FFE0
FFE0
ENDCHAR
STARTCHAR greaterequal
ENCODING 8805
SWIDTH 550 0
DWIDTH 13 0
BBX 11 14 1 0
BITMAP
8000
F000
3C00
0F00
01C0
0060
01E0
0780
3C00
F000
C000
0000
FFE0
FFE0
ENDCHAR
STARTCHAR lozenge
ENCODING 9674
SWIDTH 583 0
DWIDTH 14 0
BBX 11 17 2 0
BITMAP
0400
0E00
1E00
1B00
3180
3180
60C0
C060
C060
C060
60C0
3180
3180
1B00
1E00
0E00
0400
ENDCHAR
STARTCHAR ff
ENCODING 64256
SWIDTH 630 0
DWIDTH 15 0
BBX 21 24 -3 -6
BITMAP
007878
00F8F8
01C180
018180
018300
07FFE0
0FFFE0
030300
030300
030600
030600
060600
060600
060600
060C00
060C00
0C0C00
0C0C00
0C0C00
0C1800
1C1800
183800
F8F000
F0E000
ENDCHAR
STARTCHAR uniFB01
ENCODING 64257
SWIDTH 568 0
DWIDTH 14 0
BBX 17 24 -3 -6
BITMAP
007980
00F980
01C100
018000
018000
07E300
0FE300
030600
030600
030600
030600
060600
060C00
060C00
060C00
060C00
0C0C00
0C1800
0C0000
0C0000
1C0000
180000
F80000
F00000
ENDCHAR
STARTCHAR uniFB02
ENCODING 64258
SWIDTH 568 0
DWIDTH 14 0
BBX 17 24 -3 -6
BITMAP
007980
00F980
01C180
018300
018300
07E300
0FE300
030600
030600
030600
030600
060600
060C00
060C00
060C00
060C00
0C0C00
0C1800
0C0000
0C0000
1C0000
180000
F80000
F00000
ENDCHAR
STARTCHAR uniFB03
ENCODING 64259
SWIDTH 886 0
DWIDTH 21 0
BBX 24 24 -3 -6
BITMAP
00787B
00F8FB
01C180
018180
018300
07FFE6
0FFFE6
030306
030306
030606
03060C
06060C
06060C
06060C
060C0C
060C18
0C0C18
0C0C18
0C0C00
0C1800
1C1800
183800
F8F000
F0E000
ENDCHAR
STARTCHAR uniFB04
ENCODING 64260
SWIDTH 886 0
DWIDTH 21 0
BBX 25 24 -3 -6
BITMAP
00787980
00F8FB00
01C18300
01818300
01830300
07FFE300
0FFFE600
03030600
03030600
03060600
03060C00
06060C00
06060C00
06060C00
060C0C00
060C1800
0C0C1800
0C0C1800
0C0C0000
0C180000
1C180000
18380000
F8F00000
F0E00000
ENDCHAR
STARTCHAR uniFEFF
ENCODING 65279
SWIDTH 0 0
DWIDTH 0 0
BBX 1 1 0 0
BITMAP
00
ENDCHAR
STARTCHAR uniFFFC
ENCODING 65532
SWIDTH 1000 0
DWIDTH 24 0
BBX 22 22 1 -4
BITMAP
F73B9C
800004
800004
800004
000000
800004
800004
8F3C64
19B660
18B660
90BC64
98B664
99B664
0F3CC0
800004
800004
800004
000000
800004
800004
800004
F73B9C
ENDCHAR
STARTCHAR uniFFFD
ENCODING 65533
SWIDTH 1000 0
DWIDTH 24 0
BBX 22 22 1 -4
BITMAP
002000
007800
00FC00
01FE00
03FF00
070780
0E01C0
1F71E0
3FF1F0
7FF1F8
FFE3FC
FFC7FC
7F8FF8
3F8FF0
1FFFE0
0FFFC0
078F80
038F00
018E00
00FC00
007800
003000
ENDCHAR
STARTCHAR .notdef
ENCODING -1
SWIDTH 600 0
DWIDTH 14 0
BBX 10 17 2 0
BITMAP
FFC0
8040
8040
8040
8040
8040
8040
8040
8040
8040
8040
8040
8040
8040
8040
8040
FFC0
ENDCHAR
STARTCHAR null
ENCODING -1
SWIDTH 0 0
DWIDTH 0 0
BBX 1 1 0 0
BITMAP
00
ENDCHAR
STARTCHAR nonmarkingreturn
ENCODING -1
SWIDTH 509 0
DWIDTH 12 0
BBX 1 1 0 0
BITMAP
00
ENDCHAR
STARTCHAR I.alt
ENCODING -1
SWIDTH 317 0
DWIDTH 8 0
BBX 9 17 0 0
BITMAP
1F80
1F80
0600
0C00
0C00
0C00
0C00
1800
1800
1800
1800
1800
3000
3000
3000
F800
F800
ENDCHAR
STARTCHAR Igrave.alt
ENCODING -1
SWIDTH 317 0
DWIDTH 8 0
BBX 9 23 0 0
BITMAP
0C00
0C00
0600
0200
0000
0000
1F80
1F80
0600
0C00
0C00
0C00
0C00
1800
1800
1800
1800
1800
3000
3000
3000
F800
F800
ENDCHAR
STARTCHAR Iacute.alt
ENCODING -1
SWIDTH 317 0
DWIDTH 8 0
BBX 10 23 0 0
BITMAP
00C0
0180
0300
0600
0000
0000
1F80
1F80
0600
0C00
0C00
0C00
0C00
1800
1800
1800
1800
1800
3000
3000
3000
F800
F800
ENDCHAR
STARTCHAR Icircumflex.alt
ENCODING -1
SWIDTH 317 0
DWIDTH 8 0
BBX 10 23 0 0
BITMAP
0300
0780
0D80
18C0
0000
0000
1F80
1F80
0600
0C00
0C00
0C00
0C00
1800
1800
1800
1800
1800
3000
3000
3000
F800
F800
ENDCHAR
STARTCHAR Idieresis.alt
ENCODING -1
SWIDTH 317 0
DWIDTH 8 0
BBX 10 21 0 0
BITMAP
08C0
18C0
0000
0000
1F80
1F80
0600
0C00
0C00
0C00
0C00
1800
1800
1800
1800
1800
3000
3000
3000
F800
F800
ENDCHAR
STARTCHAR Itilde.alt
ENCODING -1
SWIDTH 317 0
DWIDTH 8 0
BBX 11 22 0 0
BITMAP
0E60
1FC0
31C0
0000
0000
1F80
1F80
0600
0C00
0C00
0C00
0C00
1800
1800
1800
1800
1800
3000
3000
3000
F800
F800
ENDCHAR
STARTCHAR Imacron.alt
ENCODING -1
SWIDTH 317 0
DWIDTH 8 0
BBX 10 21 0 0
BITMAP
1FC0
1FC0
0000
0000
1F80
1F80
0600
0C00
0C00
0C00
0C00
1800
1800
1800
1800
1800
3000
3000
3000
F800
F800
ENDCHAR
STARTCHAR Ibreve.alt
ENCODING -1
SWIDTH 317 0
DWIDTH 8 0
BBX 10 22 0 0
BITMAP
1840
0F80
0F00
0000
0000
1F80
1F80
0600
0C00
0C00
0C00
0C00
1800
1800
1800
1800
1800
3000
3000
3000
F800
F800
ENDCHAR
STARTCHAR Iogonek.alt
ENCODING -1
SWIDTH 317 0
DWIDTH 8 0
BBX 9 22 0 -5
BITMAP
1F80
1F80
0600
0C00
0C00
0C00
0C00
1800
1800
1800
1800
1800
3000
3000
3000
F800
F800
2000
4000
C000
C000
7000
ENDCHAR
STARTCHAR Idotaccent.alt
ENCODING -1
SWIDTH 317 0
DWIDTH 8 0
BBX 9 22 0 0
BITMAP
0300
0700
0200
0000
0000
1F80
1F80
0600
0C00
0C00
0C00
0C00
1800
1800
1800
1800
1800
3000
3000
3000
F800
F800
ENDCHAR
STARTCHAR IJ.alt
ENCODING -1
SWIDTH 583 0
DWIDTH 14 0
BBX 14 21 0 -4
BITMAP
1F8C
1F8C
060C
0C18
0C18
0C18
0C18
1818
1830
1830
1830
1830
3070
3060
3060
F860
F860
00C0
01C0
0F80
0F00
ENDCHAR
STARTCHAR Iotatonos.alt
ENCODING -1
SWIDTH 439 0
DWIDTH 11 0
BBX 11 19 1 0
BITMAP
3000
3000
67E0
47E0
C180
0300
0300
0300
0300
0600
0600
0600
0600
0600
0C00
0C00
0C00
3E00
3E00
ENDCHAR
STARTCHAR Iota.alt
ENCODING -1
SWIDTH 317 0
DWIDTH 8 0
BBX 9 17 0 0
BITMAP
1F80
1F80
0600
0C00
0C00
0C00
0C00
1800
1800
1800
1800
1800
3000
3000
3000
F800
F800
ENDCHAR
STARTCHAR Iotadieresis.alt
ENCODING -1
SWIDTH 317 0
DWIDTH 8 0
BBX 10 21 0 0
BITMAP
08C0
18C0
0000
0000
1F80
1F80
0600
0C00
0C00
0C00
0C00
1800
1800
1800
1800
1800
3000
3000
3000
F800
F800
ENDCHAR
STARTCHAR afii10055.alt
ENCODING -1
SWIDTH 317 0
DWIDTH 8 0
BBX 9 17 0 0
BITMAP
1F80
1F80
0600
0C00
0C00
0C00
0C00
1800
1800
1800
1800
1800
3000
3000
3000
F800
F800
ENDCHAR
STARTCHAR afii10056.alt
ENCODING -1
SWIDTH 317 0
DWIDTH 8 0
BBX 10 21 0 0
BITMAP
08C0
18C0
0000
0000
1F80
1F80
0600
0C00
0C00
0C00
0C00
1800
1800
1800
1800
1800
3000
3000
3000
F800
F800
ENDCHAR
STARTCHAR cyrillicbreve
ENCODING -1
SWIDTH 562 0
DWIDTH 14 0
BBX 9 4 4 15
BITMAP
C180
C300
FF00
7C00
ENDCHAR
STARTCHAR caroncommaaccent
ENCODING -1
SWIDTH 477 0
DWIDTH 11 0
BBX 4 4 6 14
BITMAP
30
60
40
C0
ENDCHAR
STARTCHAR commaaccent
ENCODING -1
SWIDTH 477 0
DWIDTH 11 0
BBX 3 4 2 -5
BITMAP
60
60
C0
80
ENDCHAR
STARTCHAR commaaccentrotate
ENCODING -1
SWIDTH 477 0
DWIDTH 11 0
BBX 3 4 6 15
BITMAP
20
60
40
C0
ENDCHAR
STARTCHAR dasiaoxia
ENCODING -1
SWIDTH 418 0
DWIDTH 10 0
BBX 6 4 4 13
BITMAP
6C
CC
D8
D0
ENDCHAR
STARTCHAR uni04C0.alt
ENCODING -1
SWIDTH 317 0
DWIDTH 8 0
BBX 9 17 0 0
BITMAP
1F80
1F80
0600
0C00
0C00
0C00
0C00
1800
1800
1800
1800
1800
3000
3000
3000
F800
F800
ENDCHAR
STARTCHAR uni04CF.alt
ENCODING -1
SWIDTH 317 0
DWIDTH 8 0
BBX 9 17 0 0
BITMAP
1F80
1F80
0600
0C00
0C00
0C00
0C00
1800
1800
1800
1800
1800
3000
3000
3000
F800
F800
ENDCHAR
STARTCHAR uni1EC8.alt
ENCODING -1
SWIDTH 317 0
DWIDTH 8 0
BBX 9 24 0 0
BITMAP
0780
0080
0080
0380
0200
0200
0000
1F80
1F80
0600
0C00
0C00
0C00
0C00
1800
1800
1800
1800
1800
3000
3000
3000
F800
F800
ENDCHAR
STARTCHAR uni1ECA.alt
ENCODING -1
SWIDTH 317 0
DWIDTH 8 0
BBX 9 22 0 -5
BITMAP
1F80
1F80
0600
0C00
0C00
0C00
0C00
1800
1800
1800
1800
1800
3000
3000
3000
F800
F800
0000
0000
6000
6000
6000
ENDCHAR
STARTCHAR circumflexacutecomb
ENCODING -1
SWIDTH 0 0
DWIDTH 0 0
BBX 10 5 -9 15
BITMAP
00C0
0180
3B00
7C00
C400
ENDCHAR
STARTCHAR circumflexgravecomb
ENCODING -1
SWIDTH 0 0
DWIDTH 0 0
BBX 8 5 -11 15
BITMAP
C0
40
2E
1F
31
ENDCHAR
STARTCHAR circumflexhookcomb
ENCODING -1
SWIDTH 0 0
DWIDTH 0 0
BBX 9 6 -9 15
BITMAP
0380
0080
0180
3B00
7C00
C400
ENDCHAR
STARTCHAR circumflextildecomb
ENCODING -1
SWIDTH 0 0
DWIDTH 0 0
BBX 8 7 -9 15
BITMAP
79
DF
00
18
38
6C
86
ENDCHAR
STARTCHAR breveacutecomb
ENCODING -1
SWIDTH 0 0
DWIDTH 0 0
BBX 7 6 -9 15
BITMAP
06
0C
18
C6
FC
78
ENDCHAR
STARTCHAR brevegravecomb
ENCODING -1
SWIDTH 0 0
DWIDTH 0 0
BBX 7 6 -9 15
BITMAP
60
30
10
C6
FC
78
ENDCHAR
STARTCHAR brevehookcomb
ENCODING -1
SWIDTH 0 0
DWIDTH 0 0
BBX 7 7 -9 15
BITMAP
18
04
0C
10
C6
FC
78
ENDCHAR
STARTCHAR brevetildecomb
ENCODING -1
SWIDTH 0 0
DWIDTH 0 0
BBX 8 7 -9 15
BITMAP
71
DF
00
00
C6
FC
78
ENDCHAR
STARTCHAR cyrillichookleft
ENCODING -1
SWIDTH 205 0
DWIDTH 5 0
BBX 4 5 -2 -5
BITMAP
30
10
10
30
E0
ENDCHAR
STARTCHAR one.pnum
ENCODING -1
SWIDTH 375 0
DWIDTH 9 0
BBX 7 17 2 0
BITMAP
0E
3C
7C
EC
8C
18
18
18
18
18
30
30
30
30
60
60
60
ENDCHAR
STARTCHAR zero.os
ENCODING -1
SWIDTH 554 0
DWIDTH 13 0
BBX 11 13 1 0
BITMAP
0F80
1FC0
38E0
7060
6060
E060
C060
C060
C0E0
C0C0
61C0
7F80
3E00
ENDCHAR
STARTCHAR one.os
ENCODING -1
SWIDTH 358 0
DWIDTH 9 0
BBX 6 13 1 0
BITMAP
0C
1C
7C
EC
08
18
18
18
18
10
30
30
30
ENDCHAR
STARTCHAR two.os
ENCODING -1
SWIDTH 483 0
DWIDTH 12 0
BBX 11 13 0 0
BITMAP
0780
1FC0
38E0
0060
0040
00C0
0180
0300
0C00
1800
6000
FFC0
FFC0
ENDCHAR
STARTCHAR three.os
ENCODING -1
SWIDTH 483 0
DWIDTH 12 0
BBX 12 17 -2 -4
BITMAP
07E0
0FF0
1C30
0030
0030
0030
00E0
0FC0
0F80
00C0
0060
0060
0060
00E0
C1C0
FFC0
3F00
ENDCHAR
STARTCHAR four.os
ENCODING -1
SWIDTH 540 0
DWIDTH 13 0
BBX 13 17 -1 -4
BITMAP
0030
0070
00F0
01B0
0330
0760
0660
0C60
1860
3060
60C0
7FF8
FFF0
00C0
00C0
0180
0180
ENDCHAR
STARTCHAR five.os
ENCODING -1
SWIDTH 503 0
DWIDTH 12 0
BBX 11 17 0 -4
BITMAP
0FE0
1FE0
1800
1800
3000
3000
3000
3F00
7F80
01C0
00C0
00C0
00C0
00C0
8380
FF00
7E00
ENDCHAR
STARTCHAR six.os
ENCODING -1
SWIDTH 540 0
DWIDTH 13 0
BBX 12 17 1 0
BITMAP
01F0
07F0
0E00
1800
3000
3000
6780
7FC0
70C0
E060
C060
C060
C0C0
E0C0
61C0
7F80
1E00
ENDCHAR
STARTCHAR seven.os
ENCODING -1
SWIDTH 474 0
DWIDTH 11 0
BBX 11 17 0 -4
BITMAP
7FE0
7FE0
0060
00C0
01C0
0180
0300
0300
0600
0E00
0C00
1800
1800
3000
7000
6000
C000
ENDCHAR
STARTCHAR eight.os
ENCODING -1
SWIDTH 534 0
DWIDTH 13 0
BBX 12 17 1 0
BITMAP
07C0
1FE0
1860
3030
3030
3060
19C0
0F80
1F00
7180
E0C0
C0C0
C0C0
C0C0
E1C0
7F80
3E00
ENDCHAR
STARTCHAR nine.os
ENCODING -1
SWIDTH 527 0
DWIDTH 13 0
BBX 11 17 0 -4
BITMAP
0780
1FC0
38E0
3060
6060
6060
6060
6060
70E0
3FE0
1E60
00C0
00C0
0180
0780
FF00
FC00
ENDCHAR
STARTCHAR g.alt
ENCODING -1
SWIDTH 577 0
DWIDTH 14 0
BBX 12 19 1 -6
BITMAP
0F30
1FB0
38F0
7060
6060
6060
C060
C0E0
C0C0
C1C0
E3C0
7EC0
3CC0
0180
0180
0180
8300
FF00
7C00
ENDCHAR
STARTCHAR gcircumflex.alt
ENCODING -1
SWIDTH 577 0
DWIDTH 14 0
BBX 12 25 1 -6
BITMAP
0180
03C0
0640
0C60
0000
0000
0F30
1FB0
38F0
7060
6060
6060
C060
C0E0
C0C0
C1C0
E3C0
7EC0
3CC0
0180
0180
0180
8300
FF00
7C00
ENDCHAR
STARTCHAR gbreve.alt
ENCODING -1
SWIDTH 577 0
DWIDTH 14 0
BBX 12 24 1 -6
BITMAP
0420
07E0
03C0
0000
0000
0F30
1FB0
38F0
7060
6060
6060
C060
C0E0
C0C0
C1C0
E3C0
7EC0
3CC0
0180
0180
0180
8300
FF00
7C00
ENDCHAR
STARTCHAR gdot.alt
ENCODING -1
SWIDTH 577 0
DWIDTH 14 0
BBX 12 24 1 -6
BITMAP
0100
0380
0300
0000
0000
0F30
1FB0
38F0
7060
6060
6060
C060
C0E0
C0C0
C1C0
E3C0
7EC0
3CC0
0180
0180
0180
8300
FF00
7C00
ENDCHAR
STARTCHAR gcommaaccent.alt
ENCODING -1
SWIDTH 577 0
DWIDTH 14 0
BBX 12 25 1 -6
BITMAP
00C0
0080
0180
0300
0000
0000
0F30
1FB0
38F0
7060
6060
6060
C060
C0E0
C0C0
C1C0
E3C0
7EC0
3CC0
0180
0180
0180
8300
FF00
7C00
ENDCHAR
ENDFONT
